<svg xmlns="http://www.w3.org/2000/svg" width="20" height="20" viewBox="0 0 20 20"><defs><style>.a{opacity:0;}.b{fill:#eaeaea;opacity:0.224;}.b,.c{isolation:isolate;}.c{fill:#c9c9c9;opacity:0.882;}.d{fill:#999;}</style></defs><g transform="translate(-61.826 -52.182)"><g class="a"><rect class="b" width="19.999" height="19.999" rx="7" transform="translate(61.826 52.182)"/><path class="c" d="M66.2,72.182a4.358,4.358,0,0,1-3.062-1.25h-.062v-.063a4.362,4.362,0,0,1-1.25-3.061V56.558a4.358,4.358,0,0,1,1.25-3.062v-.063h.063A4.359,4.359,0,0,1,66.2,52.182H77.45a4.366,4.366,0,0,1,3.062,1.25h.063v.063a4.361,4.361,0,0,1,1.251,3.063V61.87h0v.625h0v5.313a4.357,4.357,0,0,1-1.25,3.062v.063h-.063a4.359,4.359,0,0,1-3.063,1.249Zm11.25-.625a3.722,3.722,0,0,0,2.071-.625H75.889v.625Zm-2.187,0v-.625H72.139v.625Zm-3.75,0v-.625H68.389v.625Zm-5.313,0h1.564v-.625H64.126a3.725,3.725,0,0,0,2.074.626Zm9.688-1.623v.373h3.62l-1.721-1.721a8.755,8.755,0,0,1-1.9,1.348Zm-.811.373h.185v-.076c-.06.027-.121.051-.184.077Zm-6.69,0h.184l-.184-.076Zm-4.246,0h3.623v-.373a8.709,8.709,0,0,1-1.9-1.348Zm8-2.509v2.5a8.072,8.072,0,0,0,3.125-.753V66.636A5.6,5.6,0,0,1,72.139,67.8Zm-3.75,1.75a8.071,8.071,0,0,0,3.125.752V67.8a5.6,5.6,0,0,1-3.125-1.163Zm-5.94-1.74a3.724,3.724,0,0,0,.625,2.074V62.495h-.625Zm18.125,2.074a3.73,3.73,0,0,0,.625-2.071V62.495h-.625Zm-2.35-1.738,1.721,1.721V65.436A8.749,8.749,0,0,1,78.226,68.144ZM63.7,69.865l1.72-1.72a8.748,8.748,0,0,1-1.72-2.707Zm2.6-1.72a8.1,8.1,0,0,0,1.458,1.079V66.682Zm9.583,1.078a8.172,8.172,0,0,0,1.457-1.078l-1.457-1.457Zm.129-3.29,1.77,1.77a8.057,8.057,0,0,0,2.157-5.208h-2.5a5.6,5.6,0,0,1-1.422,3.438ZM65.864,67.7l1.77-1.77a5.6,5.6,0,0,1-1.424-3.438h-2.5A8.058,8.058,0,0,0,65.864,67.7Zm6.275-1.783v1.253a4.977,4.977,0,0,0,2.993-1.243l-.884-.884a3.729,3.729,0,0,1-2.109.875Zm-3.619.011a4.977,4.977,0,0,0,2.994,1.243V65.92a3.734,3.734,0,0,1-2.11-.874Zm3.619-.638A3.1,3.1,0,0,0,73.8,64.6l-1.664-1.664Zm-2.29-.691a3.11,3.11,0,0,0,1.665.691V62.936Zm4.841,0,.574.573V63.682a3.759,3.759,0,0,1-.574.922Zm-6.3.581.573-.573a3.774,3.774,0,0,1-.573-.92Zm-.625-.083V62.5h-.928a4.964,4.964,0,0,0,.928,2.6Zm8.125,0a4.979,4.979,0,0,0,.927-2.6h-.927Zm-1.645-.935a3.111,3.111,0,0,0,.691-1.664H72.581Zm-4.837,0L71.071,62.5H68.716a3.106,3.106,0,0,0,.691,1.659ZM80.576,61.87H81.2V56.558a3.732,3.732,0,0,0-.625-2.071Zm-4.558-3.438a5.6,5.6,0,0,1,1.424,3.437h2.5a8.061,8.061,0,0,0-2.154-5.207Zm-.129,3.437h.927a4.97,4.97,0,0,0-.927-2.6Zm-3.309,0h2.355a3.117,3.117,0,0,0-.691-1.664Zm-3.864,0h2.356l-1.665-1.663a3.1,3.1,0,0,0-.691,1.664Zm-1.88,0h.928v-2.6a4.966,4.966,0,0,0-.928,2.6Zm-3.129,0h2.5a5.6,5.6,0,0,1,1.427-3.437l-1.77-1.77a8.06,8.06,0,0,0-2.158,5.208Zm-.631,0V54.487a3.732,3.732,0,0,0-.625,2.071V61.87Zm6.773-2.1,1.665,1.664V59.074A3.1,3.1,0,0,0,69.849,59.764Zm2.289,1.663L73.8,59.764a3.11,3.11,0,0,0-1.663-.69Zm2.55-1.666a3.766,3.766,0,0,1,.574.92v-1.5Zm-6.3.92a3.747,3.747,0,0,1,.574-.92l-.573-.579Zm3.75-2.236a3.732,3.732,0,0,1,2.108.874l.884-.884a4.979,4.979,0,0,0-2.992-1.242Zm-3.618-.01.884.884a3.738,3.738,0,0,1,2.109-.874V57.193A4.982,4.982,0,0,0,68.52,58.435Zm9.706-2.214a8.758,8.758,0,0,1,1.721,2.71V54.5ZM63.7,58.929a8.76,8.76,0,0,1,1.725-2.708L63.7,54.5Zm8.438-2.362a5.6,5.6,0,0,1,3.125,1.163V54.816a8.072,8.072,0,0,0-3.125-.753Zm-3.75-1.75V57.73a5.6,5.6,0,0,1,3.125-1.163v-2.5a8.089,8.089,0,0,0-3.125.749Zm-2.083,1.4,1.458,1.461v-2.54A8.149,8.149,0,0,0,66.306,56.221Zm9.583,1.461,1.456-1.457a8.16,8.16,0,0,0-1.456-1.077Zm-10.025-1.9a8.743,8.743,0,0,1,1.9-1.348v-.376h-3.62Zm10.025-1.351a8.821,8.821,0,0,1,1.9,1.347l1.72-1.72h-3.62Zm-.626-.3v-.073H75.08Zm-6.875,0,.183-.076h-.182Zm7.5-.7h3.638a3.739,3.739,0,0,0-2.076-.623H75.889Zm-3.75,0h3.125v-.623H72.139Zm-3.75,0h3.126v-.623H68.389Zm-.625,0v-.623H66.2a3.735,3.735,0,0,0-2.07.625Z"/></g><path class="d" d="M-1170.168-10903.944a2.754,2.754,0,0,1-2.752-2.752v-6.405a.75.75,0,0,1,.748-.751.75.75,0,0,1,.751.751v6.405a1.254,1.254,0,0,0,1.253,1.253h11.641a1.254,1.254,0,0,0,1.253-1.253v-6.405a.752.752,0,0,1,.751-.751.75.75,0,0,1,.748.751v6.405a2.754,2.754,0,0,1-2.752,2.752Zm5.43-4.087-4.068-4.075a.753.753,0,0,1,0-1.062.75.75,0,0,1,1.061,0l2.785,2.791v-10.249a.752.752,0,0,1,.751-.751.752.752,0,0,1,.751.751v10.249l2.785-2.791a.75.75,0,0,1,1.061,0,.75.75,0,0,1,0,1.062l-4.068,4.075a.746.746,0,0,1-.532.22A.747.747,0,0,1-1164.739-10908.031Z" transform="translate(1236.174 10974.818)"/></g></svg>