<svg xmlns="http://www.w3.org/2000/svg" width="133.919" height="15.713" viewBox="0 0 133.919 15.713"><defs><style>.a{fill:#fff;opacity:0.5;}</style></defs><path class="a" d="M246.762,472.8c-.011,1.083-1.325,1.958-2.943,1.958H178.944c-1.621-.1-2.866-1.066-2.649-2.207.191-1,1.559-1.708,3.062-1.708h10.379c1.645,0,2.908-.9,2.939-2,.03-1.069,1.334-1.929,2.937-1.929h7.667c1.537,0,2.937-.74,3.091-1.763.176-1.177-1.2-2.169-2.923-2.169H171.052c-1.537,0-2.937-.74-3.091-1.763-.176-1.177,1.2-2.169,2.923-2.169H260.49c1.645,0,2.908.9,2.939,2,.029,1.069,1.332,1.93,2.937,1.93h32.393c1.537,0,2.937.74,3.091,1.763.176,1.178-1.2,2.169-2.923,2.169H260.245c-1.645,0-2.908.9-2.939,2-.029,1.069-1.334,1.93-2.937,1.93h-4.664c-1.619,0-2.934.874-2.943,1.957Z" transform="translate(-167.946 -459.045)"/></svg>