<svg xmlns="http://www.w3.org/2000/svg" width="73.948" height="74.93" viewBox="0 0 73.948 74.93"><defs><style>.a{fill:#d3cccc;}.b{fill:#342844;}.c{fill:#5c6f9a;}.d{fill:#352741;}</style></defs><g transform="translate(0 0)"><g transform="translate(0 3.305)"><path class="a" d="M25.255,382.432l23.481,26.294,7.561-6.749L32.816,375.683Zm1.583.271,1.918-1.713.666.746L27.5,383.449Zm1.332,1.492,1.918-1.713.666.746-1.918,1.713Zm1.332,1.492,1.918-1.713.666.746-1.918,1.713Zm1.332,1.492,1.918-1.713.666.746L31.5,387.924Zm1.332,1.492,1.918-1.713.666.746-1.918,1.713Zm1.332,1.492,1.918-1.713.666.746-1.918,1.713Zm1.332,1.492,1.918-1.713.666.746L35.5,392.4Zm1.332,1.491,1.918-1.712.666.746-1.918,1.712Zm1.332,1.492,1.918-1.712.666.746-1.918,1.712Zm1.332,1.492,1.918-1.712.666.746-1.918,1.712Zm1.332,1.492,1.918-1.712.666.746-1.918,1.712Zm1.332,1.492,1.918-1.712.666.745-1.918,1.713Zm1.332,1.492,1.918-1.713.666.746-1.918,1.713Zm1.332,1.492,1.918-1.713.666.746-1.918,1.713Zm6.58,3.508-1.918,1.713-.666-.746,1.918-1.713ZM49.4,404.11l-1.918,1.713-.666-.746,1.918-1.713Zm-3.25.221-.666-.746,1.918-1.713.666.746Zm7.139-1.012-1.918,1.712-.666-.746,1.918-1.712Zm-1.332-1.492-1.918,1.712-.666-.746,1.918-1.712Zm-1.332-1.492-1.918,1.712-.666-.746,1.918-1.712Zm-1.332-1.492-1.918,1.712-.666-.745,1.918-1.713Zm-1.332-1.492-1.918,1.713-.666-.746,1.918-1.713Zm-1.332-1.492-1.918,1.713-.666-.746,1.918-1.713ZM45.3,394.37l-1.918,1.713-.666-.746,1.918-1.713Zm-1.332-1.492-1.918,1.713-.666-.746,1.918-1.713Zm-1.332-1.492L40.717,393.1l-.666-.746,1.918-1.713ZM41.3,389.895l-1.918,1.713-.666-.746,1.919-1.713ZM39.972,388.4l-1.919,1.712-.666-.746,1.919-1.712Zm-1.333-1.492-1.918,1.712-.666-.746,1.919-1.712Zm-1.331-1.492-1.919,1.712-.666-.746,1.919-1.712Zm-1.333-1.492-1.918,1.712-.666-.746,1.919-1.712Zm-1.331-1.492-1.919,1.712-.666-.746,1.919-1.712Zm-1.332-1.492-1.919,1.712-.666-.745,1.919-1.713Zm-3.251.221-.666-.746,1.919-1.713.666.746Z" transform="translate(-25.255 -375.496)"/><rect class="b" width="2.31" height="45.307" transform="translate(6.051 1.535) rotate(-41.759)"/><rect class="c" width="1.949" height="45.307" transform="translate(6.32 1.294) rotate(-41.759)"/></g><g transform="translate(70.642 0) rotate(90)"><path class="a" d="M0,6.751l23.475,26.3L31.035,26.3,7.559,0Zm1.583.271L3.5,5.309l.666.746L2.248,7.768ZM2.914,8.514,4.832,6.8l.666.746L3.58,9.26Zm1.332,1.492L6.164,8.293l.666.746L4.912,10.752ZM5.578,11.5,7.5,9.785l.666.746L6.244,12.244ZM6.909,12.99l1.918-1.713.666.746L7.575,13.736Zm1.332,1.492,1.918-1.713.666.746L8.907,15.228Zm1.332,1.492,1.918-1.713.666.746-1.918,1.712ZM10.9,17.465l1.918-1.712.666.746L11.57,18.211Zm1.332,1.492,1.918-1.712.666.746L12.9,19.7Zm1.332,1.492,1.918-1.712.666.746-1.918,1.712ZM14.9,21.941l1.918-1.712.666.746-1.918,1.712Zm1.332,1.492,1.918-1.712.666.745L16.9,24.179Zm1.332,1.492,1.918-1.713.666.746-1.918,1.713Zm1.332,1.492L20.812,24.7l.666.746L19.56,27.163Zm6.578,3.509-1.918,1.713-.666-.746,1.918-1.713Zm-1.332-1.492-1.918,1.713-.666-.746,1.918-1.713Zm-3.249.221-.666-.746L22.144,26.2l.666.746Zm7.137-1.012-1.918,1.712-.666-.746L27.363,26.9ZM26.7,26.151,24.78,27.863l-.666-.746L26.032,25.4Zm-1.332-1.492-1.918,1.712-.666-.746L24.7,23.913Zm-1.332-1.492-1.918,1.712-.666-.745,1.918-1.713ZM22.7,21.675l-1.918,1.713-.666-.746,1.918-1.713Zm-1.332-1.492L19.453,21.9l-.666-.746,1.918-1.713Zm-1.332-1.492L18.122,20.4l-.666-.746,1.918-1.713ZM18.708,17.2,16.79,18.912l-.666-.746,1.918-1.713Zm-1.332-1.492L15.458,17.42l-.666-.746,1.918-1.713Zm-1.332-1.492-1.918,1.713-.666-.746,1.919-1.713Zm-1.331-1.491-1.919,1.712-.666-.746,1.919-1.712Zm-1.333-1.492-1.918,1.712L10.8,12.2l1.919-1.712ZM12.05,9.74l-1.919,1.712-.666-.746,1.919-1.712ZM10.717,8.248,8.8,9.96l-.666-.746L10.053,7.5ZM9.387,6.756,7.468,8.468,6.8,7.722,8.721,6.01ZM8.055,5.264,6.137,6.976l-.666-.745L7.389,4.518ZM4.8,5.485l-.666-.746L6.058,3.026l.666.746Z" transform="translate(0 0.187)"/><rect class="d" width="2.299" height="45.308" transform="translate(6.049 1.535) rotate(-41.759)"/><rect class="c" width="1.938" height="45.308" transform="translate(6.318 1.295) rotate(-41.759)"/></g><g transform="translate(73.948 72.625) rotate(180)"><path class="a" d="M0,6.749,23.481,33.043l7.561-6.749L7.561,0Zm1.583.271L3.5,5.308l.666.746L2.249,7.766ZM2.915,8.512,4.833,6.8l.666.746L3.581,9.258ZM4.247,10,6.165,8.291l.666.746L4.913,10.749ZM5.579,11.5,7.5,9.783l.666.746L6.245,12.241Zm1.332,1.492,1.918-1.713.666.746L7.577,13.733Zm1.332,1.492,1.918-1.713.666.746L8.909,15.224ZM9.575,15.97l1.918-1.713.666.746-1.918,1.712Zm1.332,1.491,1.918-1.712.666.746-1.918,1.712Zm1.332,1.492,1.918-1.712.666.746L12.905,19.7Zm1.332,1.492,1.918-1.712.666.746L14.237,21.19ZM14.9,21.936l1.918-1.712.666.746-1.918,1.712Zm1.332,1.492,1.918-1.712.666.745L16.9,24.173Zm1.332,1.492,1.918-1.713.666.746-1.918,1.713ZM18.9,26.411,20.817,24.7l.666.746-1.918,1.713Zm6.58,3.508-1.918,1.713-.666-.746,1.918-1.713Zm-1.332-1.492L22.229,30.14l-.666-.746,1.918-1.713Zm-3.25.221-.666-.746,1.918-1.713.666.746Zm7.139-1.012-1.918,1.712-.666-.746,1.918-1.712ZM26.7,26.145l-1.918,1.712-.666-.746L26.038,25.4Zm-1.332-1.492-1.918,1.712-.666-.746,1.918-1.712ZM24.04,23.161l-1.918,1.712-.666-.745,1.918-1.713ZM22.708,21.67,20.79,23.382l-.666-.746,1.918-1.713Zm-1.332-1.492-1.918,1.713-.666-.746,1.918-1.713Zm-1.332-1.492L18.126,20.4l-.666-.746,1.918-1.713Zm-1.332-1.492-1.918,1.713-.666-.746,1.918-1.713ZM17.38,15.7l-1.918,1.713L14.8,16.67l1.918-1.713Zm-1.332-1.492L14.13,15.924l-.666-.746,1.919-1.713Zm-1.331-1.491L12.8,14.432l-.666-.746,1.919-1.712Zm-1.333-1.492-1.918,1.712L10.8,12.2l1.919-1.712ZM12.053,9.738l-1.919,1.712L9.468,10.7l1.919-1.712ZM10.72,8.246,8.8,9.958l-.666-.746L10.055,7.5ZM9.389,6.754,7.47,8.466,6.8,7.72,8.723,6.009ZM8.057,5.263,6.138,6.974l-.666-.745L7.391,4.517Zm-3.251.221L4.14,4.738,6.059,3.025l.666.746Z" transform="translate(0 0.187)"/><rect class="d" width="2.31" height="45.307" transform="translate(6.051 1.535) rotate(-41.759)"/><rect class="c" width="1.949" height="45.307" transform="translate(6.32 1.294) rotate(-41.759)"/></g><g transform="translate(1.306 74.93) rotate(-90)"><path class="a" d="M0,6.751l23.475,26.3L31.035,26.3,7.559,0Zm1.583.271L3.5,5.309l.666.746L2.248,7.768ZM2.914,8.514,4.832,6.8l.666.746L3.58,9.26Zm1.332,1.492L6.164,8.293l.666.746L4.912,10.752ZM5.578,11.5,7.5,9.785l.666.746L6.244,12.244ZM6.909,12.99l1.918-1.713.666.746L7.575,13.736Zm1.332,1.492,1.918-1.713.666.746L8.907,15.228Zm1.332,1.492,1.918-1.713.666.746-1.918,1.712ZM10.9,17.465l1.918-1.712.666.746L11.57,18.211Zm1.332,1.492,1.918-1.712.666.746L12.9,19.7Zm1.332,1.492,1.918-1.712.666.746-1.918,1.712ZM14.9,21.941l1.918-1.712.666.746-1.918,1.712Zm1.332,1.492,1.918-1.712.666.745L16.9,24.179Zm1.332,1.492,1.918-1.713.666.746-1.918,1.713Zm1.332,1.492L20.812,24.7l.666.746L19.56,27.163Zm6.578,3.509-1.918,1.713-.666-.746,1.918-1.713Zm-1.332-1.492-1.918,1.713-.666-.746,1.918-1.713Zm-3.249.221-.666-.746L22.144,26.2l.666.746Zm7.137-1.012-1.918,1.712-.666-.746L27.363,26.9ZM26.7,26.151,24.78,27.863l-.666-.746L26.032,25.4Zm-1.332-1.492-1.918,1.712-.666-.746L24.7,23.913Zm-1.332-1.492-1.918,1.712-.666-.745,1.918-1.713ZM22.7,21.675l-1.918,1.713-.666-.746,1.918-1.713Zm-1.332-1.492L19.453,21.9l-.666-.746,1.918-1.713Zm-1.332-1.492L18.122,20.4l-.666-.746,1.918-1.713ZM18.708,17.2,16.79,18.912l-.666-.746,1.918-1.713Zm-1.332-1.492L15.458,17.42l-.666-.746,1.918-1.713Zm-1.332-1.492-1.918,1.713-.666-.746,1.919-1.713Zm-1.331-1.491-1.919,1.712-.666-.746,1.919-1.712Zm-1.333-1.492-1.918,1.712L10.8,12.2l1.919-1.712ZM12.05,9.74l-1.919,1.712-.666-.746,1.919-1.712ZM10.717,8.248,8.8,9.96l-.666-.746L10.053,7.5ZM9.387,6.756,7.468,8.468,6.8,7.722,8.721,6.01ZM8.055,5.264,6.137,6.976l-.666-.745L7.389,4.518ZM4.8,5.485l-.666-.746L6.058,3.026l.666.746Z" transform="translate(0 0.187)"/><rect class="d" width="2.299" height="45.308" transform="translate(6.049 1.535) rotate(-41.759)"/><rect class="c" width="1.938" height="45.308" transform="translate(6.318 1.295) rotate(-41.759)"/></g></g></svg>