<svg xmlns="http://www.w3.org/2000/svg" width="10.634" height="28.68" viewBox="0 0 10.634 28.68"><defs><style>.a{fill:#28518f;}.b{fill:#193a6f;}</style></defs><path class="a" d="M27,461.972a5.317,5.317,0,0,1-10.634,0c0-2.936,5.365-16.659,5.365-16.659S27,459.036,27,461.972Z" transform="translate(-16.366 -445.313)"/><rect class="a" width="1.61" height="7.779" transform="translate(4.463 20.901)"/><path class="b" d="M21.683,467.288a5.317,5.317,0,0,1-5.317-5.316c0-2.936,5.365-16.659,5.365-16.659s-2.64,7.532-2.4,14.078C19.252,467.46,22.9,467.288,21.683,467.288Z" transform="translate(-16.366 -445.313)"/><path class="b" d="M0-.1,1.078,0l-.2,6.71H0Z" transform="translate(4.463 21.975)"/></svg>