<svg xmlns="http://www.w3.org/2000/svg" width="14.634" height="39.478" viewBox="0 0 14.634 39.478"><defs><style>.a{fill:#79aa42;}.b{fill:#4f8e26;}.c{fill:#3b6421;}.d{fill:#3a621f;}</style></defs><path class="a" d="M17,463.453a7.317,7.317,0,0,1-14.634,0c0-4.041,7.383-22.931,7.383-22.931S17,459.412,17,463.453Z" transform="translate(-2.366 -440.522)"/><rect class="b" width="2.215" height="10.707" transform="translate(6.142 28.771)"/><path class="c" d="M0,0,1.505.263,1.191,9.707H0Z" transform="translate(6.142 29.771)"/><path class="d" d="M9.683,470.769a7.316,7.316,0,0,1-7.317-7.316c0-4.041,7.383-22.931,7.383-22.931s-3.843,11.54-3.569,20.555C6.347,466.556,11.291,470.769,9.683,470.769Z" transform="translate(-2.366 -440.522)"/></svg>