<svg xmlns="http://www.w3.org/2000/svg" width="34" height="34" viewBox="0 0 34 34"><defs><style>.a{fill:#eaeaea;}.a,.b{opacity:0;}.b{fill:#c9c9c9;}.c{opacity:0.799;}.d{fill:#5792f6;}.e{fill:#fff;}.f,.g{stroke:none;}.g{fill:#fff;}</style></defs><rect class="a" width="32" height="32" rx="7" transform="translate(0)"/><g transform="translate(-82 -30.998)"><path class="b" d="M903-540a6.976,6.976,0,0,1-4.9-2H898v-.1a6.978,6.978,0,0,1-2-4.9v-18a6.978,6.978,0,0,1,2-4.9v-.1h.1a6.976,6.976,0,0,1,4.9-2h2.5v0h1v0h5v0h1v0h5v0h1v0H921a6.977,6.977,0,0,1,4.9,2h.1v.1a6.977,6.977,0,0,1,2,4.9v8.5h0v1h0v8.5a6.977,6.977,0,0,1-2,4.9v.1h-.1a6.977,6.977,0,0,1-4.9,2Zm18-1a5.967,5.967,0,0,0,3.314-1H918.5v1Zm-3.5,0v-1h-5v1Zm-6,0v-1h-5v1Zm-8.5,0h2.5v-1h-5.814A5.966,5.966,0,0,0,903-541Zm15.5-2.6v.6h5.792l-2.753-2.753A14.053,14.053,0,0,1,918.5-543.6Zm-1.3.6h.3v-.122C917.4-543.079,917.3-543.038,917.2-543Zm-10.7,0h.3c-.1-.04-.2-.08-.3-.122Zm-6.794,0H905.5v-.6a13.983,13.983,0,0,1-3.04-2.156Zm12.794-4.014v4a12.923,12.923,0,0,0,5-1.2v-4.661A8.958,8.958,0,0,1,912.5-547.013Zm-6,2.8a12.933,12.933,0,0,0,5,1.2v-4a8.958,8.958,0,0,1-5-1.861ZM897-547a5.965,5.965,0,0,0,1,3.313V-555.5h-1Zm29,3.313A5.965,5.965,0,0,0,927-547v-8.5h-1Zm-3.753-2.775L925-543.707v-7.087A13.993,13.993,0,0,1,922.247-546.46ZM899-543.708l2.752-2.752A14.008,14.008,0,0,1,899-550.792Zm4.168-2.752a13,13,0,0,0,2.333,1.726v-4.059Zm15.333,1.725a13.089,13.089,0,0,0,2.331-1.725l-2.331-2.332Zm.207-5.264,2.831,2.831a12.894,12.894,0,0,0,3.451-8.332h-4A8.957,8.957,0,0,1,918.708-550Zm-16.248,2.831L905.292-550a8.959,8.959,0,0,1-2.278-5.5h-4.005A12.9,12.9,0,0,0,902.461-547.168Zm10.04-2.852v2.005A7.966,7.966,0,0,0,917.29-550l-1.415-1.415A5.972,5.972,0,0,1,912.5-550.02ZM906.71-550a7.969,7.969,0,0,0,4.791,1.988v-2.005a5.977,5.977,0,0,1-3.376-1.4Zm5.791-1.021a4.982,4.982,0,0,0,2.662-1.105l-2.662-2.663Zm-3.664-1.105a4.979,4.979,0,0,0,2.664,1.105v-3.769Zm7.745,0,.918.917V-553.6A6.04,6.04,0,0,1,916.583-552.125Zm-10.082.917.917-.917a6.009,6.009,0,0,1-.917-1.471Zm-1-.132v-4.16h-1.485A7.943,7.943,0,0,0,905.5-551.34Zm13,0a7.959,7.959,0,0,0,1.483-4.159H918.5Zm-2.632-1.5a4.979,4.979,0,0,0,1.105-2.663h-3.766Zm-7.74,0,2.663-2.663h-3.768A4.976,4.976,0,0,0,908.13-552.837ZM926-556.5h1V-565a5.966,5.966,0,0,0-1-3.313Zm-7.293-5.5a8.957,8.957,0,0,1,2.279,5.5h4a12.9,12.9,0,0,0-3.451-8.332Zm-.206,5.5h1.483a7.953,7.953,0,0,0-1.483-4.157Zm-5.294,0h3.767a4.976,4.976,0,0,0-1.105-2.662Zm-6.183,0h3.769l-2.663-2.662A4.97,4.97,0,0,0,907.025-556.5Zm-3.009,0H905.5v-4.159A7.946,7.946,0,0,0,904.016-556.5Zm-5.007,0h4.005a8.958,8.958,0,0,1,2.279-5.5l-2.832-2.831A12.9,12.9,0,0,0,899.009-556.5Zm-1.009,0v-11.812A5.967,5.967,0,0,0,897-565v8.5Zm10.838-3.37,2.663,2.662v-3.767A4.968,4.968,0,0,0,908.838-559.869Zm3.663,2.661,2.661-2.661a4.972,4.972,0,0,0-2.661-1.1Zm4.081-2.666a6.006,6.006,0,0,1,.919,1.472v-2.391ZM906.5-558.4a5.977,5.977,0,0,1,.918-1.472l-.918-.919Zm6-3.578a5.975,5.975,0,0,1,3.373,1.4L917.289-562a7.963,7.963,0,0,0-4.788-1.987Zm-5.79-.017,1.415,1.415a5.978,5.978,0,0,1,3.375-1.4v-2A7.96,7.96,0,0,0,906.711-562Zm15.535-3.542A14,14,0,0,1,925-561.2v-7.089ZM899-561.2a14.012,14.012,0,0,1,2.753-4.333L899-568.292Zm13.5-3.78a8.958,8.958,0,0,1,5,1.861v-4.662a12.923,12.923,0,0,0-5-1.2Zm-6-2.8v4.662a8.958,8.958,0,0,1,5-1.861v-4.005A12.919,12.919,0,0,0,906.5-567.786Zm-3.333,2.247,2.333,2.331v-4.056A13.036,13.036,0,0,0,903.168-565.538Zm15.333,2.33,2.33-2.331a13.037,13.037,0,0,0-2.33-1.724Zm-16.041-3.037a14.018,14.018,0,0,1,3.04-2.157v-.6h-5.792ZM918.5-568.4a14.04,14.04,0,0,1,3.037,2.155L924.291-569H918.5Zm-1-.476V-569h-.293C917.305-568.959,917.4-568.919,917.5-568.877Zm-11,0c.1-.041.2-.082.293-.121H906.5Zm12-1.121h5.812A5.967,5.967,0,0,0,921-571h-2.5Zm-6,0h5v-1h-5Zm-6,0h5v-1h-5Zm-1,0v-1H903a5.965,5.965,0,0,0-3.313,1Z" transform="translate(-814 602.999)"/></g><g class="c" transform="translate(2 2)"><g class="d"><path class="f" d="M 16 31 C 11.9933500289917 31 8.226519584655762 29.43972969055176 5.393400192260742 26.60659980773926 C 2.560270071029663 23.77347946166992 1 20.00665092468262 1 16 C 1 11.9933500289917 2.560270071029663 8.226519584655762 5.393400192260742 5.393400192260742 C 8.226519584655762 2.560270071029663 11.9933500289917 1 16 1 C 20.00665092468262 1 23.77347946166992 2.560270071029663 26.60659980773926 5.393400192260742 C 29.43972969055176 8.226519584655762 31 11.9933500289917 31 16 C 31 20.00665092468262 29.43972969055176 23.77347946166992 26.60659980773926 26.60659980773926 C 23.77347946166992 29.43972969055176 20.00665092468262 31 16 31 Z"/><path class="g" d="M 16 2 C 12.26045989990234 2 8.744749069213867 3.456249237060547 6.100500106811523 6.100500106811523 C 3.456249237060547 8.744749069213867 2 12.26045989990234 2 16 C 2 19.73954010009766 3.456249237060547 23.2552490234375 6.100500106811523 25.89949989318848 C 8.744749069213867 28.54375076293945 12.26045989990234 30 16 30 C 19.73954010009766 30 23.2552490234375 28.54375076293945 25.89949989318848 25.89949989318848 C 28.54375076293945 23.2552490234375 30 19.73954010009766 30 16 C 30 12.26045989990234 28.54375076293945 8.744749069213867 25.89949989318848 6.100500106811523 C 23.2552490234375 3.456249237060547 19.73954010009766 2 16 2 M 16 0 C 24.8365592956543 0 32 7.163440704345703 32 16 C 32 24.8365592956543 24.8365592956543 32 16 32 C 7.163440704345703 32 0 24.8365592956543 0 16 C 0 7.163440704345703 7.163440704345703 0 16 0 Z"/></g><g class="e" transform="translate(24 9) rotate(90)"><path class="f" d="M 10.51793003082275 10.99999904632568 L 3.482070446014404 10.99999904632568 C 2.959630489349365 10.99999904632568 2.701610565185547 10.6489782333374 2.614930391311646 10.4980583190918 C 2.528250455856323 10.34713840484619 2.355050563812256 9.947399139404297 2.618300437927246 9.496129035949707 L 6.136220455169678 3.465398788452148 C 6.397430419921875 3.017618656158447 6.827300548553467 2.969268798828125 7.000000476837158 2.969268798828125 C 7.17270040512085 2.969268798828125 7.602570533752441 3.017618656158447 7.863780498504639 3.465398788452148 L 11.38170051574707 9.496129035949707 C 11.64495086669922 9.947399139404297 11.47175025939941 10.34713840484619 11.38507080078125 10.4980583190918 C 11.29839038848877 10.6489782333374 11.04037094116211 10.99999904632568 10.51793003082275 10.99999904632568 Z"/><path class="g" d="M 7.000000476837158 3.969268798828125 L 3.482070922851562 9.999999046325684 L 10.51792049407959 9.999999046325684 L 7.000000476837158 3.969268798828125 M 7.000000476837158 1.969271659851074 C 7.670840263366699 1.969271659851074 8.341680526733398 2.300024032592773 8.727560043334961 2.961528778076172 L 12.24548053741455 8.992258071899414 C 13.02325057983398 10.32556915283203 12.06151008605957 11.99999904632568 10.51793098449707 11.99999904632568 L 3.482070922851562 11.99999904632568 C 1.938490867614746 11.99999904632568 0.976750373840332 10.32556915283203 1.754510879516602 8.992258071899414 L 5.272440910339355 2.961528778076172 C 5.658320426940918 2.300024032592773 6.329160690307617 1.969271659851074 7.000000476837158 1.969271659851074 Z"/></g></g></svg>