<svg xmlns="http://www.w3.org/2000/svg" xmlns:xlink="http://www.w3.org/1999/xlink" width="32" height="32.002" viewBox="0 0 32 32.002"><defs><style>.a{fill:#eaeaea;}.a,.b{opacity:0;}.b{fill:#c9c9c9;}.c{fill:url(#a);}.d{fill:#fff;}</style><linearGradient id="a" x1="0.5" x2="0.5" y2="1" gradientUnits="objectBoundingBox"><stop offset="0" stop-color="#fdb885"/><stop offset="1" stop-color="#e62c0e"/></linearGradient></defs><rect class="a" width="32" height="32" rx="7" transform="translate(0)"/><g transform="translate(-82 -30.998)"><path class="b" d="M903-540a6.976,6.976,0,0,1-4.9-2H898v-.1a6.978,6.978,0,0,1-2-4.9v-18a6.978,6.978,0,0,1,2-4.9v-.1h.1a6.976,6.976,0,0,1,4.9-2h2.5v0h1v0h5v0h1v0h5v0h1v0H921a6.977,6.977,0,0,1,4.9,2h.1v.1a6.977,6.977,0,0,1,2,4.9v8.5h0v1h0v8.5a6.977,6.977,0,0,1-2,4.9v.1h-.1a6.977,6.977,0,0,1-4.9,2Zm18-1a5.967,5.967,0,0,0,3.314-1H918.5v1Zm-3.5,0v-1h-5v1Zm-6,0v-1h-5v1Zm-8.5,0h2.5v-1h-5.814A5.966,5.966,0,0,0,903-541Zm15.5-2.6v.6h5.792l-2.753-2.753A14.053,14.053,0,0,1,918.5-543.6Zm-1.3.6h.3v-.122C917.4-543.079,917.3-543.038,917.2-543Zm-10.7,0h.3c-.1-.04-.2-.08-.3-.122Zm-6.794,0H905.5v-.6a13.983,13.983,0,0,1-3.04-2.156Zm12.794-4.014v4a12.923,12.923,0,0,0,5-1.2v-4.661A8.958,8.958,0,0,1,912.5-547.013Zm-6,2.8a12.933,12.933,0,0,0,5,1.2v-4a8.958,8.958,0,0,1-5-1.861ZM897-547a5.965,5.965,0,0,0,1,3.313V-555.5h-1Zm29,3.313A5.965,5.965,0,0,0,927-547v-8.5h-1Zm-3.753-2.775L925-543.707v-7.087A13.993,13.993,0,0,1,922.247-546.46ZM899-543.708l2.752-2.752A14.008,14.008,0,0,1,899-550.792Zm4.168-2.752a13,13,0,0,0,2.333,1.726v-4.059Zm15.333,1.725a13.089,13.089,0,0,0,2.331-1.725l-2.331-2.332Zm.207-5.264,2.831,2.831a12.894,12.894,0,0,0,3.451-8.332h-4A8.957,8.957,0,0,1,918.708-550Zm-16.248,2.831L905.292-550a8.959,8.959,0,0,1-2.278-5.5h-4.005A12.9,12.9,0,0,0,902.461-547.168Zm10.04-2.852v2.005A7.966,7.966,0,0,0,917.29-550l-1.415-1.415A5.972,5.972,0,0,1,912.5-550.02ZM906.71-550a7.969,7.969,0,0,0,4.791,1.988v-2.005a5.977,5.977,0,0,1-3.376-1.4Zm5.791-1.021a4.982,4.982,0,0,0,2.662-1.105l-2.662-2.663Zm-3.664-1.105a4.979,4.979,0,0,0,2.664,1.105v-3.769Zm7.745,0,.918.917V-553.6A6.04,6.04,0,0,1,916.583-552.125Zm-10.082.917.917-.917a6.009,6.009,0,0,1-.917-1.471Zm-1-.132v-4.16h-1.485A7.943,7.943,0,0,0,905.5-551.34Zm13,0a7.959,7.959,0,0,0,1.483-4.159H918.5Zm-2.632-1.5a4.979,4.979,0,0,0,1.105-2.663h-3.766Zm-7.74,0,2.663-2.663h-3.768A4.976,4.976,0,0,0,908.13-552.837ZM926-556.5h1V-565a5.966,5.966,0,0,0-1-3.313Zm-7.293-5.5a8.957,8.957,0,0,1,2.279,5.5h4a12.9,12.9,0,0,0-3.451-8.332Zm-.206,5.5h1.483a7.953,7.953,0,0,0-1.483-4.157Zm-5.294,0h3.767a4.976,4.976,0,0,0-1.105-2.662Zm-6.183,0h3.769l-2.663-2.662A4.97,4.97,0,0,0,907.025-556.5Zm-3.009,0H905.5v-4.159A7.946,7.946,0,0,0,904.016-556.5Zm-5.007,0h4.005a8.958,8.958,0,0,1,2.279-5.5l-2.832-2.831A12.9,12.9,0,0,0,899.009-556.5Zm-1.009,0v-11.812A5.967,5.967,0,0,0,897-565v8.5Zm10.838-3.37,2.663,2.662v-3.767A4.968,4.968,0,0,0,908.838-559.869Zm3.663,2.661,2.661-2.661a4.972,4.972,0,0,0-2.661-1.1Zm4.081-2.666a6.006,6.006,0,0,1,.919,1.472v-2.391ZM906.5-558.4a5.977,5.977,0,0,1,.918-1.472l-.918-.919Zm6-3.578a5.975,5.975,0,0,1,3.373,1.4L917.289-562a7.963,7.963,0,0,0-4.788-1.987Zm-5.79-.017,1.415,1.415a5.978,5.978,0,0,1,3.375-1.4v-2A7.96,7.96,0,0,0,906.711-562Zm15.535-3.542A14,14,0,0,1,925-561.2v-7.089ZM899-561.2a14.012,14.012,0,0,1,2.753-4.333L899-568.292Zm13.5-3.78a8.958,8.958,0,0,1,5,1.861v-4.662a12.923,12.923,0,0,0-5-1.2Zm-6-2.8v4.662a8.958,8.958,0,0,1,5-1.861v-4.005A12.919,12.919,0,0,0,906.5-567.786Zm-3.333,2.247,2.333,2.331v-4.056A13.036,13.036,0,0,0,903.168-565.538Zm15.333,2.33,2.33-2.331a13.037,13.037,0,0,0-2.33-1.724Zm-16.041-3.037a14.018,14.018,0,0,1,3.04-2.157v-.6h-5.792ZM918.5-568.4a14.04,14.04,0,0,1,3.037,2.155L924.291-569H918.5Zm-1-.476V-569h-.293C917.305-568.959,917.4-568.919,917.5-568.877Zm-11,0c.1-.041.2-.082.293-.121H906.5Zm12-1.121h5.812A5.967,5.967,0,0,0,921-571h-2.5Zm-6,0h5v-1h-5Zm-6,0h5v-1h-5Zm-1,0v-1H903a5.965,5.965,0,0,0-3.313,1Z" transform="translate(-814 602.999)"/></g><g transform="translate(1 3.999)"><path class="c" d="M13.268,3a2,2,0,0,1,3.465,0L28.27,23a2,2,0,0,1-1.732,3H3.463A2,2,0,0,1,1.73,23Z" transform="translate(0 -1.999)"/><rect class="d" width="3" height="8" rx="1.5" transform="translate(13.5 8.001)"/><circle class="d" cx="1.5" cy="1.5" r="1.5" transform="translate(13.5 18.001)"/></g></svg>