<svg xmlns="http://www.w3.org/2000/svg" width="14" height="14" viewBox="0 0 14 14"><defs><style>.a,.c{fill:#f0000b;}.a{opacity:0;}.b{fill:#c4c38a;}</style></defs><g transform="translate(-145 -426)"><rect class="a" width="14" height="14" transform="translate(145 426)"/><g transform="translate(-2.222 -5.153)"><path class="b" d="M.683,0H6.83a0,0,0,0,1,0,0V1.366a0,0,0,0,1,0,0H.683A.683.683,0,0,1,0,.683v0A.683.683,0,0,1,.683,0Z" transform="translate(149.222 442.813) rotate(-45)"/><path class="c" d="M0,0H6.147A.683.683,0,0,1,6.83.683v0a.683.683,0,0,1-.683.683H0a0,0,0,0,1,0,0V0A0,0,0,0,1,0,0Z" transform="translate(154.051 437.983) rotate(-45)"/></g></g></svg>