<svg xmlns="http://www.w3.org/2000/svg" width="14" height="14" viewBox="0 0 14 14"><defs><style>.a,.b{fill:#06ff0d;}.a{opacity:0;}</style></defs><g transform="translate(-145 -423)"><rect class="a" width="14" height="14" transform="translate(145 423)"/><path class="b" d="M950.713,530.77a.638.638,0,0,1,.452.189.624.624,0,0,1,.18.451c-.023,1.5.266,2.044.44,2.131a3.348,3.348,0,0,0,1.182.2.521.521,0,0,1,.468.294l.884,1.831a.523.523,0,0,1,.026.066.866.866,0,0,1-.234.9l-1.218,1.129-.584.673.647.94a.6.6,0,0,1-.814.839,6.573,6.573,0,0,0-1.709-.9,8.2,8.2,0,0,0-2.464,1.869.648.648,0,0,1-.455.186.652.652,0,0,1-.646-.747l.274-1.865a.124.124,0,0,0-.019-.09,2.2,2.2,0,0,0-1.5-.917c-.721-.1-1.273-.7-1.641-1.789a9.751,9.751,0,0,1-.414-2.036.652.652,0,0,1,.992-.618l1.14.7,1.245.521a8.232,8.232,0,0,0,1.647-.492c.093-.21.273-.684.488-1.283a2.584,2.584,0,0,1,.237-.491l.868-1.4.016-.025A.631.631,0,0,1,950.713,530.77Zm1.921,4a3.755,3.755,0,0,1-1.313-.3,2.117,2.117,0,0,1-.945-1.748l-.178.287a1.547,1.547,0,0,0-.141.294c-.189.528-.441,1.212-.569,1.467s-.416.472-1.455.759c-.523.144-1.017.245-1.038.249a.521.521,0,0,1-.3-.03l-1.432-.6a.518.518,0,0,1-.073-.037l-.474-.293c.219,1.211.621,2.038,1.053,2.1a3.228,3.228,0,0,1,2.208,1.347,1.156,1.156,0,0,1,.2.839l-.114.777a6.062,6.062,0,0,1,2.188-1.393.826.826,0,0,1,.175-.018,1.663,1.663,0,0,1,.718.188.518.518,0,0,1,.123-.4l.866-1a.509.509,0,0,1,.039-.04l1.141-1.058Z" transform="translate(-796.561 -105.77)"/></g></svg>