<svg xmlns="http://www.w3.org/2000/svg" xmlns:xlink="http://www.w3.org/1999/xlink" width="20" height="20" viewBox="0 0 20 20"><defs><style>.a{fill:#fff;}.b{clip-path:url(#a);}.c{fill:#5792f6;}.d{filter:url(#b);}</style><clipPath id="a"><rect class="a" width="20" height="20"/></clipPath><filter id="b" x="-7" y="-3" width="34.005" height="32.304" filterUnits="userSpaceOnUse"><feOffset dy="3" input="SourceAlpha"/><feGaussianBlur stdDeviation="3" result="c"/><feFlood flood-color="#999" flood-opacity="0.161"/><feComposite operator="in" in2="c"/><feComposite in="SourceGraphic"/></filter></defs><g class="b"><g transform="translate(-5.012 13.277)"><g class="d" transform="matrix(1, 0, 0, 1, 5.01, -13.28)"><path class="c" d="M-226.986-3172.973h-12a1.979,1.979,0,0,1-1.734-1,1.979,1.979,0,0,1,.006-2l6-10.3a1.98,1.98,0,0,1,1.728-.993,1.98,1.98,0,0,1,1.728.993l6,10.3a1.978,1.978,0,0,1,.006,2A1.979,1.979,0,0,1-226.986-3172.973Zm-6-3.757a.945.945,0,0,0-.948.939.944.944,0,0,0,.948.939.944.944,0,0,0,.948-.939A.945.945,0,0,0-232.986-3176.73Zm0-6.26a.949.949,0,0,0-.948.948v3.113a.949.949,0,0,0,.948.948.949.949,0,0,0,.948-.948v-3.113A.949.949,0,0,0-232.986-3182.99Z" transform="translate(242.99 3190.28)"/></g></g></g></svg>