<svg xmlns="http://www.w3.org/2000/svg" width="24.001" height="24" viewBox="0 0 24.001 24"><defs><style>.a{opacity:0;}.b{opacity:0.265;}.c,.d,.g{fill:none;}.c{stroke:#707070;}.d{stroke:#5792f6;stroke-width:1.5px;}.e{fill:#5792f6;}.f{stroke:none;}</style></defs><g class="a"><g class="b" transform="translate(-106.999 -748)"><g class="c" transform="translate(109 750)"><rect class="f" width="20" height="20"/><rect class="g" x="0.5" y="0.5" width="19" height="19"/></g><g class="c" transform="translate(107 748)"><rect class="f" width="24" height="24" rx="5"/><rect class="g" x="0.5" y="0.5" width="23" height="23" rx="4.5"/></g><g class="c" transform="translate(109 750)"><circle class="f" cx="10" cy="10" r="10"/><circle class="g" cx="10" cy="10" r="9.5"/></g><line class="c" y2="24" transform="translate(118.999 748)"/><line class="c" y2="24" transform="translate(118.999 748)"/><line class="c" y2="24" transform="translate(113.999 748)"/><line class="c" y2="24" transform="translate(123.999 748)"/><line class="c" y2="24" transform="translate(130.999 760) rotate(90)"/><line class="c" x1="19" y2="19" transform="translate(109.5 750.5)"/><line class="c" x1="19" y2="19" transform="translate(128.5 750.5) rotate(90)"/><g class="c" transform="translate(112 753)"><circle class="f" cx="7" cy="7" r="7"/><circle class="g" cx="7" cy="7" r="6.5"/></g><g class="c" transform="translate(114 755)"><circle class="f" cx="5" cy="5" r="5"/><circle class="g" cx="5" cy="5" r="4.5"/></g></g></g><g transform="translate(-23 -211)"><g class="d" transform="translate(25 213)"><circle class="f" cx="10" cy="10" r="10"/><circle class="g" cx="10" cy="10" r="9.25"/></g><path class="e" d="M89-2625a6.007,6.007,0,0,1-6-6,6.007,6.007,0,0,1,6-6,6.007,6.007,0,0,1,6,6A6.007,6.007,0,0,1,89-2625Zm0-8.571A2.574,2.574,0,0,0,86.429-2631,2.574,2.574,0,0,0,89-2628.429,2.574,2.574,0,0,0,91.571-2631,2.574,2.574,0,0,0,89-2633.571Z" transform="translate(-54 2854)"/></g></svg>