<svg xmlns="http://www.w3.org/2000/svg" xmlns:xlink="http://www.w3.org/1999/xlink" width="24.001" height="24" viewBox="0 0 24.001 24"><defs><style>.a{fill:#fff;}.b{opacity:0;}.c{opacity:0.498;}.d,.g{fill:none;}.d{stroke:#707070;}.e{clip-path:url(#a);}.f{stroke:none;}</style><clipPath id="a"><rect class="a" width="19.938" height="20"/></clipPath></defs><g class="b"><g class="c" transform="translate(-106.999 -748)"><g class="d" transform="translate(109 750)"><rect class="f" width="20" height="20"/><rect class="g" x="0.5" y="0.5" width="19" height="19"/></g><g class="d" transform="translate(107 748)"><rect class="f" width="24" height="24" rx="5"/><rect class="g" x="0.5" y="0.5" width="23" height="23" rx="4.5"/></g><g class="d" transform="translate(109 750)"><circle class="f" cx="10" cy="10" r="10"/><circle class="g" cx="10" cy="10" r="9.5"/></g><line class="d" y2="24" transform="translate(118.999 748)"/><line class="d" y2="24" transform="translate(118.999 748)"/><line class="d" y2="24" transform="translate(113.999 748)"/><line class="d" y2="24" transform="translate(123.999 748)"/><line class="d" y2="24" transform="translate(130.999 760) rotate(90)"/><line class="d" x1="19" y2="19" transform="translate(109.5 750.5)"/><line class="d" x1="19" y2="19" transform="translate(128.5 750.5) rotate(90)"/><g class="d" transform="translate(112 753)"><circle class="f" cx="7" cy="7" r="7"/><circle class="g" cx="7" cy="7" r="6.5"/></g><g class="d" transform="translate(114 755)"><circle class="f" cx="5" cy="5" r="5"/><circle class="g" cx="5" cy="5" r="4.5"/></g></g></g><g transform="translate(2 2)"><g class="e" transform="translate(0 0)"><path class="a" d="M259.711,266.374h3.6a1.109,1.109,0,0,1,1.1.979l.008.13v3.6a4.711,4.711,0,1,1-4.94-4.706l.228-.006h0Zm10.514,0a4.711,4.711,0,1,1-4.711,4.711v-3.6a1.108,1.108,0,0,1,1.109-1.108Zm-10.514-10.519a4.711,4.711,0,0,1,4.711,4.711v3.6a1.108,1.108,0,0,1-1.108,1.108h-3.6a4.711,4.711,0,1,1,0-9.422Zm10.514,0a4.711,4.711,0,0,1,.228,9.417l-.228.006h-3.6a1.108,1.108,0,0,1-1.1-.979l-.007-.13v-3.6a4.711,4.711,0,0,1,4.711-4.711Zm0,0" transform="translate(-255 -255.827)"/></g></g></svg>