<svg xmlns="http://www.w3.org/2000/svg" width="50" height="50.009" viewBox="0 0 50 50.009"><defs><style>.a{fill:#fb5453;}.b{fill:#6468f1;}.c{fill:#5283f0;}.d{fill:#00b2fe;}.e{fill:#66d020;}.f{fill:#9ad122;}.g{fill:#ffc71a;}.h{fill:#ff7612;}</style></defs><path class="a" d="M388.492,93.373a24.366,24.366,0,0,0-8.384-1.352,21.66,21.66,0,0,0-8.384,1.549L388.5,110.635Z" transform="translate(-355.111 -92.021)"/><path class="b" d="M694.747,142.909a22.731,22.731,0,0,0-7.282-4.762l-.123,23.44,12.579-11.917a24.24,24.24,0,0,0-5.174-6.761Z" transform="translate(-652.018 -135.389)"/><path class="c" d="M634.5,368.778l-17.3,16.546h17.5a23.463,23.463,0,0,0,1.372-8.275A20.955,20.955,0,0,0,634.5,368.778Z" transform="translate(-586.074 -352.388)"/><path class="d" d="M501.056,703.381a25.234,25.234,0,0,0,7.056-4.819,21.037,21.037,0,0,0,4.968-6.785l-24.46-.116Z" transform="translate(-465.177 -656.129)"/><path class="e" d="M371.731,639.733a24.37,24.37,0,0,0,8.384,1.352,21.631,21.631,0,0,0,8.384-1.549l-16.772-17.065Z" transform="translate(-355.112 -591.076)"/><path class="f" d="M143.11,514.3a22.729,22.729,0,0,0,7.282,4.762l.123-23.44-12.579,11.917A24.489,24.489,0,0,0,143.11,514.3Z" transform="translate(-135.141 -471.813)"/><path class="g" d="M92.55,368.778a23.446,23.446,0,0,0-1.372,8.273,20.9,20.9,0,0,0,1.569,8.273l17.3-16.541H92.55Z" transform="translate(-91.178 -352.388)"/><path class="h" d="M149.961,138.147a25.238,25.238,0,0,0-7.057,4.819,21.04,21.04,0,0,0-4.968,6.785l24.46.116Z" transform="translate(-135.141 -135.389)"/></svg>