<svg xmlns="http://www.w3.org/2000/svg" width="50" height="48.413" viewBox="0 0 50 48.413"><defs><style>.a{fill:#ffcd00;}.b{fill:#f1a308;}.c{fill:#fff;}</style></defs><path class="a" d="M113.762,104.468a.86.86,0,0,0-.451-1.437l-15.448-2.894a.913.913,0,0,1-.635-.468l-7.454-13.9a.9.9,0,0,0-1.548,0l-7.454,13.9a.913.913,0,0,1-.635.468L64.689,103.03a.86.86,0,0,0-.451,1.437l11.237,11.767a.939.939,0,0,1,.247.787L73.155,132.76a.844.844,0,0,0,1.189.9l14.266-6.9a.91.91,0,0,1,.781,0l14.266,6.9a.844.844,0,0,0,1.188-.9l-2.616-16.032,11.533-12.26Z" transform="translate(-64 -85.333)"/><path class="b" d="M293.184,457.275c-.254-.212-6.236-2.266-15.394-.9a.592.592,0,0,1-.452-.112c-.04.225.2.4.505.423,6.466.451,10.082,3.09,11.21,4.018,2.291-1.625,4.039-2.844,4.105-2.9a.319.319,0,0,0,.026-.534m7.622-1.684c-2.346,1.976-9,6.568-11.324,8.342a.354.354,0,0,0,.118.642,23.16,23.16,0,0,0,3.17.924l8.978-8.554a1.052,1.052,0,0,0-.586-1.835,1.132,1.132,0,0,1-.357.48m6.862,9.909-.006,0a64.407,64.407,0,0,1-25.385,4.064,27.787,27.787,0,0,1-3.64-.355,1.081,1.081,0,0,1-.308-.1c-.594.687.116,1.206,2.649,1.718a94.079,94.079,0,0,0,23.336,1.723l-.5-3.052a17.028,17.028,0,0,0,3.794-3.516.523.523,0,0,0,.058-.481" transform="translate(-265.554 -434.557)"/><path class="c" d="M307.762,412.2c-3,.289-12.131.207-17.522-1.864a.349.349,0,0,1-.12-.629c2.249-1.733,8.688-6.219,10.958-8.15.442-.376.559-.867.021-1.267-1.032-.766-4.673-2.034-8.889-2.069a34.651,34.651,0,0,0-14.561,3.039.588.588,0,0,0,.384,1.1c9.228-1.418,15.256.717,15.511.937a.332.332,0,0,1-.028.546c-.171.134-11.2,8.055-14.51,10.851a.863.863,0,0,0,.469,1.518,28.058,28.058,0,0,0,3.64.353,65.017,65.017,0,0,0,25.384-4.025s-.121-.4-.738-.337" transform="translate(-265.693 -380.835)"/></svg>