<svg xmlns="http://www.w3.org/2000/svg" width="20" height="20" viewBox="0 0 20 20"><defs><style>.a{opacity:0;}.b{fill:#eaeaea;opacity:0.224;}.c{fill:#c9c9c9;opacity:0.882;}.d{fill:none;stroke:#5792f6;stroke-linecap:round;stroke-width:1.5px;}</style></defs><g class="a"><rect class="b" width="20" height="20" rx="7"/><path class="c" d="M4.374,20a4.36,4.36,0,0,1-3.062-1.25H1.25v-.063A4.361,4.361,0,0,1,0,15.625V4.376A4.361,4.361,0,0,1,1.25,1.314V1.251h.063A4.36,4.36,0,0,1,4.374,0h11.25a4.361,4.361,0,0,1,3.062,1.25h.063v.063A4.36,4.36,0,0,1,20,4.376V9.687h0v.625h0v5.313a4.36,4.36,0,0,1-1.25,3.061v.063h-.063A4.361,4.361,0,0,1,15.624,20Zm11.25-.625A3.729,3.729,0,0,0,17.7,18.75H14.063v.625Zm-2.187,0V18.75H10.313v.625Zm-3.75,0V18.75H6.563v.625Zm-5.313,0H5.938V18.75H2.3A3.729,3.729,0,0,0,4.374,19.375Zm9.688-1.623v.373h3.62L15.962,16.4A8.782,8.782,0,0,1,14.063,17.751Zm-.811.373h.185v-.076C13.376,18.075,13.315,18.1,13.252,18.125Zm-6.69,0h.184c-.062-.025-.123-.05-.184-.076Zm-4.246,0H5.938v-.373a8.738,8.738,0,0,1-1.9-1.348Zm8-2.509v2.5a8.077,8.077,0,0,0,3.125-.753V14.453A5.6,5.6,0,0,1,10.313,15.616Zm-3.75,1.75a8.083,8.083,0,0,0,3.125.752v-2.5a5.6,5.6,0,0,1-3.125-1.163ZM.625,15.625A3.728,3.728,0,0,0,1.25,17.7V10.312H.625ZM18.75,17.7a3.728,3.728,0,0,0,.625-2.07V10.312H18.75ZM16.4,15.962l1.721,1.721V13.253A8.745,8.745,0,0,1,16.4,15.962ZM1.875,17.682l1.72-1.72a8.754,8.754,0,0,1-1.72-2.707Zm2.6-1.72A8.123,8.123,0,0,0,5.938,17.04V14.5Zm9.583,1.078a8.181,8.181,0,0,0,1.457-1.078L14.063,14.5Zm.129-3.29,1.77,1.77a8.058,8.058,0,0,0,2.157-5.207h-2.5A5.6,5.6,0,0,1,14.192,13.75ZM4.038,15.519l1.77-1.77a5.6,5.6,0,0,1-1.424-3.438H1.88A8.058,8.058,0,0,0,4.038,15.519Zm6.275-1.782V14.99a4.979,4.979,0,0,0,2.993-1.242l-.884-.884A3.732,3.732,0,0,1,10.313,13.737Zm-3.619.011A4.981,4.981,0,0,0,9.688,14.99V13.737a3.736,3.736,0,0,1-2.11-.873Zm3.619-.638a3.114,3.114,0,0,0,1.664-.691l-1.664-1.664Zm-2.29-.691a3.112,3.112,0,0,0,1.665.691V10.754Zm4.841,0,.574.573V11.5A3.775,3.775,0,0,1,12.864,12.421Zm-6.3.573.573-.573a3.755,3.755,0,0,1-.573-.92Zm-.625-.083v-2.6H5.01A4.964,4.964,0,0,0,5.938,12.912Zm8.125,0a4.974,4.974,0,0,0,.927-2.6h-.927Zm-1.645-.935a3.111,3.111,0,0,0,.691-1.664H10.755Zm-4.837,0,1.664-1.664H6.89A3.11,3.11,0,0,0,7.581,11.976ZM18.75,9.687h.625V4.376a3.728,3.728,0,0,0-.625-2.071ZM14.192,6.25a5.6,5.6,0,0,1,1.424,3.437h2.5A8.061,8.061,0,0,0,15.962,4.48Zm-.129,3.437h.927a4.97,4.97,0,0,0-.927-2.6Zm-3.309,0h2.355a3.109,3.109,0,0,0-.691-1.664Zm-3.864,0H9.246L7.581,8.024A3.106,3.106,0,0,0,6.89,9.687Zm-1.88,0h.928v-2.6A4.966,4.966,0,0,0,5.01,9.687Zm-3.129,0h2.5A5.6,5.6,0,0,1,5.808,6.25L4.038,4.481A8.059,8.059,0,0,0,1.88,9.687Zm-.631,0V2.305A3.729,3.729,0,0,0,.625,4.376V9.687ZM8.023,7.581,9.688,9.245V6.891A3.105,3.105,0,0,0,8.023,7.581Zm2.289,1.663,1.663-1.663a3.108,3.108,0,0,0-1.663-.69Zm2.55-1.666a3.753,3.753,0,0,1,.574.92V7Zm-6.3.92a3.735,3.735,0,0,1,.574-.92L6.563,7Zm3.75-2.236a3.735,3.735,0,0,1,2.108.874l.884-.884A4.977,4.977,0,0,0,10.313,5.01ZM6.694,6.252l.884.884a3.737,3.737,0,0,1,2.109-.874V5.01A4.975,4.975,0,0,0,6.694,6.252ZM16.4,4.039a8.747,8.747,0,0,1,1.721,2.709V2.317ZM1.875,6.747A8.757,8.757,0,0,1,3.6,4.039L1.875,2.318Zm8.438-2.362a5.6,5.6,0,0,1,3.125,1.163V2.634a8.077,8.077,0,0,0-3.125-.753Zm-3.75-1.75V5.548A5.6,5.6,0,0,1,9.688,4.384v-2.5A8.075,8.075,0,0,0,6.563,2.634ZM4.48,4.039,5.938,5.5V2.96A8.147,8.147,0,0,0,4.48,4.039Zm9.583,1.456,1.456-1.457a8.148,8.148,0,0,0-1.456-1.077ZM4.038,3.6a8.761,8.761,0,0,1,1.9-1.348V1.876H2.318ZM14.063,2.249a8.776,8.776,0,0,1,1.9,1.347l1.72-1.72H14.063Zm-.626-.3V1.876h-.183Zm-6.875,0,.183-.076H6.563Zm7.5-.7H17.7A3.729,3.729,0,0,0,15.624.626H14.063Zm-3.75,0h3.125V.626H10.313Zm-3.75,0H9.688V.626H6.563Zm-.625,0V.626H4.374a3.728,3.728,0,0,0-2.07.625Z"/></g><g transform="translate(10 -0.196) rotate(45)"><path class="d" d="M88.21,426.323l10.038,10.038" transform="translate(-86.019 -424.133)"/><path class="d" d="M0,0,10.038,10.038" transform="translate(12.229 2.191) rotate(90)"/></g></svg>