<svg xmlns="http://www.w3.org/2000/svg" xmlns:xlink="http://www.w3.org/1999/xlink" width="43.997" height="44" viewBox="0 0 43.997 44"><defs><style>.a{fill:#5792f6;}.a,.f,.g{mix-blend-mode:multiply;isolation:isolate;}.b{opacity:0.001;}.c{fill:#c9c9c9;opacity:0.882;}.d{clip-path:url(#a);}.e{fill:#1b2cbd;}.f{fill:url(#b);}.g{fill:url(#c);}.h{fill:#fff;}</style><clipPath id="a"><path class="a" d="M-1641-2611.748a17.93,17.93,0,0,1-12.345-4.9,17.921,17.921,0,0,1-5.619-11.957,8.515,8.515,0,0,1,5.74-2.763,6.051,6.051,0,0,1,3.969,1.612,7.473,7.473,0,0,0,4.529,1.874c.163.009.326.013.484.013a7.126,7.126,0,0,0,4.068-1.286,7.279,7.279,0,0,1,4.17-1.307,6.871,6.871,0,0,1,4.26,1.316,6.674,6.674,0,0,0,3.411,1.263c.23.018.46.028.683.028a7.953,7.953,0,0,0,3.344-.752c.167-.073.326-.147.48-.218l.011-.005c.284-.13.553-.254.806-.347a17.9,17.9,0,0,1-5.452,12.343A17.906,17.906,0,0,1-1641-2611.748Z" transform="translate(1663.488 2651.895)"/></clipPath><linearGradient id="b" x1="0.5" x2="0.5" y2="1" gradientUnits="objectBoundingBox"><stop offset="0" stop-color="#fecb20"/><stop offset="1" stop-color="#ff7400"/></linearGradient><linearGradient id="c" x1="-0.249" y1="-0.293" x2="1.117" y2="1.394" gradientUnits="objectBoundingBox"><stop offset="0" stop-color="#c7ecff"/><stop offset="1" stop-color="#2073fd"/></linearGradient></defs><g class="b"><path class="c" d="M9.623,44a9.591,9.591,0,0,1-6.735-2.751H2.75v-.138A9.594,9.594,0,0,1,0,34.375V9.627A9.594,9.594,0,0,1,2.75,2.891V2.752h.139A9.591,9.591,0,0,1,9.623,0h3.439V0h1.375V0h6.875V0h1.375V0H29.56V0h1.376V0h3.435a9.592,9.592,0,0,1,6.736,2.749h.139v.139A9.593,9.593,0,0,1,44,9.627V21.312h0v1.375h0V34.375a9.593,9.593,0,0,1-2.75,6.735v.139h-.139A9.593,9.593,0,0,1,34.371,44Zm24.748-1.376a8.2,8.2,0,0,0,4.556-1.375H30.936v1.375Zm-4.811,0V41.249H22.686v1.375Zm-8.249,0V41.249H14.437v1.375Zm-11.688,0h3.439V41.249H5.068A8.2,8.2,0,0,0,9.623,42.624Zm21.313-3.571v.822H38.9l-3.785-3.785A19.32,19.32,0,0,1,30.936,39.053Zm-1.783.822h.407v-.168C29.425,39.764,29.29,39.82,29.153,39.874Zm-14.716,0h.406c-.136-.054-.271-.11-.406-.168Zm-9.341,0h7.966v-.822a19.224,19.224,0,0,1-4.18-2.965Zm17.591-5.519v5.505a17.767,17.767,0,0,0,6.874-1.656V31.8A12.316,12.316,0,0,1,22.686,34.356Zm-8.25,3.851a17.781,17.781,0,0,0,6.875,1.654V34.356A12.316,12.316,0,0,1,14.437,31.8ZM1.375,34.375A8.2,8.2,0,0,0,2.75,38.931V22.687H1.375ZM41.246,38.93a8.2,8.2,0,0,0,1.375-4.555V22.687H41.246Zm-5.16-3.815L39.871,38.9V29.157A19.24,19.24,0,0,1,36.086,35.115ZM4.124,38.9l3.784-3.784A19.26,19.26,0,0,1,4.124,29.16Zm5.73-3.784a17.87,17.87,0,0,0,3.207,2.373V31.908Zm21.082,2.372a18,18,0,0,0,3.2-2.372l-3.2-3.206Zm.285-7.238,3.893,3.893a17.727,17.727,0,0,0,4.744-11.456H34.353A12.314,12.314,0,0,1,31.221,30.25ZM8.882,34.143l3.893-3.893a12.318,12.318,0,0,1-3.132-7.563H4.137A17.729,17.729,0,0,0,8.882,34.143Zm13.8-3.921v2.757a10.952,10.952,0,0,0,6.584-2.733L27.325,28.3A8.21,8.21,0,0,1,22.686,30.221Zm-7.961.024a10.957,10.957,0,0,0,6.587,2.733V30.221A8.218,8.218,0,0,1,16.67,28.3Zm7.961-1.4a6.85,6.85,0,0,0,3.66-1.52l-3.66-3.661Zm-5.037-1.52a6.845,6.845,0,0,0,3.663,1.52V23.658Zm10.649.006,1.262,1.261V25.3A8.3,8.3,0,0,1,28.3,27.327ZM14.437,28.588,15.7,27.327A8.262,8.262,0,0,1,14.437,25.3Zm-1.375-.182V22.687H11.02A10.921,10.921,0,0,0,13.062,28.406Zm17.874,0a10.943,10.943,0,0,0,2.039-5.718H30.936Zm-3.618-2.057a6.845,6.845,0,0,0,1.52-3.661H23.659Zm-10.642,0,3.662-3.661H15.157A6.841,6.841,0,0,0,16.676,26.348Zm24.57-5.036h1.375V9.627a8.2,8.2,0,0,0-1.375-4.555ZM31.219,13.75a12.315,12.315,0,0,1,3.133,7.562h5.505A17.735,17.735,0,0,0,35.114,9.856Zm-.283,7.562h2.039A10.935,10.935,0,0,0,30.936,15.6Zm-7.278,0h5.18a6.841,6.841,0,0,0-1.52-3.66Zm-8.5,0h5.182l-3.661-3.66A6.833,6.833,0,0,0,15.157,21.312Zm-4.137,0h2.042V15.594A10.925,10.925,0,0,0,11.02,21.312Zm-6.884,0H9.643a12.316,12.316,0,0,1,3.133-7.562L8.882,9.857A17.731,17.731,0,0,0,4.137,21.312Zm-1.387,0V5.071A8.2,8.2,0,0,0,1.375,9.627V21.312Zm14.9-4.633,3.661,3.66V15.161A6.83,6.83,0,0,0,17.65,16.679Zm5.036,3.659,3.659-3.659a6.836,6.836,0,0,0-3.659-1.518Zm5.61-3.665A8.256,8.256,0,0,1,29.56,18.7V15.41ZM14.437,18.7A8.217,8.217,0,0,1,15.7,16.673L14.437,15.41Zm8.25-4.919A8.215,8.215,0,0,1,27.324,15.7l1.945-1.945a10.948,10.948,0,0,0-6.583-2.732Zm-7.96-.023L16.671,15.7a8.219,8.219,0,0,1,4.64-1.922V11.023A10.945,10.945,0,0,0,14.726,13.755Zm21.359-4.87a19.245,19.245,0,0,1,3.787,5.961V5.1ZM4.124,14.843A19.266,19.266,0,0,1,7.909,8.885L4.124,5.1Zm18.562-5.2A12.315,12.315,0,0,1,29.56,12.2V5.795a17.767,17.767,0,0,0-6.874-1.656Zm-8.25-3.851V12.2a12.315,12.315,0,0,1,6.875-2.559V4.139A17.762,17.762,0,0,0,14.437,5.795ZM9.855,8.885l3.207,3.2V6.513A17.923,17.923,0,0,0,9.855,8.885Zm21.082,3.2,3.2-3.2a17.924,17.924,0,0,0-3.2-2.37ZM8.882,7.913a19.273,19.273,0,0,1,4.18-2.966v-.82H5.1ZM30.936,4.948a19.306,19.306,0,0,1,4.176,2.962L38.9,4.127h-7.96ZM29.56,4.294V4.127h-.4C29.292,4.181,29.426,4.237,29.56,4.294Zm-15.123,0c.134-.057.269-.113.4-.167h-.4Zm16.5-1.542h7.99a8.2,8.2,0,0,0-4.555-1.375H30.936Zm-8.25,0H29.56V1.377H22.686Zm-8.25,0h6.875V1.377H14.437Zm-1.375,0V1.377H9.623A8.2,8.2,0,0,0,5.068,2.752Z"/></g><g transform="translate(-0.524)"><path class="a" d="M-1641-2611.748a17.93,17.93,0,0,1-12.345-4.9,17.921,17.921,0,0,1-5.619-11.957,8.515,8.515,0,0,1,5.74-2.763,6.051,6.051,0,0,1,3.969,1.612,7.473,7.473,0,0,0,4.529,1.874c.163.009.326.013.484.013a7.126,7.126,0,0,0,4.068-1.286,7.279,7.279,0,0,1,4.17-1.307,6.871,6.871,0,0,1,4.26,1.316,6.674,6.674,0,0,0,3.411,1.263c.23.018.46.028.683.028a7.953,7.953,0,0,0,3.344-.752c.167-.073.326-.147.48-.218l.011-.005c.284-.13.553-.254.806-.347a17.9,17.9,0,0,1-5.452,12.343A17.906,17.906,0,0,1-1641-2611.748Z" transform="translate(1663.488 2651.895)"/><g class="d"><path class="e" d="M3.623,25c.782,0,3.8-1.833,6.736-1.614s3.211,2.036,7.588,2.036,5.387-1.833,10.024-1.611,6.364,2.106,9.562,2.374,5-1.205,6.03-.763-2.09,1.1-3.867,2.531-7.154-1.422-11.725-1.966-5.99,1.52-10.594,1.52-5.5-1.97-8.539-2.085S3.21,27.949,3.21,27.949Z" transform="translate(0 1.318)"/></g><circle class="f" cx="5.5" cy="5.5" r="5.5" transform="translate(7.524 12)"/><g transform="translate(-279.476 -166.5)"><path class="g" d="M383.087,14.885a1.551,1.551,0,0,1-.384-.047,1.312,1.312,0,0,1-.86-.686c-.2-.394-.162-.884.149-1.8.043-.128.088-.252.128-.366-4.143-4.259-5.16-4.511-6.438-4.826-.151-.038-.309-.076-.476-.122a.9.9,0,0,1-.654.854,3.693,3.693,0,0,1-1,.141,3.638,3.638,0,0,1-2.527-1.061,5.334,5.334,0,0,1-.871-1.09,6.093,6.093,0,0,0-2.575.679,4.12,4.12,0,0,1-1.531.422,1.138,1.138,0,0,1-.975-.457c-.507-.691.019-1.5.193-1.772.11-.171.226-.324.315-.437a5,5,0,0,1,2.27-3.183c3.038-1.9,7.916-.886,8.872-.661,1.4-.121,2.221.045,2.651.534a1.1,1.1,0,0,1,.263.958.9.9,0,0,1-.09.236c2.964,2.043,4.869,6.972,5.424,8.562a10.432,10.432,0,0,1,3.839,1.7.9.9,0,0,1-.559,1.593l-2.911.021a.893.893,0,0,1-.193-.02l-.049.037a6.215,6.215,0,0,1-.726.427,2.938,2.938,0,0,1-1.283.362ZM387.681,13.86ZM379.244,1.94Z" transform="translate(-67.857 170.557)"/><circle class="h" cx="1" cy="1" r="1" transform="translate(302 173)"/></g></g></svg>