<svg xmlns="http://www.w3.org/2000/svg" xmlns:xlink="http://www.w3.org/1999/xlink" width="43.997" height="44" viewBox="0 0 43.997 44"><defs><style>.a,.g{fill:url(#a);}.a,.b{clip-rule:evenodd;}.b,.i{fill:url(#b);}.c{opacity:0;}.d,.e{fill:none;}.d{opacity:0.224;}.e{opacity:0.882;}.f,.h,.j,.k{mix-blend-mode:multiply;isolation:isolate;}.f{clip-path:url(#e);}.h{clip-path:url(#g);}.j{clip-path:url(#i);}.k{clip-path:url(#k);}.l{fill:#1941b7;}</style><linearGradient id="a" x1="0.5" x2="0.5" y2="1" gradientUnits="objectBoundingBox"><stop offset="0" stop-color="#c7ecff"/><stop offset="1" stop-color="#2073fd"/></linearGradient><linearGradient id="b" x1="0.5" x2="0.5" y2="1" gradientUnits="objectBoundingBox"><stop offset="0" stop-color="#fecb20"/><stop offset="1" stop-color="#ff7400"/></linearGradient><clipPath id="e"><path class="a" d="M29.85-120.65a16.1,16.1,0,0,1,8.931-10.1A38.662,38.662,0,0,1,54.9-133.982a14.043,14.043,0,0,0-8.207-4.98c-5.181-1.166-8.584-1.091-12.071,0s-7.606,3.578-8.872,8.212Q24.485-126.115,29.85-120.65Z" transform="translate(-25.509 139.809)"/></clipPath><clipPath id="g"><path class="b" d="M63.426-113.65a16.1,16.1,0,0,1,10.1,8.931A38.662,38.662,0,0,1,76.758-88.6a14.044,14.044,0,0,0,4.98-8.207c1.166-5.181,1.091-8.584,0-12.071s-3.578-7.606-8.213-8.872Q68.891-119.015,63.426-113.65Z" transform="translate(-63.426 117.991)"/></clipPath><clipPath id="i"><path class="a" d="M25.6-80.074a16.1,16.1,0,0,1-8.931,10.1A38.662,38.662,0,0,1,.545-66.742a14.044,14.044,0,0,0,8.207,4.98c5.181,1.166,8.584,1.091,12.071,0s7.606-3.578,8.872-8.212Q30.961-74.609,25.6-80.074Z" transform="translate(-0.545 80.074)"/></clipPath><clipPath id="k"><path class="b" d="M22.85-117.9a16.1,16.1,0,0,1-10.1-8.931,38.662,38.662,0,0,1-3.233-16.119,14.044,14.044,0,0,0-4.98,8.207c-1.166,5.181-1.091,8.584,0,12.071s3.578,7.606,8.212,8.872Q17.385-112.539,22.85-117.9Z" transform="translate(-3.691 142.955)"/></clipPath></defs><g class="c"><rect class="d" width="43.997" height="43.997" rx="7"/><path class="e" d="M9.623,44a9.591,9.591,0,0,1-6.735-2.751H2.75v-.138A9.594,9.594,0,0,1,0,34.375V9.627A9.594,9.594,0,0,1,2.75,2.891V2.752h.139A9.591,9.591,0,0,1,9.623,0h3.439V0h1.375V0h6.875V0h1.375V0H29.56V0h1.376V0h3.435a9.592,9.592,0,0,1,6.736,2.749h.139v.139A9.593,9.593,0,0,1,44,9.627V21.312h0v1.375h0V34.375a9.593,9.593,0,0,1-2.75,6.735v.139h-.139A9.593,9.593,0,0,1,34.371,44Zm24.748-1.376a8.2,8.2,0,0,0,4.556-1.375H30.936v1.375Zm-4.811,0V41.249H22.686v1.375Zm-8.249,0V41.249H14.437v1.375Zm-11.688,0h3.439V41.249H5.068A8.2,8.2,0,0,0,9.623,42.624Zm21.313-3.571v.822H38.9l-3.785-3.785A19.32,19.32,0,0,1,30.936,39.053Zm-1.783.822h.407v-.168C29.425,39.764,29.29,39.82,29.153,39.874Zm-14.716,0h.406c-.136-.054-.271-.11-.406-.168Zm-9.341,0h7.966v-.822a19.224,19.224,0,0,1-4.18-2.965Zm17.591-5.519v5.505a17.767,17.767,0,0,0,6.874-1.656V31.8A12.316,12.316,0,0,1,22.686,34.356Zm-8.25,3.851a17.781,17.781,0,0,0,6.875,1.654V34.356A12.316,12.316,0,0,1,14.437,31.8ZM1.375,34.375A8.2,8.2,0,0,0,2.75,38.931V22.687H1.375ZM41.246,38.93a8.2,8.2,0,0,0,1.375-4.555V22.687H41.246Zm-5.16-3.815L39.871,38.9V29.157A19.24,19.24,0,0,1,36.086,35.115ZM4.124,38.9l3.784-3.784A19.26,19.26,0,0,1,4.124,29.16Zm5.73-3.784a17.87,17.87,0,0,0,3.207,2.373V31.908Zm21.082,2.372a18,18,0,0,0,3.2-2.372l-3.2-3.206Zm.285-7.238,3.893,3.893a17.727,17.727,0,0,0,4.744-11.456H34.353A12.314,12.314,0,0,1,31.221,30.25ZM8.882,34.143l3.893-3.893a12.318,12.318,0,0,1-3.132-7.563H4.137A17.729,17.729,0,0,0,8.882,34.143Zm13.8-3.921v2.757a10.952,10.952,0,0,0,6.584-2.733L27.325,28.3A8.21,8.21,0,0,1,22.686,30.221Zm-7.961.024a10.957,10.957,0,0,0,6.587,2.733V30.221A8.218,8.218,0,0,1,16.67,28.3Zm7.961-1.4a6.85,6.85,0,0,0,3.66-1.52l-3.66-3.661Zm-5.037-1.52a6.845,6.845,0,0,0,3.663,1.52V23.658Zm10.649.006,1.262,1.261V25.3A8.3,8.3,0,0,1,28.3,27.327ZM14.437,28.588,15.7,27.327A8.262,8.262,0,0,1,14.437,25.3Zm-1.375-.182V22.687H11.02A10.921,10.921,0,0,0,13.062,28.406Zm17.874,0a10.943,10.943,0,0,0,2.039-5.718H30.936Zm-3.618-2.057a6.845,6.845,0,0,0,1.52-3.661H23.659Zm-10.642,0,3.662-3.661H15.157A6.841,6.841,0,0,0,16.676,26.348Zm24.57-5.036h1.375V9.627a8.2,8.2,0,0,0-1.375-4.555ZM31.219,13.75a12.315,12.315,0,0,1,3.133,7.562h5.505A17.735,17.735,0,0,0,35.114,9.856Zm-.283,7.562h2.039A10.935,10.935,0,0,0,30.936,15.6Zm-7.278,0h5.18a6.841,6.841,0,0,0-1.52-3.66Zm-8.5,0h5.182l-3.661-3.66A6.833,6.833,0,0,0,15.157,21.312Zm-4.137,0h2.042V15.594A10.925,10.925,0,0,0,11.02,21.312Zm-6.884,0H9.643a12.316,12.316,0,0,1,3.133-7.562L8.882,9.857A17.731,17.731,0,0,0,4.137,21.312Zm-1.387,0V5.071A8.2,8.2,0,0,0,1.375,9.627V21.312Zm14.9-4.633,3.661,3.66V15.161A6.83,6.83,0,0,0,17.65,16.679Zm5.036,3.659,3.659-3.659a6.836,6.836,0,0,0-3.659-1.518Zm5.61-3.665A8.256,8.256,0,0,1,29.56,18.7V15.41ZM14.437,18.7A8.217,8.217,0,0,1,15.7,16.673L14.437,15.41Zm8.25-4.919A8.215,8.215,0,0,1,27.324,15.7l1.945-1.945a10.948,10.948,0,0,0-6.583-2.732Zm-7.96-.023L16.671,15.7a8.219,8.219,0,0,1,4.64-1.922V11.023A10.945,10.945,0,0,0,14.726,13.755Zm21.359-4.87a19.245,19.245,0,0,1,3.787,5.961V5.1ZM4.124,14.843A19.266,19.266,0,0,1,7.909,8.885L4.124,5.1Zm18.562-5.2A12.315,12.315,0,0,1,29.56,12.2V5.795a17.767,17.767,0,0,0-6.874-1.656Zm-8.25-3.851V12.2a12.315,12.315,0,0,1,6.875-2.559V4.139A17.762,17.762,0,0,0,14.437,5.795ZM9.855,8.885l3.207,3.2V6.513A17.923,17.923,0,0,0,9.855,8.885Zm21.082,3.2,3.2-3.2a17.924,17.924,0,0,0-3.2-2.37ZM8.882,7.913a19.273,19.273,0,0,1,4.18-2.966v-.82H5.1ZM30.936,4.948a19.306,19.306,0,0,1,4.176,2.962L38.9,4.127h-7.96ZM29.56,4.294V4.127h-.4C29.292,4.181,29.426,4.237,29.56,4.294Zm-15.123,0c.134-.057.269-.113.4-.167h-.4Zm16.5-1.542h7.99a8.2,8.2,0,0,0-4.555-1.375H30.936Zm-8.25,0H29.56V1.377H22.686Zm-8.25,0h6.875V1.377H14.437Zm-1.375,0V1.377H9.623A8.2,8.2,0,0,0,5.068,2.752Z"/></g><g transform="translate(3.455 146.955)"><g class="f" transform="translate(6.766 -142.171)"><path class="g" d="M20.509-144.809H52.393v21.651H20.509Z" transform="translate(-21.755 143.563)"/></g><g class="h" transform="translate(16.215 -136.734)"><path class="i" d="M80.077-122.991v31.884H58.426v-31.884Z" transform="translate(-59.672 121.745)"/></g><g class="j" transform="translate(0.545 -127.285)"><path class="g" d="M27.428-63.423H-4.455V-85.074H27.428Z" transform="translate(3.209 83.828)"/></g><g class="k" transform="translate(1.329 -142.955)"><path class="i" d="M-1.309-116.072v-31.884H20.342v31.884Z" transform="translate(0.063 146.709)"/></g><circle class="l" cx="3" cy="3" r="3" transform="translate(15.645 -128.253)"/></g></svg>