<svg xmlns="http://www.w3.org/2000/svg" xmlns:xlink="http://www.w3.org/1999/xlink" width="69" height="69" viewBox="0 0 69 69"><defs><style>.a{fill:#fff;}.b{fill:url(#a);}.c{clip-path:url(#d);}.d{fill:url(#e);}.e,.f{stroke:none;}.f{fill:#fff;}.g{filter:url(#b);}</style><linearGradient id="a" x1="0.812" y1="0.138" x2="0.179" y2="0.919" gradientUnits="objectBoundingBox"><stop offset="0" stop-color="#c7ecff"/><stop offset="1" stop-color="#2073fd"/></linearGradient><filter id="b" x="0" y="0" width="69" height="69" filterUnits="userSpaceOnUse"><feOffset dy="3" input="SourceAlpha"/><feGaussianBlur stdDeviation="1.5" result="c"/><feFlood flood-color="#525252" flood-opacity="0.102"/><feComposite operator="in" in2="c"/><feComposite in="SourceGraphic"/></filter><clipPath id="d"><path class="a" d="M26.1,0A26.1,26.1,0,1,1,0,26.1,26.1,26.1,0,0,1,26.1,0Z" transform="translate(18.814 103.814)"/></clipPath><linearGradient id="e" x1="0.5" y1="0.228" x2="0" y2="1.301" gradientUnits="objectBoundingBox"><stop offset="0" stop-color="#fff"/><stop offset="1" stop-color="#96bfff"/></linearGradient></defs><g transform="translate(-10.5 -98.5)"><g class="g" transform="matrix(1, 0, 0, 1, 10.5, 98.5)"><g class="b" transform="translate(4.5 1.5)"><path class="e" d="M 30 58 C 26.21913909912109 58 22.55244064331055 57.25996017456055 19.10174942016602 55.80044174194336 C 15.7677698135376 54.39028930664062 12.77313041687012 52.37110900878906 10.20100975036621 49.79898834228516 C 7.628890037536621 47.22687149047852 5.609710216522217 44.23223114013672 4.199560165405273 40.89825057983398 C 2.740040063858032 37.44755935668945 2 33.78086090087891 2 30 C 2 26.21913909912109 2.740040063858032 22.55244064331055 4.199560165405273 19.10174942016602 C 5.609710216522217 15.7677698135376 7.628890037536621 12.77313041687012 10.20100975036621 10.20100975036621 C 12.77313041687012 7.628890037536621 15.7677698135376 5.609710216522217 19.10174942016602 4.199560165405273 C 22.55244064331055 2.740040063858032 26.21913909912109 2 30 2 C 33.78086090087891 2 37.44755935668945 2.740040063858032 40.89825057983398 4.199560165405273 C 44.23223114013672 5.609710216522217 47.22687149047852 7.628890037536621 49.79898834228516 10.20100975036621 C 52.37110900878906 12.77313041687012 54.39028930664062 15.7677698135376 55.80044174194336 19.10174942016602 C 57.25996017456055 22.55244064331055 58 26.21913909912109 58 30 C 58 33.78086090087891 57.25996017456055 37.44755935668945 55.80044174194336 40.89825057983398 C 54.39028930664062 44.23223114013672 52.37110900878906 47.22687149047852 49.79898834228516 49.79898834228516 C 47.22687149047852 52.37110900878906 44.23223114013672 54.39028930664062 40.89825057983398 55.80044174194336 C 37.44755935668945 57.25996017456055 33.78086090087891 58 30 58 Z"/><path class="f" d="M 30 4 C 26.48825454711914 4 23.08369064331055 4.686878204345703 19.88085556030273 6.04156494140625 C 16.7852668762207 7.350887298583984 14.00431060791016 9.226131439208984 11.6152229309082 11.6152229309082 C 9.226131439208984 14.00431060791016 7.350887298583984 16.7852668762207 6.04156494140625 19.88085556030273 C 4.686878204345703 23.08369064331055 4 26.48825454711914 4 30 C 4 33.51174163818359 4.686878204345703 36.91631317138672 6.04156494140625 40.11914443969727 C 7.350887298583984 43.2147331237793 9.226131439208984 45.99568939208984 11.6152229309082 48.3847770690918 C 14.00431060791016 50.77386474609375 16.7852668762207 52.64911270141602 19.88085556030273 53.95843505859375 C 23.08369064331055 55.3131217956543 26.48825454711914 56 30 56 C 33.51174163818359 56 36.91631317138672 55.3131217956543 40.11914443969727 53.95843505859375 C 43.2147331237793 52.64911270141602 45.99568939208984 50.77386474609375 48.3847770690918 48.3847770690918 C 50.77386474609375 45.99568939208984 52.64911270141602 43.2147331237793 53.95843505859375 40.11914443969727 C 55.3131217956543 36.91631317138672 56 33.51174163818359 56 30 C 56 26.48825454711914 55.3131217956543 23.08369064331055 53.95843505859375 19.88085556030273 C 52.64911270141602 16.7852668762207 50.77386474609375 14.00431060791016 48.3847770690918 11.6152229309082 C 45.99568939208984 9.226131439208984 43.2147331237793 7.350887298583984 40.11914443969727 6.04156494140625 C 36.91631317138672 4.686878204345703 33.51174163818359 4 30 4 M 30 0 C 46.56854248046875 0 60 13.43145370483398 60 30 C 60 46.56854248046875 46.56854248046875 60 30 60 C 13.43145370483398 60 0 46.56854248046875 0 30 C 0 13.43145370483398 13.43145370483398 0 30 0 Z"/></g></g><g class="c" transform="translate(0.186 0.186)"><g transform="translate(24.98 112.809)"><path class="d" d="M28.349,633.6a13.433,13.433,0,0,1-9.053,3.573,14.534,14.534,0,0,1-9.291-3.573C4.05,636.7,0,640.747,0,648.132v12.331H38.116V648.132C38.116,640.747,34.066,636.935,28.349,633.6Z" transform="translate(0 -612.398)"/><path class="d" d="M234.72,85.917A10.961,10.961,0,1,0,224,74.958,10.88,10.88,0,0,0,234.72,85.917Z" transform="translate(-215.662 -64)"/></g></g></g></svg>