<svg xmlns="http://www.w3.org/2000/svg" xmlns:xlink="http://www.w3.org/1999/xlink" width="18" height="18.324" viewBox="0 0 18 18.324"><defs><style>.a{fill:url(#a);}</style><linearGradient id="a" x1="0.5" x2="0.5" y2="1" gradientUnits="objectBoundingBox"><stop offset="0" stop-color="#fff1d8"/><stop offset="1" stop-color="#f4cf85"/></linearGradient></defs><path class="a" d="M13.21,18.648H4.79c-2.068,0-4.79-3.774-4.79-6v-7a1.952,1.952,0,0,1,1.895-2c.008,0,.813.252,2.047.5L7.672.829a2,2,0,0,1,2.657,0L14,4.1c1.248-.23,2.092-.448,2.1-.45a1.952,1.952,0,0,1,1.895,2v7C18,14.874,15.278,18.648,13.21,18.648ZM6,7.324a.989.989,0,0,0-.707.292A1.014,1.014,0,0,0,5,8.332a.984.984,0,0,0,.13.482l2.79,3.96a.978.978,0,0,0,.089.133,1.058,1.058,0,0,0,1.62,0,.917.917,0,0,0,.09-.132l2.734-3.96a.993.993,0,0,0,.13-.482,1.014,1.014,0,0,0-.294-.716.988.988,0,0,0-.706-.292L8.771,9.274Z" transform="translate(0 -0.324)"/></svg>