<svg xmlns="http://www.w3.org/2000/svg" xmlns:xlink="http://www.w3.org/1999/xlink" width="24.001" height="24" viewBox="0 0 24.001 24"><defs><style>.a{fill:#666;}.b{opacity:0;}.c{opacity:0.364;}.d,.e,.h{fill:none;}.d{stroke:#707070;}.e{stroke:#666;stroke-linejoin:round;stroke-width:1.5px;}.f{clip-path:url(#a);}.g{stroke:none;}</style><clipPath id="a"><rect class="a" width="8" height="7.677"/></clipPath></defs><g class="b"><g class="c" transform="translate(-106.999 -748)"><g class="d" transform="translate(109 750)"><rect class="g" width="20" height="20"/><rect class="h" x="0.5" y="0.5" width="19" height="19"/></g><g class="d" transform="translate(107 748)"><rect class="g" width="24" height="24" rx="5"/><rect class="h" x="0.5" y="0.5" width="23" height="23" rx="4.5"/></g><g class="d" transform="translate(109 750)"><circle class="g" cx="10" cy="10" r="10"/><circle class="h" cx="10" cy="10" r="9.5"/></g><line class="d" y2="24" transform="translate(118.999 748)"/><line class="d" y2="24" transform="translate(118.999 748)"/><line class="d" y2="24" transform="translate(113.999 748)"/><line class="d" y2="24" transform="translate(123.999 748)"/><line class="d" y2="24" transform="translate(130.999 760) rotate(90)"/><line class="d" x1="19" y2="19" transform="translate(109.5 750.5)"/><line class="d" x1="19" y2="19" transform="translate(128.5 750.5) rotate(90)"/><g class="d" transform="translate(112 753)"><circle class="g" cx="7" cy="7" r="7"/><circle class="h" cx="7" cy="7" r="6.5"/></g><g class="d" transform="translate(114 755)"><circle class="g" cx="5" cy="5" r="5"/><circle class="h" cx="5" cy="5" r="4.5"/></g></g></g><rect class="e" width="16" height="18.778" rx="3" transform="translate(4 2)"/><g transform="translate(-144 -162.838)"><g transform="translate(152 170)"><g class="f"><path class="a" d="M157.958,177.812a.61.61,0,0,1-.3-.08l-1.615-.847a.315.315,0,0,0-.16-.04.472.472,0,0,0-.16.032l-1.607.855a.576.576,0,0,1-.3.08.68.68,0,0,1-.5-.232.629.629,0,0,1-.144-.528l.312-1.791a.359.359,0,0,0-.1-.3l-1.295-1.255a.639.639,0,0,1-.168-.671.66.66,0,0,1,.528-.448l1.791-.264a.357.357,0,0,0,.264-.184l.8-1.631a.653.653,0,0,1,1.167,0l.8,1.631a.35.35,0,0,0,.264.184l1.791.264a.665.665,0,0,1,.528.44.652.652,0,0,1-.16.671l-1.287,1.263a.336.336,0,0,0-.1.3l.3,1.783a.663.663,0,0,1-.639.767Zm0,0" transform="translate(-151.882 -170.145)"/></g></g></g></svg>