<svg xmlns="http://www.w3.org/2000/svg" xmlns:xlink="http://www.w3.org/1999/xlink" width="110.4" height="16" viewBox="0 0 110.4 16"><defs><style>.a{fill:url(#a);}</style><linearGradient id="a" x1="0.5" x2="0.5" y2="1" gradientUnits="objectBoundingBox"><stop offset="0" stop-color="#fff1d8"/><stop offset="1" stop-color="#f4cf85"/></linearGradient></defs><path class="a" d="M16.919-8.394l-.888,7H.672l.888-7ZM15-12.917H11.349l-.484,3.944H7.8l.484-3.944H4.628L4.2-9.619H1.358l.626-4.9h6.5l.081-.579H2.428l.2-1.56H17.969l-.2,1.56H11.631l-.081.579H18.09l-.626,4.9H14.578Zm-7.165.49-.161,1.382H4.789l.161-1.382Zm-.222,1.85L7.433-9.2H4.547l.182-1.382Zm6.7,0L14.134-9.2H11.268l.182-1.382Zm.222-1.85-.161,1.382H11.51l.161-1.382ZM13.226-3.4l.081-.646H10.218l-.081.646ZM4.3-5.742H7.373l.081-.646H4.386Zm6.216-.646-.081.646h3.068l.081-.646ZM7.07-3.4l.081-.646H4.1L4.022-3.4ZM33.711-17.04,32.5-14.188h4.44l-.283,2.228h-2.4l1.372,7.51H32.076l-1.13-6.106-2.6,6.106H24.77l3.128-7.51H25.618l.283-2.228h2.927l.989-2.384-.363-.468ZM25.113-1.4l-2.382-.8-.525.8H18.958l1.453-2.228.949-7.51h-.827l.262-2.117h4.279l-1.11,8.825,2.765.914h9.385L35.851-1.4Zm-.827-15.242.827,2.54H22.005l-.827-2.54ZM50.059-1.085l.949-1.226.1-.8H47.678l-.262,2.028H44.731l1.07-8.4h8.82l-.888,6.93A2.225,2.225,0,0,1,53.349-1.5a1.012,1.012,0,0,1-.868.412Zm-.848-12.791.081-.646H46.063l.2-1.716h3.209l-.525-.78H52.7l-.1.78h3.249l-.2,1.716H52.38l-.081.646h3.27l-.222,1.694H52.1l-.081.624h3.249l-.222,1.694H45.478l.222-1.694h3.229l.081-.624H45.781L46-13.876Zm-8.84,4.435h-2.2l.262-2.117h2.22l.585-4.591L41-17.04h2.886l-.706,5.482h1.917l-.262,2.117H42.894l-1.07,8.4H39.3Zm3.9,7.6H42.612l.424-7h1.716Zm-5.792-7h1.574l-1.272,7H37.2ZM46-16.238l-.888,4.256H43.46l.868-4.256Zm-5.348.022-.182,4.234H38.878l.161-4.234Zm7.508,9.292h3.431l.1-.825H48.263Zm-.3,2.318h3.431l.1-.825H47.96Zm22.06-9.181.121-.936H58.98l.242-1.827H74.077l-.928,7.265H58.294l.242-1.85H69.6l.121-.981h-10.7l.222-1.671ZM66.973-6.878,72.866-1.04h-4.8l-3.35-3.3-4.137,3.3h-4.46l7.024-5.838.242-1.85h3.835ZM57.567-8.349h3.209L61.14-5.43H57.951ZM71.8-5.43H68.628l1.231-2.919h3.189ZM77.71-2.555,75.57-14.544l-.383-.624h4.077L80.8-6.41l3.875-8.758h3.875L83.139-2.555ZM95.794-15.168,94.038-2.555H90.364l1.352-11.766-.585-.847Zm15.278,0-.767,6.841a2.07,2.07,0,0,1-.636,1.07,1.408,1.408,0,0,1-.918.423H101.97l-.585,4.279H97.711l1.352-11.989-.585-.624Zm-8.315,2.139-.4,4.056h4.077l.585-4.056Z" transform="translate(-0.672 17.04)"/></svg>