<svg xmlns="http://www.w3.org/2000/svg" xmlns:xlink="http://www.w3.org/1999/xlink" width="37" height="21" viewBox="0 0 37 21"><defs><style>.a{fill:url(#a);}.b{fill:#905e00;}.c{filter:url(#b);}</style><linearGradient id="a" x1="0.5" x2="0.5" y2="1" gradientUnits="objectBoundingBox"><stop offset="0" stop-color="#fae3b8"/><stop offset="1" stop-color="#f4cf85"/></linearGradient><filter id="b" x="0" y="0" width="37" height="21" filterUnits="userSpaceOnUse"><feOffset dy="1" input="SourceAlpha"/><feGaussianBlur stdDeviation="0.5" result="c"/><feFlood flood-color="#525252" flood-opacity="0.102"/><feComposite operator="in" in2="c"/><feComposite in="SourceGraphic"/></filter></defs><g transform="translate(1.5 0.5)"><g class="c" transform="matrix(1, 0, 0, 1, -1.5, -0.5)"><rect class="a" width="34" height="18" rx="5" transform="translate(1.5 0.5)"/></g><path class="b" d="M-10.7-.84-12.18-8.372l-.266-.392h2.828l1.064,5.5,2.688-5.5h2.688L-6.93-.84ZM1.848-8.764.63-.84H-1.918L-.98-8.232l-.406-.532Zm10.6,0-.532,4.3a1.283,1.283,0,0,1-.441.672,1.026,1.026,0,0,1-.637.266h-4.7L5.726-.84H3.178l.938-7.532L3.71-8.764ZM6.678-7.42,6.4-4.872H9.226L9.632-7.42Z" transform="translate(17 14)"/></g></svg>