<svg xmlns="http://www.w3.org/2000/svg" width="16" height="17" viewBox="0 0 16 17"><defs><style>.a,.b{fill:#f38e1d;}.a{opacity:0.302;}</style></defs><path class="a" d="M3.733,16.394a4.512,4.512,0,0,1-1.335-.2,6.325,6.325,0,0,0,1.924-4.608A6.469,6.469,0,0,0,3.088,7.754,5.413,5.413,0,0,0,0,5.671a11.407,11.407,0,0,1,.8-1.36C2.957,1.17,5.646,0,6.835,0A.71.71,0,0,1,7.38.166c.291.346-.107.741-.656,1.288A8.409,8.409,0,0,0,5.51,2.872,8.829,8.829,0,0,0,4.37,5.933a4.746,4.746,0,0,1,3,1.73,5.5,5.5,0,0,1,1.215,3.477A5.07,5.07,0,0,1,3.733,16.394Z" transform="translate(7.415)"/><path class="b" d="M.04,11.4A10.865,10.865,0,0,1,1.954,4.311C4.607.446,8.041-.419,8.533.166s-.972,1.3-1.87,2.706a8.907,8.907,0,0,0-1.14,3.061,5.131,5.131,0,0,1,4.215,5.207,5.064,5.064,0,0,1-4.852,5.253A5.041,5.041,0,0,1,.04,11.4Z" transform="translate(0 0.606)"/></svg>