<svg xmlns="http://www.w3.org/2000/svg" xmlns:xlink="http://www.w3.org/1999/xlink" width="24.001" height="24" viewBox="0 0 24.001 24"><defs><style>.a{opacity:0;}.b{opacity:0.498;}.c,.h{fill:none;}.c{stroke:#707070;}.d{fill:#e8c527;}.e{fill:url(#a);}.f{fill:url(#d);}.g{stroke:none;}</style><linearGradient id="a" x1="0.5" y1="1" x2="0.463" gradientUnits="objectBoundingBox"><stop offset="0" stop-color="#c7ecff"/><stop offset="1" stop-color="#2073fd"/></linearGradient><linearGradient id="d" x1="0.5" x2="0.5" y2="1" gradientUnits="objectBoundingBox"><stop offset="0" stop-color="#d8edff"/><stop offset="1" stop-color="#96bfff"/></linearGradient></defs><g class="a"><g class="b" transform="translate(-106.999 -748)"><g class="c" transform="translate(109 750)"><rect class="g" width="20" height="20"/><rect class="h" x="0.5" y="0.5" width="19" height="19"/></g><g class="c" transform="translate(107 748)"><rect class="g" width="24" height="24" rx="5"/><rect class="h" x="0.5" y="0.5" width="23" height="23" rx="4.5"/></g><g class="c" transform="translate(109 750)"><circle class="g" cx="10" cy="10" r="10"/><circle class="h" cx="10" cy="10" r="9.5"/></g><line class="c" y2="24" transform="translate(118.999 748)"/><line class="c" y2="24" transform="translate(118.999 748)"/><line class="c" y2="24" transform="translate(113.999 748)"/><line class="c" y2="24" transform="translate(123.999 748)"/><line class="c" y2="24" transform="translate(130.999 760) rotate(90)"/><line class="c" x1="19" y2="19" transform="translate(109.5 750.5)"/><line class="c" x1="19" y2="19" transform="translate(128.5 750.5) rotate(90)"/><g class="c" transform="translate(112 753)"><circle class="g" cx="7" cy="7" r="7"/><circle class="h" cx="7" cy="7" r="6.5"/></g><g class="c" transform="translate(114 755)"><circle class="g" cx="5" cy="5" r="5"/><circle class="h" cx="5" cy="5" r="4.5"/></g></g></g><g transform="translate(7.834 12.079)"><path class="d" d="M4.013,5.547H.181L0,5.592,5.429,0,4.086,4.274l3.763.652h.484L1.411,10.2Z"/></g><g transform="translate(6.001 17)"><path class="e" d="M1,0A1,1,0,0,1,2,1,7.8,7.8,0,0,1,1,3.14,7.8,7.8,0,0,1,0,1,1,1,0,0,1,1,0Z" transform="translate(10 5.28) rotate(180)"/><path class="e" d="M1,0A1,1,0,0,1,2,1,7.8,7.8,0,0,1,1,3.14,7.8,7.8,0,0,1,0,1,1,1,0,0,1,1,0Z" transform="translate(1 3.14) rotate(180)"/><path class="e" d="M1,0A1,1,0,0,1,2,1,7.8,7.8,0,0,1,1,3.14,7.8,7.8,0,0,1,0,1,1,1,0,0,1,1,0Z" transform="translate(13 3.14) rotate(180)"/></g><path class="f" d="M5,14.528a4,4,0,0,1,0-8H6.024a5,5,0,0,1,9.951,0H17a4,4,0,0,1,0,8Z" transform="translate(1.001 0.802)"/></svg>