<svg xmlns="http://www.w3.org/2000/svg" xmlns:xlink="http://www.w3.org/1999/xlink" width="24.001" height="24" viewBox="0 0 24.001 24"><defs><style>.a{opacity:0;}.b{opacity:0.498;}.c,.f{fill:none;}.c{stroke:#707070;}.d{fill:url(#a);}.e{stroke:none;}</style><linearGradient id="a" x1="0.5" x2="0.5" y2="1" gradientUnits="objectBoundingBox"><stop offset="0" stop-color="#fecb20"/><stop offset="1" stop-color="#ff7400"/></linearGradient></defs><g class="a"><g class="b" transform="translate(-106.999 -748)"><g class="c" transform="translate(109 750)"><rect class="e" width="20" height="20"/><rect class="f" x="0.5" y="0.5" width="19" height="19"/></g><g class="c" transform="translate(107 748)"><rect class="e" width="24" height="24" rx="5"/><rect class="f" x="0.5" y="0.5" width="23" height="23" rx="4.5"/></g><g class="c" transform="translate(109 750)"><circle class="e" cx="10" cy="10" r="10"/><circle class="f" cx="10" cy="10" r="9.5"/></g><line class="c" y2="24" transform="translate(118.999 748)"/><line class="c" y2="24" transform="translate(118.999 748)"/><line class="c" y2="24" transform="translate(113.999 748)"/><line class="c" y2="24" transform="translate(123.999 748)"/><line class="c" y2="24" transform="translate(130.999 760) rotate(90)"/><line class="c" x1="19" y2="19" transform="translate(109.5 750.5)"/><line class="c" x1="19" y2="19" transform="translate(128.5 750.5) rotate(90)"/><g class="c" transform="translate(112 753)"><circle class="e" cx="7" cy="7" r="7"/><circle class="f" cx="7" cy="7" r="6.5"/></g><g class="c" transform="translate(114 755)"><circle class="e" cx="5" cy="5" r="5"/><circle class="f" cx="5" cy="5" r="4.5"/></g></g></g><g transform="translate(6.001 6)"><circle class="d" cx="6" cy="6" r="6"/></g><path class="d" d="M940,1257h2l-1,3Zm5.243-1.343,1.414-1.414,1.415,2.829Zm-9.9-1.414,1.414,1.414-2.829,1.415ZM948,1249l3,1-3,1Zm-17,1,3-1v2Zm14.243-5.656,2.829-1.415-1.415,2.829Zm-11.314-1.415,2.829,1.415-1.414,1.414ZM940,1243l1-3,1,3Z" transform="translate(-928.999 -1238)"/></svg>