<svg xmlns="http://www.w3.org/2000/svg" xmlns:xlink="http://www.w3.org/1999/xlink" width="24.001" height="24" viewBox="0 0 24.001 24"><defs><style>.a{opacity:0;}.b{opacity:0.498;}.c,.g{fill:none;}.c{stroke:#707070;}.d{fill:url(#a);}.e{fill:url(#j);}.f{stroke:none;}</style><linearGradient id="a" x1="0.5" x2="0.5" y2="1" gradientUnits="objectBoundingBox"><stop offset="0" stop-color="#c7ecff"/><stop offset="1" stop-color="#2073fd"/></linearGradient><linearGradient id="j" x1="0.5" x2="0.5" y2="1" gradientUnits="objectBoundingBox"><stop offset="0" stop-color="#d8edff"/><stop offset="1" stop-color="#96bfff"/></linearGradient></defs><g class="a"><g class="b" transform="translate(-106.999 -748)"><g class="c" transform="translate(109 750)"><rect class="f" width="20" height="20"/><rect class="g" x="0.5" y="0.5" width="19" height="19"/></g><g class="c" transform="translate(107 748)"><rect class="f" width="24" height="24" rx="5"/><rect class="g" x="0.5" y="0.5" width="23" height="23" rx="4.5"/></g><g class="c" transform="translate(109 750)"><circle class="f" cx="10" cy="10" r="10"/><circle class="g" cx="10" cy="10" r="9.5"/></g><line class="c" y2="24" transform="translate(118.999 748)"/><line class="c" y2="24" transform="translate(118.999 748)"/><line class="c" y2="24" transform="translate(113.999 748)"/><line class="c" y2="24" transform="translate(123.999 748)"/><line class="c" y2="24" transform="translate(130.999 760) rotate(90)"/><line class="c" x1="19" y2="19" transform="translate(109.5 750.5)"/><line class="c" x1="19" y2="19" transform="translate(128.5 750.5) rotate(90)"/><g class="c" transform="translate(112 753)"><circle class="f" cx="7" cy="7" r="7"/><circle class="g" cx="7" cy="7" r="6.5"/></g><g class="c" transform="translate(114 755)"><circle class="f" cx="5" cy="5" r="5"/><circle class="g" cx="5" cy="5" r="4.5"/></g></g></g><g transform="translate(-451 -46)"><g transform="translate(5150.563 1330.329)"><rect class="d" width="0.492" height="3.447" rx="0.246" transform="translate(-4694.193 -1268)"/><rect class="d" width="0.492" height="3.447" rx="0.246" transform="translate(-4692.331 -1265.628) rotate(120)"/><rect class="d" width="0.492" height="3.447" rx="0.246" transform="translate(-4692.578 -1267.351) rotate(60)"/></g><g transform="translate(5156.563 1331.329)"><rect class="d" width="0.492" height="3.447" rx="0.246" transform="translate(-4694.193 -1268)"/><rect class="d" width="0.492" height="3.447" rx="0.246" transform="translate(-4692.331 -1265.628) rotate(120)"/><rect class="d" width="0.492" height="3.447" rx="0.246" transform="translate(-4692.578 -1267.351) rotate(60)"/></g><g transform="translate(5162.563 1330.329)"><rect class="d" width="0.492" height="3.447" rx="0.246" transform="translate(-4694.193 -1268)"/><rect class="d" width="0.492" height="3.447" rx="0.246" transform="translate(-4692.331 -1265.628) rotate(120)"/><rect class="d" width="0.492" height="3.447" rx="0.246" transform="translate(-4692.578 -1267.351) rotate(60)"/></g></g><path class="e" d="M5.5,15.528a4.5,4.5,0,1,1,0-9h.524a5,5,0,0,1,9.951,0H16.5a4.5,4.5,0,0,1,0,9Z" transform="translate(1 0.802)"/></svg>