<svg xmlns="http://www.w3.org/2000/svg" width="32" height="32" viewBox="0 0 32 32"><defs><style>.a{opacity:0.804;}.b{fill:#28c445;}</style></defs><g class="a" transform="translate(0 -2.959)"><path class="b" d="M302.98,341.827a.938.938,0,1,0,0,1.846.872.872,0,0,0,.923-.923A.86.86,0,0,0,302.98,341.827Zm7.5,5.353a.791.791,0,0,0-.715.738.773.773,0,0,0,.715.738.757.757,0,1,0,0-1.477Zm-2.377-3.507a.884.884,0,0,0,.923-.923.872.872,0,0,0-.923-.923.938.938,0,1,0,0,1.846Zm6.391,3.507a.791.791,0,0,0-.715.738.773.773,0,0,0,.715.738.757.757,0,1,0,0-1.477Z" transform="translate(-292.377 -328.232)"/><path class="b" d="M16,2.96a16,16,0,1,0,16,16,16,16,0,0,0-16-16Zm-3.038,20.1a10.449,10.449,0,0,1-2.551-.394l-2.551,1.3.719-2.249A6.147,6.147,0,0,1,5.635,16.71c0-3.548,3.316-6.33,7.328-6.33,3.594,0,6.771,2.226,7.4,5.217-.232-.023-.464-.046-.7-.046a6.083,6.083,0,0,0-6.214,5.913,5.859,5.859,0,0,0,.232,1.554c-.232.023-.487.046-.719.046Zm10.852,2.6.557,1.855L22.377,26.4a8.941,8.941,0,0,1-2.2.371c-3.5,0-6.261-2.412-6.261-5.4-.023-2.968,2.736-5.38,6.214-5.38,3.316,0,6.238,2.435,6.238,5.4a5.631,5.631,0,0,1-2.551,4.267Z"/></g></svg>