<svg xmlns="http://www.w3.org/2000/svg" width="24.001" height="24" viewBox="0 0 24.001 24"><defs><style>.a{opacity:0;}.b,.c,.f{fill:none;}.b,.c{stroke:#999;}.c{stroke-linecap:round;stroke-linejoin:round;stroke-width:1.5px;}.d{fill:#999;}.e{stroke:none;}</style></defs><g class="a"><g transform="translate(-106.999 -748)"><g class="b" transform="translate(109 750)"><rect class="e" width="20" height="20"/><rect class="f" x="0.5" y="0.5" width="19" height="19"/></g><g class="b" transform="translate(107 748)"><rect class="e" width="24" height="24" rx="5"/><rect class="f" x="0.5" y="0.5" width="23" height="23" rx="4.5"/></g><g class="b" transform="translate(109 750)"><circle class="e" cx="10" cy="10" r="10"/><circle class="f" cx="10" cy="10" r="9.5"/></g><line class="b" y2="24" transform="translate(118.999 748)"/><line class="b" y2="24" transform="translate(118.999 748)"/><line class="b" y2="24" transform="translate(113.999 748)"/><line class="b" y2="24" transform="translate(123.999 748)"/><line class="b" y2="24" transform="translate(130.999 760) rotate(90)"/><line class="b" x1="19" y2="19" transform="translate(109.5 750.5)"/><line class="b" x1="19" y2="19" transform="translate(128.5 750.5) rotate(90)"/><g class="b" transform="translate(112 753)"><circle class="e" cx="7" cy="7" r="7"/><circle class="f" cx="7" cy="7" r="6.5"/></g><g class="b" transform="translate(114 755)"><circle class="e" cx="5" cy="5" r="5"/><circle class="f" cx="5" cy="5" r="4.5"/></g></g></g><g transform="translate(-336.387 -31.363)"><g transform="translate(337 31)"><path class="c" d="M8.8,21.157V5.667L3.185,10.928,8.8,9.6" transform="translate(0.202 -1.246)"/><path class="d" d="M8.117,4.363,4.371,9.171l4.39.388Z"/></g><g transform="translate(360.387 55.273) rotate(180)"><path class="c" d="M8.8,21.157V5.667L3.185,10.928,8.8,9.6" transform="translate(0.202 -1.246)"/><path class="d" d="M8.117,4.363,4.371,9.171l4.39.388Z"/></g></g></svg>