<svg xmlns="http://www.w3.org/2000/svg" width="24.001" height="24" viewBox="0 0 24.001 24"><defs><style>.a{opacity:0;}.b,.f{fill:none;}.b{stroke:#999;}.c{fill:#e52c0e;opacity:0.8;}.d{fill:#fff;}.e{stroke:none;}</style></defs><g class="a"><g transform="translate(-106.999 -748)"><g class="b" transform="translate(109 750)"><rect class="e" width="20" height="20"/><rect class="f" x="0.5" y="0.5" width="19" height="19"/></g><g class="b" transform="translate(107 748)"><rect class="e" width="24" height="24" rx="5"/><rect class="f" x="0.5" y="0.5" width="23" height="23" rx="4.5"/></g><g class="b" transform="translate(109 750)"><circle class="e" cx="10" cy="10" r="10"/><circle class="f" cx="10" cy="10" r="9.5"/></g><line class="b" y2="24" transform="translate(118.999 748)"/><line class="b" y2="24" transform="translate(118.999 748)"/><line class="b" y2="24" transform="translate(113.999 748)"/><line class="b" y2="24" transform="translate(123.999 748)"/><line class="b" y2="24" transform="translate(130.999 760) rotate(90)"/><line class="b" x1="19" y2="19" transform="translate(109.5 750.5)"/><line class="b" x1="19" y2="19" transform="translate(128.5 750.5) rotate(90)"/><g class="b" transform="translate(112 753)"><circle class="e" cx="7" cy="7" r="7"/><circle class="f" cx="7" cy="7" r="6.5"/></g><g class="b" transform="translate(114 755)"><circle class="e" cx="5" cy="5" r="5"/><circle class="f" cx="5" cy="5" r="4.5"/></g></g></g><circle class="c" cx="11" cy="11" r="11" transform="translate(1 1)"/><rect class="d" width="12" height="2" rx="1" transform="translate(6 11)"/></svg>