<svg xmlns="http://www.w3.org/2000/svg" width="10.634" height="28.687" viewBox="0 0 10.634 28.687"><defs><style>.a{fill:#79aa42;}.b{fill:#4f8e26;}.c{fill:#3a651f;}</style></defs><path class="a" d="M27,461.976a5.317,5.317,0,0,1-10.634,0c0-2.937,5.365-16.663,5.365-16.663S27,459.039,27,461.976Z" transform="translate(-16.366 -445.313)"/><rect class="b" width="1.61" height="7.781" transform="translate(4.463 20.906)"/><path class="c" d="M21.683,467.293a5.318,5.318,0,0,1-5.317-5.317c0-2.937,5.365-16.663,5.365-16.663s-2.64,7.534-2.4,14.081C19.252,467.465,22.9,467.293,21.683,467.293Z" transform="translate(-16.366 -445.313)"/><path class="c" d="M0-.1,1.078,0l-.2,6.712H0Z" transform="translate(4.463 21.98)"/></svg>