<svg xmlns="http://www.w3.org/2000/svg" width="38.44" height="63.009" viewBox="0 0 38.44 63.009"><defs><style>.a{fill:#fff;}.b{fill:#f4604d;}.c{fill:#938d8d;}.d{fill:#d19693;opacity:0.5;}.e{fill:#484444;opacity:0.349;}.f{fill:#9f4c43;}</style></defs><g transform="translate(-104.155 -409.005)"><path class="a" d="M80.624,468l-37.979,2.331,7.931-49.608H74.058Z" transform="translate(61.543 1.565)"/><path class="b" d="M82,430H44l9.5-11.641,6.258-7.668a4.018,4.018,0,0,1,6.484,0l6.258,7.668Z" transform="translate(60.595 -0.041)"/><rect class="c" width="6.754" height="10.318" rx="3.377" transform="translate(121.781 436.243)"/><path class="d" d="M50.364,469.824l-7.753.618,6.764-42.41h4.682Z" transform="translate(61.543 1.571)"/><path class="e" d="M5.624,9.462a3.178,3.178,0,0,1-2.247.856h0A3.377,3.377,0,0,1,0,6.941V3.377C0,1.512,6.41,8.64,5.624,9.462Z" transform="translate(121.781 436.243)"/><path class="f" d="M56.472,430H44l9.5-11.641,6.258-7.668Z" transform="translate(60.595 -0.041)"/></g></svg>