<svg xmlns="http://www.w3.org/2000/svg" width="14.634" height="39.469" viewBox="0 0 14.634 39.469"><defs><style>.a{fill:#28518f;}.b{fill:#193a6f;}</style></defs><path class="a" d="M17,463.448a7.317,7.317,0,0,1-14.634,0c0-4.04,7.383-22.925,7.383-22.925S17,459.407,17,463.448Z" transform="translate(-2.366 -440.522)"/><rect class="a" width="2.215" height="10.705" transform="translate(6.142 28.764)"/><path class="b" d="M0,0,1.505.263,1.191,9.705H0Z" transform="translate(6.142 29.763)"/><path class="b" d="M9.683,470.762a7.315,7.315,0,0,1-7.317-7.314c0-4.04,7.383-22.925,7.383-22.925S5.906,452.06,6.18,461.072C6.347,466.55,11.291,470.762,9.683,470.762Z" transform="translate(-2.366 -440.522)"/></svg>