<svg xmlns="http://www.w3.org/2000/svg" xmlns:xlink="http://www.w3.org/1999/xlink" width="38.44" height="62.994" viewBox="0 0 38.44 62.994"><defs><style>.a{fill:#a0bded;}.b{fill:url(#a);}.c{fill:#f38e1d;}.d{fill:#548ce1;opacity:0.5;}.e{fill:#e8c531;}.f{fill:url(#b);}</style><linearGradient id="a" x1="0.677" y1="0.284" x2="0.219" y2="0.814" gradientUnits="objectBoundingBox"><stop offset="0" stop-color="#4165af"/><stop offset="1" stop-color="#0b0d1d"/></linearGradient><linearGradient id="b" x1="0" y1="0.296" x2="1" y2="0.617" xlink:href="#a"/></defs><g transform="translate(0)"><path class="a" d="M80.624,467.989l-37.979,2.331,7.931-49.6H74.058Z" transform="translate(-42.611 -407.444)"/><path class="b" d="M82,429.995H44l9.5-11.638,6.258-7.666a4.018,4.018,0,0,1,6.484,0l6.258,7.666Z" transform="translate(-43.56 -409.046)"/><path class="c" d="M3.377,0h0A3.376,3.376,0,0,1,6.754,3.376V6.94a3.376,3.376,0,0,1-3.377,3.376h0A3.376,3.376,0,0,1,0,6.94V3.376A3.376,3.376,0,0,1,3.377,0Z" transform="translate(17.626 27.232)"/><path class="d" d="M50.364,469.814l-7.753.618,6.764-42.4h4.682Z" transform="translate(-42.611 -407.439)"/><path class="e" d="M5.624,9.461a3.179,3.179,0,0,1-2.247.856h0A3.376,3.376,0,0,1,0,6.94V3.377C0,1.512,6.41,8.639,5.624,9.461Z" transform="translate(17.626 27.231)"/><path class="f" d="M56.472,430H44l9.5-11.638,6.258-7.666Z" transform="translate(-43.56 -409.047)"/></g></svg>