<svg xmlns="http://www.w3.org/2000/svg" width="74.359" height="74.591" viewBox="0 0 74.359 74.591"><defs><style>.a{fill:#c6c2c2;}.b{fill:#fff;}.c{fill:#c69668;}</style></defs><g transform="translate(0 0.232)"><g transform="translate(1.554)"><g transform="translate(33.499)"><path class="a" d="M88.707,372.573l-26.3,23.48,6.751,7.562,26.3-23.481Zm-.272,1.582,1.713,1.919-.746.666-1.713-1.919Zm-1.492,1.332,1.713,1.919-.746.666L86.2,376.153Zm-1.492,1.332,1.713,1.919-.746.666-1.713-1.919Zm-1.492,1.332,1.713,1.919-.746.666-1.713-1.919Zm-1.491,1.332L84.18,381.4l-.746.666-1.712-1.919Zm-1.492,1.332,1.712,1.919-.746.666-1.712-1.919Zm-1.492,1.332,1.712,1.919-.746.666-1.712-1.919Zm-1.492,1.332L79.7,385.4l-.746.666-1.712-1.919ZM76.5,384.811l1.712,1.919-.746.666-1.712-1.919Zm-1.492,1.332,1.712,1.919-.745.666-1.713-1.919Zm-1.492,1.332,1.713,1.919-.746.666-1.713-1.919Zm-1.492,1.332,1.713,1.919-.746.666-1.713-1.919Zm-1.492,1.332,1.713,1.919-.746.666L69.786,390.8Zm-1.492,1.332,1.713,1.919-.746.666-1.713-1.919Zm-3.509,6.58-1.712-1.918.746-.666,1.712,1.918Zm1.492-1.331L65.311,394.8l.745-.666,1.713,1.919Zm-.221-3.251.746-.666,1.713,1.919-.746.666Zm1.013,7.14L66.1,398.691l.746-.666,1.713,1.918Zm1.491-1.332-1.712-1.918.746-.666,1.712,1.918Zm1.492-1.332-1.712-1.918.746-.666,1.712,1.918Zm1.492-1.332L70.578,394.7l.746-.666,1.712,1.918Zm1.492-1.332-1.712-1.918.746-.666,1.712,1.918Zm1.492-1.332-1.712-1.918.746-.666,1.712,1.918Zm1.492-1.332L75.053,390.7l.746-.666,1.713,1.918Zm1.492-1.332-1.713-1.918.746-.666L79,390.619Zm1.492-1.332-1.713-1.918.746-.666,1.713,1.918Zm1.492-1.332L79.529,386.7l.746-.666,1.713,1.918Zm1.492-1.332-1.713-1.918.746-.666,1.713,1.918Zm1.492-1.332-1.713-1.918.746-.666,1.713,1.918Zm1.492-1.332L84,382.707l.746-.666,1.712,1.918Zm1.491-1.332L85.5,381.375l.746-.666,1.712,1.918Zm1.492-1.332-1.712-1.918.746-.666,1.712,1.918Zm1.492-1.332-1.712-1.918.746-.666,1.712,1.918Zm-.22-3.25.746-.666,1.712,1.918-.746.666Z" transform="translate(-60.307 -372.573)"/><path class="b" d="M88.707,372.573l-26.3,23.48,6.751,7.562,26.3-23.481Zm-.272,1.582,1.713,1.919-.746.666-1.713-1.919Zm-1.492,1.332,1.713,1.919-.746.666L86.2,376.153Zm-1.492,1.332,1.713,1.919-.746.666-1.713-1.919Zm-1.492,1.332,1.713,1.919-.746.666-1.713-1.919Zm-1.491,1.332L84.18,381.4l-.746.666-1.712-1.919Zm-1.492,1.332,1.712,1.919-.746.666-1.712-1.919Zm-1.492,1.332,1.712,1.919-.746.666-1.712-1.919Zm-1.492,1.332L79.7,385.4l-.746.666-1.712-1.919ZM76.5,384.811l1.712,1.919-.746.666-1.712-1.919Zm-1.492,1.332,1.712,1.919-.745.666-1.713-1.919Zm-1.492,1.332,1.713,1.919-.746.666-1.713-1.919Zm-1.492,1.332,1.713,1.919-.746.666-1.713-1.919Zm-1.492,1.332,1.713,1.919-.746.666L69.786,390.8Zm-1.492,1.332,1.713,1.919-.746.666-1.713-1.919Zm-3.509,6.58-1.712-1.918.746-.666,1.712,1.918Zm1.492-1.331L65.311,394.8l.745-.666,1.713,1.919Zm-.221-3.251.746-.666,1.713,1.919-.746.666Zm1.013,7.14L66.1,398.691l.746-.666,1.713,1.918Zm1.491-1.332-1.712-1.918.746-.666,1.712,1.918Zm1.492-1.332-1.712-1.918.746-.666,1.712,1.918Zm1.492-1.332L70.578,394.7l.746-.666,1.712,1.918Zm1.492-1.332-1.712-1.918.746-.666,1.712,1.918Zm1.492-1.332-1.712-1.918.746-.666,1.712,1.918Zm1.492-1.332L75.053,390.7l.746-.666,1.713,1.918Zm1.492-1.332-1.713-1.918.746-.666L79,390.619Zm1.492-1.332-1.713-1.918.746-.666,1.713,1.918Zm1.492-1.332L79.529,386.7l.746-.666,1.713,1.918Zm1.492-1.332-1.713-1.918.746-.666,1.713,1.918Zm1.492-1.332-1.713-1.918.746-.666,1.713,1.918Zm1.492-1.332L84,382.707l.746-.666,1.712,1.918Zm1.491-1.332L85.5,381.375l.746-.666,1.712,1.918Zm1.492-1.332-1.712-1.918.746-.666,1.712,1.918Zm1.492-1.332-1.712-1.918.746-.666,1.712,1.918Zm-.22-3.25.746-.666,1.712,1.918-.746.666Z" transform="translate(-60.307 -372.805)"/><rect class="c" width="2.305" height="45.313" transform="translate(33.801 6.05) rotate(48.241)"/></g><g transform="translate(0 36.41)"><path class="b" d="M33.746,446.932l26.3-23.481-6.751-7.562L27,439.37Zm.271-1.583-1.712-1.919.746-.666,1.712,1.919Zm1.492-1.332L33.8,442.1l.746-.666,1.712,1.919ZM37,442.685l-1.712-1.919.746-.666,1.712,1.919Zm1.492-1.332-1.712-1.919.746-.666,1.712,1.919Zm1.492-1.332L38.272,438.1l.746-.666,1.713,1.919Zm1.492-1.332-1.713-1.918.746-.667,1.713,1.919Zm1.492-1.332-1.713-1.918.746-.666,1.713,1.918Zm1.492-1.332-1.713-1.918.746-.667,1.713,1.919Zm1.492-1.332-1.713-1.918.746-.666,1.713,1.918Zm1.492-1.332-1.713-1.918.746-.666,1.713,1.918Zm1.491-1.332-1.712-1.918.746-.666,1.712,1.918Zm1.492-1.332-1.712-1.918.746-.666,1.712,1.918Zm1.492-1.332-1.712-1.918.746-.666,1.712,1.918Zm1.492-1.332L51.7,426.115l.746-.666,1.712,1.918Zm3.509-6.58,1.713,1.918-.746.666-1.713-1.918Zm-1.492,1.332,1.713,1.918-.746.666-1.712-1.918Zm.221,3.25-.746.666-1.712-1.918.746-.666Zm-1.012-7.14,1.713,1.918-.746.666-1.713-1.918Zm-1.492,1.332,1.713,1.918-.746.666L52.4,420.893Zm-1.492,1.332,1.713,1.918-.746.666-1.713-1.918Zm-1.492,1.332,1.713,1.918-.746.666-1.713-1.918Zm-1.492,1.332,1.713,1.918-.746.666-1.713-1.918Zm-1.492,1.332,1.713,1.918-.746.666-1.713-1.918Zm-1.492,1.332L47.4,428.8l-.746.666-1.712-1.918Zm-1.491,1.332,1.712,1.918-.746.666-1.712-1.918ZM42.7,429.551l1.712,1.918-.746.666-1.712-1.918Zm-1.492,1.332,1.712,1.918-.746.666-1.712-1.918Zm-1.492,1.332,1.712,1.918-.746.666-1.712-1.918Zm-1.492,1.332,1.712,1.918-.745.666-1.713-1.918Zm-1.492,1.332,1.713,1.918-.746.666-1.713-1.918Zm-1.492,1.332,1.713,1.918-.746.666L34.5,436.877Zm-1.492,1.332,1.713,1.918-.746.666-1.713-1.918Zm-1.492,1.332,1.713,1.918-.746.666-1.713-1.918Zm.221,3.25-.746.666-1.713-1.918.746-.666Z" transform="translate(-26.809 -408.983)"/><rect class="c" width="2.305" height="45.313" transform="translate(1.535 31.898) rotate(-131.759)"/></g></g><g transform="translate(0 2.923)"><g transform="translate(36.41 33.499)"><path class="b" d="M99.614,437.394l-23.481-26.3-7.561,6.751,23.48,26.3Zm-1.583-.271-1.918,1.712-.666-.746,1.918-1.712ZM96.7,435.631l-1.918,1.712-.666-.746,1.918-1.712Zm-1.332-1.492-1.918,1.713-.666-.746,1.918-1.713Zm-1.332-1.492-1.918,1.713-.666-.746,1.918-1.713ZM92.7,431.155l-1.918,1.713-.666-.746,1.918-1.713Zm-1.332-1.492-1.918,1.713-.666-.746,1.918-1.713Zm-1.332-1.492-1.918,1.713-.666-.746,1.918-1.713Zm-1.332-1.492-1.918,1.713-.666-.746,1.918-1.713Zm-1.332-1.491L85.457,426.9l-.666-.746,1.918-1.712ZM86.043,423.7l-1.918,1.712-.666-.746,1.918-1.712ZM84.711,422.2l-1.918,1.712-.666-.746,1.918-1.712Zm-1.332-1.492-1.918,1.712-.666-.746,1.918-1.712Zm-1.332-1.492-1.918,1.712-.666-.746,1.918-1.712Zm-1.332-1.492L78.8,419.44l-.666-.745,1.918-1.713Zm-6.58-3.509,1.918-1.713.666.746L74.8,414.965Zm1.332,1.492L77.385,414l.666.746-1.918,1.713Zm3.25-.221.666.746-1.918,1.713L76.8,417.2Zm-7.14,1.012L73.5,414.79l.666.746-1.919,1.712Zm1.332,1.492,1.919-1.712.666.746-1.919,1.712Zm1.332,1.492,1.919-1.713.666.746-1.919,1.713Zm1.332,1.492,1.919-1.713.666.746-1.919,1.713ZM76.9,422.47l1.919-1.713.666.746-1.919,1.713Zm1.332,1.492,1.919-1.713.666.746L78.9,424.708Zm1.332,1.492,1.918-1.713.666.746L80.235,426.2Zm1.332,1.492,1.918-1.713.666.746-1.918,1.713Zm1.332,1.492,1.918-1.713.666.746L82.9,429.184Zm1.332,1.491,1.918-1.712.666.746-1.918,1.712Zm1.332,1.492,1.918-1.712.666.746-1.918,1.712Zm1.332,1.492,1.918-1.712.666.746-1.918,1.712Zm1.332,1.492,1.918-1.712.666.746-1.918,1.712Zm1.332,1.492,1.918-1.712.666.745-1.918,1.713Zm1.332,1.492,1.918-1.713.666.746-1.918,1.713Zm1.332,1.492,1.918-1.713.666.746-1.918,1.713Zm3.25-.221.666.746-1.918,1.713-.666-.746Z" transform="translate(-61.665 -408.995)"/><rect class="c" width="2.305" height="45.313" transform="translate(31.898 33.801) rotate(138.241)"/></g><path class="b" d="M25.255,382.434l23.481,26.3,7.561-6.751-23.481-26.3Zm1.583.271,1.918-1.713.666.746L27.5,383.451ZM28.17,384.2l1.918-1.713.666.746-1.918,1.713Zm1.332,1.492,1.918-1.713.666.746-1.918,1.713Zm1.332,1.492,1.918-1.713.666.746L31.5,387.927Zm1.332,1.492,1.918-1.713.666.746-1.918,1.713Zm1.332,1.492,1.918-1.713.666.746-1.918,1.713Zm1.332,1.492,1.918-1.713.666.746L35.5,392.4Zm1.332,1.491,1.918-1.712.666.746-1.918,1.712Zm1.332,1.492,1.918-1.712.666.746-1.918,1.712Zm1.332,1.492,1.918-1.712.666.746-1.918,1.712Zm1.332,1.492,1.918-1.712.666.746-1.918,1.712Zm1.332,1.492,1.918-1.712.666.745-1.918,1.713Zm1.332,1.492,1.918-1.713.666.746-1.918,1.713Zm1.332,1.492,1.918-1.713.666.746-1.918,1.713Zm6.58,3.509-1.918,1.713-.666-.746,1.918-1.713ZM49.4,404.117l-1.918,1.713-.666-.746,1.918-1.713Zm-3.25.221-.666-.746,1.918-1.713.666.746Zm7.139-1.012-1.918,1.712-.666-.746,1.918-1.712Zm-1.332-1.492-1.918,1.712-.666-.746,1.918-1.712Zm-1.332-1.492-1.918,1.712-.666-.746,1.918-1.712Zm-1.332-1.492-1.918,1.712-.666-.745,1.918-1.713Zm-1.332-1.492-1.918,1.713-.666-.746,1.918-1.713Zm-1.332-1.492-1.918,1.713-.666-.746,1.918-1.713ZM45.3,394.374l-1.918,1.713-.666-.746,1.918-1.713Zm-1.332-1.492L42.049,394.6l-.666-.746,1.918-1.713Zm-1.332-1.492L40.717,393.1l-.666-.746,1.918-1.713ZM41.3,389.9l-1.918,1.713-.666-.746,1.919-1.713Zm-1.331-1.491-1.919,1.712-.666-.746,1.919-1.712Zm-1.333-1.492-1.918,1.712-.666-.746,1.919-1.712Zm-1.331-1.492-1.919,1.712-.666-.746,1.919-1.712Zm-1.333-1.492-1.918,1.712-.666-.746,1.919-1.712Zm-1.331-1.492-1.919,1.712-.666-.746,1.919-1.712Zm-1.332-1.492-1.919,1.712-.666-.745,1.919-1.713Zm-3.251.221-.666-.746,1.919-1.713.666.746Z" transform="translate(-25.255 -375.496)"/><rect class="c" width="2.305" height="45.313" transform="translate(6.051 1.535) rotate(-41.759)"/></g></g></svg>