<svg xmlns="http://www.w3.org/2000/svg" width="111.059" height="12.891" viewBox="0 0 111.059 12.891"><defs><style>.a{fill:#fff;opacity:0.5;}</style></defs><path class="a" d="M154.121,456.285c-.009.889-1.1,1.606-2.441,1.606H97.88c-1.344-.08-2.377-.875-2.2-1.811.158-.818,1.293-1.4,2.539-1.4h8.607c1.364,0,2.412-.74,2.437-1.643.025-.877,1.106-1.582,2.436-1.582h6.358c1.275,0,2.436-.608,2.563-1.447.146-.965-1-1.779-2.424-1.779H91.335c-1.275,0-2.436-.607-2.563-1.447-.146-.966.995-1.78,2.424-1.78h74.31c1.364,0,2.412.74,2.437,1.643.024.877,1.106,1.583,2.436,1.583h26.864c1.275,0,2.436.607,2.563,1.447.146.965-.995,1.78-2.424,1.78H165.3c-1.364,0-2.412.74-2.437,1.643-.024.877-1.106,1.582-2.436,1.582h-3.868c-1.342,0-2.433.718-2.441,1.606Z" transform="translate(-88.759 -445)"/></svg>