<svg xmlns="http://www.w3.org/2000/svg" width="33" height="45.604" viewBox="0 0 33 45.604"><defs><style>.a{fill:#1c70f3;}.b{fill:#3e94ff;}.c{fill:#ff801e;}.d{fill:#eb6129;}.e{fill:#ff9a32;}</style></defs><g transform="translate(-546.479 -360.013)"><path class="a" d="M670.479,612.865s5.273-.906,8.209-2.64c4.1-2.421,2.077-5.368,2.064-5.221-.06.693,5.128.721,3.917,1.893-2.833,2.743-9.2,5.518-14.191,5.968" transform="translate(-108.321 -214.008)"/><path class="a" d="M643.544,638.912s.044,2.726-5.362,6.32a19.244,19.244,0,0,1-5.937,2.534c-.445.117-.412.247-.358.291s.559.049.468.075c-.573.161-1.615.29-2.316.424-.179.034-.357.147.322.1a21.627,21.627,0,0,1,2.721-.176,26.5,26.5,0,0,1-5.391.551c-.714.015-.948.029-.924.112,0,0,7.356.474,13.187-1.934,4.165-1.72,6.163-3.869,6.769-6.51,0,0-1.26-2.327-3.177-1.786" transform="translate(-70.133 -243.562)"/><path class="a" d="M669.613,671.585a35.384,35.384,0,0,0,4.974-1.767,12.609,12.609,0,0,0,4.584-3.433,22.7,22.7,0,0,1-3.251,2.443,27.242,27.242,0,0,1-6.307,2.757" transform="translate(-107.564 -267.63)"/><path class="b" d="M622.764,593.841a19.807,19.807,0,0,0-8,1.561c-4.695,2.347-3.3,5.938-3.27,5.778.129-.76.735-3.35,2.176-4.531,1.844-1.511,4.984-2.586,9.095-2.808" transform="translate(-56.605 -204.26)"/><path class="a" d="M643.576,562.971s2.054,4.6-20.428,8.9c0,0-.537,2.869-.239,3.453s1.735.947,3.966.8a28.7,28.7,0,0,0,7.869-1.68c6.127-1.928,8.732-4.475,9.393-5.07,1.748-1.573,1.2-6.6-.562-6.4" transform="translate(-66.687 -177.291)"/><path class="b" d="M629.592,609.488s4.554-2.712,3.716-6.751c-.589-2.836-3.653-4.63-6.987-4.974a28.367,28.367,0,0,0-8.257.312,12.242,12.242,0,0,0-4.956,2.072c-.456.392-.856.368-1.131.744a3.769,3.769,0,0,0-.376,3.958,4,4,0,0,0,2.477,1.425s-1.208-.4-.579-1.165c1.235-1.511,4.952-2.411,7.913-2.612,5.01-.341,10.363.989,10.239,3.809a4.4,4.4,0,0,1-2.057,3.185" transform="translate(-56.542 -207.544)"/><g transform="translate(550.606 381.419)"><path class="b" d="M604.5,541.21s3.914-2.35,3.452-6.22c-.415-3.479-3.873-4.986-7.855-5.407a32.414,32.414,0,0,0-9.736.179,22.349,22.349,0,0,0-6.8,2.091,9.21,9.21,0,0,0-3.981,3.718c-1.679,4.2,1.765,5.532,1.765,5.532s-1.729-1.7,1.886-3.727c4.786-2.682,15.775-3.574,21.085-1.3,1.454.623,2.082,1.373,2.052,2.272-.052,1.536-1.866,2.861-1.866,2.861" transform="translate(-579.114 -529.302)"/></g><path class="c" d="M605.522,419.17c2.844.427,3.376-2.06,3.562-4.192.324-3.719,2.511-9.244,8.263-9.346,8.291-.147,7.782,11.5,7.782,11.5s1.655-8.619-4.1-12.512c-5.245-3.544-15.681-1.589-17.221,10.5-.169,1.323.061,3.794,1.718,4.043" transform="translate(-50.036 -37.586)"/><path class="d" d="M719.437,426.507a12.024,12.024,0,0,1,1.273,8.569s.456-11.288-7.544-11.454c0,0,4.33-.319,6.271,2.885" transform="translate(-145.61 -55.558)"/><path class="e" d="M550.867,499.7h-2.787a1.6,1.6,0,0,1,0-3.2h2.787a1.6,1.6,0,0,1,0,3.2" transform="translate(0 -119.224)"/><path class="c" d="M552.74,504.082c0,.019,0,.037,0,.056a1.568,1.568,0,0,1-1.568,1.568h-2.727a1.568,1.568,0,0,1-1.439-.947,1.566,1.566,0,0,0,1.565,1.511H551.3a1.567,1.567,0,0,0,1.439-2.188" transform="translate(-0.463 -125.852)"/><path class="e" d="M688.019,364.408a1.2,1.2,0,0,1-1.2-1.2v-2a1.2,1.2,0,0,1,2.392,0v2a1.2,1.2,0,0,1-1.2,1.2" transform="translate(-122.598)"/><path class="c" d="M688.111,368.965a1.2,1.2,0,0,1-1.2-1.2v-2c0-.025.006-.049.007-.074a1.189,1.189,0,0,0-.1.478v2a1.193,1.193,0,0,0,2.385.074,1.2,1.2,0,0,1-1.1.718" transform="translate(-122.597 -4.961)"/><path class="e" d="M585.866,402.644a1.534,1.534,0,0,1-1.238-.417l-1.8-1.724a1.538,1.538,0,0,1,2.127-2.221l1.8,1.724a1.538,1.538,0,0,1-.889,2.639" transform="translate(-31.338 -33.057)"/><path class="c" d="M586.689,410.541a1.538,1.538,0,0,1-2.174.047l-1.8-1.724a1.528,1.528,0,0,1-.386-.6,1.534,1.534,0,0,0,.463,1.28l1.8,1.724a1.537,1.537,0,0,0,2.513-1.62,1.529,1.529,0,0,1-.416.894" transform="translate(-31.309 -42.149)"/><path class="e" d="M767.737,413.209a1.025,1.025,0,0,1-.676-1.8l1.22-1.069a1.025,1.025,0,0,1,1.351,1.542l-1.22,1.069a1.021,1.021,0,0,1-.675.254" transform="translate(-192.385 -43.745)"/><path class="c" d="M767.538,411.637l1.22-1.069a1.025,1.025,0,0,1,1.279-.057c-.018-.025-.036-.049-.057-.072a1.025,1.025,0,0,0-1.447-.1l-1.22,1.069a1.025,1.025,0,0,0,.073,1.6,1.025,1.025,0,0,1,.151-1.376" transform="translate(-192.606 -43.745)"/><path class="b" d="M668.43,445.689a1.144,1.144,0,0,0-.659,1.562,1.6,1.6,0,0,0,1.269.913,3.028,3.028,0,0,0,2.558-.689,2.773,2.773,0,0,0,.971-1.926,1.707,1.707,0,0,0-1.36-1.853,2.537,2.537,0,0,0-.628-1.415,2.752,2.752,0,0,0-2.877-.89,2.982,2.982,0,0,0-2.308,2.162,3.23,3.23,0,0,0-2.8,2.348,2.634,2.634,0,0,0,1.619,3.014,3.861,3.861,0,0,0,4.263,2.351,6.532,6.532,0,0,0,2.068-.567,4.158,4.158,0,0,0,1.116-.823c2.417-2.456,2.48-2.347,4.144-2.141,0,0-1.433-1.546-3.7.029s-4.257,1.587-5.177.951a2.206,2.206,0,0,1-.681-3.065c.8-1.411,2.892-1.324,3.335-.284.3.707-.022,1.39-.721,1.362a.56.56,0,0,1-.584-.736.741.741,0,0,1,.146-.3" transform="translate(-101.391 -71.026)"/><path class="a" d="M697.566,488.4c.92.636,2.87.6,5.137-.971s3.727-.011,3.727-.011c-1.583-.348-2.164.235-3.762,1.7a5.249,5.249,0,0,1-2.907.391,3.473,3.473,0,0,1-2.2-1.109" transform="translate(-131.983 -110.687)"/><path class="a" d="M667.757,458.982a3.574,3.574,0,0,0-.151,1.528,1.546,1.546,0,0,0-2.357.152,2.9,2.9,0,0,1,2.508-1.679" transform="translate(-103.752 -86.455)"/><path class="a" d="M706.405,477.426c.436.015.906-.272,1.028-1.046a.9.9,0,0,1-.468.6c-.42.164-.912-.006-.955-.419a.864.864,0,0,1,.146-.54,1.088,1.088,0,0,0-.359.528.638.638,0,0,0,.608.882" transform="translate(-139.135 -101.335)"/><path class="a" d="M675.783,500.977a.887.887,0,0,0,.476-.059,3.542,3.542,0,0,0,1.013,1.854,3.457,3.457,0,0,1-1.49-1.795" transform="translate(-112.954 -123.088)"/><path class="a" d="M710.466,443.71a1.664,1.664,0,0,1,.621,0,2.488,2.488,0,0,0-.583-1.354,2.582,2.582,0,0,0-2.307-1.015,2.553,2.553,0,0,1,1.444.5,2.18,2.18,0,0,1,.825,1.868" transform="translate(-141.27 -71.04)"/></g></svg>