<svg xmlns="http://www.w3.org/2000/svg" width="20" height="20.001" viewBox="0 0 20 20.001"><defs><style>.a{opacity:0;}.b{fill:#eaeaea;opacity:0.224;}.c{fill:#c9c9c9;opacity:0.882;}.d{fill:none;}.e{fill:#666;}.f,.g{stroke:none;}.g{fill:#666;}</style></defs><g class="a"><rect class="b" width="19.999" height="19.999" rx="7"/><path class="c" d="M4.374,20a4.36,4.36,0,0,1-3.062-1.25H1.25v-.063A4.361,4.361,0,0,1,0,15.626V4.376A4.361,4.361,0,0,1,1.25,1.314V1.251h.063A4.36,4.36,0,0,1,4.374,0h11.25a4.361,4.361,0,0,1,3.062,1.25h.063v.063A4.361,4.361,0,0,1,20,4.376V9.688h0v.625h0v5.313a4.361,4.361,0,0,1-1.25,3.062v.063h-.063A4.361,4.361,0,0,1,15.624,20Zm11.25-.625a3.729,3.729,0,0,0,2.071-.625H14.063v.625Zm-2.187,0v-.625H10.313v.625Zm-3.75,0v-.625H6.563v.625Zm-5.313,0H5.938v-.625H2.3A3.728,3.728,0,0,0,4.374,19.376Zm9.688-1.623v.373h3.62l-1.721-1.721A8.782,8.782,0,0,1,14.063,17.752Zm-.811.373h.185v-.076C13.376,18.076,13.315,18.1,13.252,18.126Zm-6.69,0h.184c-.062-.025-.123-.05-.184-.076Zm-4.246,0H5.938v-.373a8.739,8.739,0,0,1-1.9-1.348Zm8-2.509v2.5a8.077,8.077,0,0,0,3.125-.753V14.454A5.6,5.6,0,0,1,10.313,15.617Zm-3.75,1.75a8.083,8.083,0,0,0,3.125.752v-2.5a5.6,5.6,0,0,1-3.125-1.163ZM.625,15.626A3.728,3.728,0,0,0,1.25,17.7V10.313H.625ZM18.75,17.7a3.728,3.728,0,0,0,.625-2.071V10.313H18.75ZM16.4,15.962l1.721,1.721V13.254A8.746,8.746,0,0,1,16.4,15.962ZM1.875,17.683l1.72-1.72a8.755,8.755,0,0,1-1.72-2.707Zm2.6-1.72a8.123,8.123,0,0,0,1.458,1.079V14.5Zm9.583,1.078a8.181,8.181,0,0,0,1.457-1.078l-1.457-1.457Zm.129-3.29,1.77,1.77a8.058,8.058,0,0,0,2.157-5.208h-2.5A5.6,5.6,0,0,1,14.192,13.751ZM4.038,15.52l1.77-1.77a5.6,5.6,0,0,1-1.424-3.438H1.88A8.059,8.059,0,0,0,4.038,15.52Zm6.275-1.783v1.253a4.979,4.979,0,0,0,2.993-1.243l-.884-.884A3.732,3.732,0,0,1,10.313,13.738Zm-3.619.011a4.981,4.981,0,0,0,2.994,1.243V13.738a3.736,3.736,0,0,1-2.11-.874Zm3.619-.638a3.114,3.114,0,0,0,1.664-.691l-1.664-1.664Zm-2.29-.691a3.112,3.112,0,0,0,1.665.691V10.754Zm4.841,0,.574.573V11.5A3.775,3.775,0,0,1,12.864,12.422ZM6.563,13l.573-.573a3.756,3.756,0,0,1-.573-.92Zm-.625-.083v-2.6H5.01A4.965,4.965,0,0,0,5.938,12.913Zm8.125,0a4.974,4.974,0,0,0,.927-2.6h-.927Zm-1.645-.935a3.112,3.112,0,0,0,.691-1.664H10.755Zm-4.837,0,1.664-1.664H6.89A3.11,3.11,0,0,0,7.581,11.977ZM18.75,9.688h.625V4.376a3.729,3.729,0,0,0-.625-2.071ZM14.192,6.25a5.6,5.6,0,0,1,1.424,3.437h2.5A8.062,8.062,0,0,0,15.962,4.48Zm-.129,3.437h.927a4.971,4.971,0,0,0-.927-2.6Zm-3.309,0h2.355a3.11,3.11,0,0,0-.691-1.664Zm-3.864,0H9.246L7.581,8.024A3.106,3.106,0,0,0,6.89,9.688Zm-1.88,0h.928v-2.6A4.966,4.966,0,0,0,5.01,9.688Zm-3.129,0h2.5A5.6,5.6,0,0,1,5.808,6.25l-1.77-1.77A8.06,8.06,0,0,0,1.88,9.688Zm-.631,0V2.305A3.729,3.729,0,0,0,.625,4.376V9.688ZM8.023,7.582,9.688,9.246V6.892A3.1,3.1,0,0,0,8.023,7.582Zm2.289,1.663,1.663-1.663a3.107,3.107,0,0,0-1.663-.69Zm2.55-1.666a3.753,3.753,0,0,1,.574.92V7Zm-6.3.92a3.735,3.735,0,0,1,.574-.92L6.563,7Zm3.75-2.236a3.734,3.734,0,0,1,2.108.874l.884-.884a4.977,4.977,0,0,0-2.992-1.242ZM6.694,6.253l.884.884a3.736,3.736,0,0,1,2.109-.874V5.011A4.975,4.975,0,0,0,6.694,6.253ZM16.4,4.039a8.748,8.748,0,0,1,1.721,2.71V2.317ZM1.875,6.747A8.758,8.758,0,0,1,3.6,4.039L1.875,2.318Zm8.438-2.362a5.6,5.6,0,0,1,3.125,1.163V2.634a8.077,8.077,0,0,0-3.125-.753Zm-3.75-1.75V5.548A5.6,5.6,0,0,1,9.688,4.385v-2.5A8.074,8.074,0,0,0,6.563,2.634ZM4.48,4.039,5.938,5.5V2.96A8.147,8.147,0,0,0,4.48,4.039ZM14.063,5.5l1.456-1.457a8.148,8.148,0,0,0-1.456-1.077ZM4.038,3.6a8.761,8.761,0,0,1,1.9-1.348V1.876H2.318ZM14.063,2.249a8.776,8.776,0,0,1,1.9,1.347l1.72-1.72H14.063Zm-.626-.3V1.876h-.183Zm-6.875,0,.183-.076H6.563Zm7.5-.7H17.7A3.729,3.729,0,0,0,15.624.626H14.063Zm-3.75,0h3.125V.626H10.313Zm-3.75,0H9.688V.626H6.563Zm-.625,0V.626H4.374a3.728,3.728,0,0,0-2.07.625Z"/></g><g transform="translate(-1 -1)"><g class="d" transform="translate(1.272 1.72)"><path class="f" d="M7.862,1.179a2.591,2.591,0,0,1,2.973,0l6.3,4.442a2.41,2.41,0,0,1,.917,2.738l-2.406,7.192a2.521,2.521,0,0,1-2.4,1.694H5.459a2.521,2.521,0,0,1-2.4-1.694L.649,8.359a2.41,2.41,0,0,1,.917-2.738Z"/><path class="g" d="M 9.348700523376465 2.209983825683594 C 9.122270584106445 2.209983825683594 8.907190322875977 2.277283668518066 8.726720809936523 2.404614448547363 L 2.430530548095703 6.846834182739258 C 2.088911056518555 7.087854385375977 1.944551467895508 7.504323959350586 2.071310043334961 7.883164405822754 L 4.477660179138184 15.07505416870117 C 4.611790657043457 15.47594451904297 5.006110191345215 15.74528408050537 5.458870887756348 15.74528408050537 L 13.2385311126709 15.74528408050537 C 13.6912899017334 15.74528408050537 14.08561038970947 15.47594451904297 14.21973991394043 15.07506370544434 L 16.62609100341797 7.883153915405273 C 16.75284957885742 7.504314422607422 16.60848999023438 7.087843894958496 16.26687049865723 6.846814155578613 L 9.970680236816406 2.404614448547363 C 9.790210723876953 2.277283668518066 9.575130462646484 2.209983825683594 9.348700523376465 2.209983825683594 M 9.348700523376465 0.7099895477294922 C 9.870492935180664 0.7099895477294922 10.39228534698486 0.8663139343261719 10.83542060852051 1.178964614868164 L 17.13161087036133 5.621164321899414 C 18.01608085632324 6.245194435119629 18.38615989685059 7.350193977355957 18.04858016967773 8.359113693237305 L 15.64223098754883 15.5510139465332 C 15.30423069000244 16.56119346618652 14.33370018005371 17.24528503417969 13.2385311126709 17.24528503417969 L 5.458870887756348 17.24528503417969 C 4.363700866699219 17.24528503417969 3.393170356750488 16.56119346618652 3.055170059204102 15.5510139465332 L 0.6488208770751953 8.359113693237305 C 0.3112411499023438 7.350193977355957 0.6813201904296875 6.245194435119629 1.565790176391602 5.621173858642578 L 7.861980438232422 1.178964614868164 C 8.305115699768066 0.8663139343261719 8.826908111572266 0.7099895477294922 9.348700523376465 0.7099895477294922 Z"/></g><path class="e" d="M5.253,0l5.253,4.013L8.012,9.519l-6.005.987L0,4.013Z" transform="translate(5.367 5.445)"/></g></svg>