<svg xmlns="http://www.w3.org/2000/svg" width="24.001" height="24" viewBox="0 0 24.001 24"><defs><style>.a{opacity:0;}.b,.e{fill:none;}.b{stroke:#999;}.c{fill:#5792f6;}.d{stroke:none;}</style></defs><g class="a"><g transform="translate(-106.999 -748)"><g class="b" transform="translate(109 750)"><rect class="d" width="20" height="20"/><rect class="e" x="0.5" y="0.5" width="19" height="19"/></g><g class="b" transform="translate(107 748)"><rect class="d" width="24" height="24" rx="5"/><rect class="e" x="0.5" y="0.5" width="23" height="23" rx="4.5"/></g><g class="b" transform="translate(109 750)"><circle class="d" cx="10" cy="10" r="10"/><circle class="e" cx="10" cy="10" r="9.5"/></g><line class="b" y2="24" transform="translate(118.999 748)"/><line class="b" y2="24" transform="translate(118.999 748)"/><line class="b" y2="24" transform="translate(113.999 748)"/><line class="b" y2="24" transform="translate(123.999 748)"/><line class="b" y2="24" transform="translate(130.999 760) rotate(90)"/><line class="b" x1="19" y2="19" transform="translate(109.5 750.5)"/><line class="b" x1="19" y2="19" transform="translate(128.5 750.5) rotate(90)"/><g class="b" transform="translate(112 753)"><circle class="d" cx="7" cy="7" r="7"/><circle class="e" cx="7" cy="7" r="6.5"/></g><g class="b" transform="translate(114 755)"><circle class="d" cx="5" cy="5" r="5"/><circle class="e" cx="5" cy="5" r="4.5"/></g></g></g><path class="c" d="M-1611.249-6886.749v-.785a8,8,0,0,1-7.216-7.216h-.785a.749.749,0,0,1-.749-.75.748.748,0,0,1,.749-.749h.785a8,8,0,0,1,7.216-7.216v-.785a.751.751,0,0,1,.75-.75.751.751,0,0,1,.75.75v.785a8,8,0,0,1,7.214,7.216h.785a.749.749,0,0,1,.75.749.751.751,0,0,1-.75.75h-.785a8,8,0,0,1-7.214,7.215v.786a.749.749,0,0,1-.75.749A.749.749,0,0,1-1611.249-6886.749Zm0-2.294v-.708a.749.749,0,0,1,.75-.749.749.749,0,0,1,.75.749v.707a6.511,6.511,0,0,0,5.705-5.707h-.706a.751.751,0,0,1-.75-.75.749.749,0,0,1,.75-.749h.706a6.511,6.511,0,0,0-5.705-5.707v.705a.751.751,0,0,1-.75.75.751.751,0,0,1-.75-.75v-.706a6.513,6.513,0,0,0-5.709,5.707h.709a.748.748,0,0,1,.749.749.749.749,0,0,1-.749.75h-.709A6.512,6.512,0,0,0-1611.249-6889.043Zm-1-6.456a1.75,1.75,0,0,1,1.75-1.75,1.749,1.749,0,0,1,1.749,1.75,1.749,1.749,0,0,1-1.749,1.749A1.749,1.749,0,0,1-1612.249-6895.5Z" transform="translate(1622.5 6907.5)"/></svg>