<svg xmlns="http://www.w3.org/2000/svg" width="24.001" height="24" viewBox="0 0 24.001 24"><defs><style>.a{opacity:0;}.b{opacity:0.498;}.c,.f{fill:none;}.c{stroke:#707070;}.d{fill:#fff;}.e{stroke:none;}</style></defs><g class="a"><g class="b" transform="translate(-106.999 -748)"><g class="c" transform="translate(109 750)"><rect class="e" width="20" height="20"/><rect class="f" x="0.5" y="0.5" width="19" height="19"/></g><g class="c" transform="translate(107 748)"><rect class="e" width="24" height="24" rx="5"/><rect class="f" x="0.5" y="0.5" width="23" height="23" rx="4.5"/></g><g class="c" transform="translate(109 750)"><circle class="e" cx="10" cy="10" r="10"/><circle class="f" cx="10" cy="10" r="9.5"/></g><line class="c" y2="24" transform="translate(118.999 748)"/><line class="c" y2="24" transform="translate(118.999 748)"/><line class="c" y2="24" transform="translate(113.999 748)"/><line class="c" y2="24" transform="translate(123.999 748)"/><line class="c" y2="24" transform="translate(130.999 760) rotate(90)"/><line class="c" x1="19" y2="19" transform="translate(109.5 750.5)"/><line class="c" x1="19" y2="19" transform="translate(128.5 750.5) rotate(90)"/><g class="c" transform="translate(112 753)"><circle class="e" cx="7" cy="7" r="7"/><circle class="f" cx="7" cy="7" r="6.5"/></g><g class="c" transform="translate(114 755)"><circle class="e" cx="5" cy="5" r="5"/><circle class="f" cx="5" cy="5" r="4.5"/></g></g></g><path class="d" d="M-6385.6,1126a3,3,0,0,1-2.211-5.027l3.11-3.393a6.651,6.651,0,0,1-2.163-4.915A6.666,6.666,0,0,1-6380.2,1106a6.666,6.666,0,0,1,6.666,6.666,6.651,6.651,0,0,1-2.162,4.915l3.109,3.393A3,3,0,0,1-6374.8,1126Z" transform="translate(6392 -1104)"/></svg>