<svg xmlns="http://www.w3.org/2000/svg" width="24.001" height="24" viewBox="0 0 24.001 24"><defs><style>.a{opacity:0;}.b{opacity:0.498;}.c,.f{fill:none;}.c{stroke:#707070;}.d{fill:#bfc5cc;}.e{stroke:none;}</style></defs><g class="a"><g class="b" transform="translate(-106.999 -748)"><g class="c" transform="translate(109 750)"><rect class="e" width="20" height="20"/><rect class="f" x="0.5" y="0.5" width="19" height="19"/></g><g class="c" transform="translate(107 748)"><rect class="e" width="24" height="24" rx="5"/><rect class="f" x="0.5" y="0.5" width="23" height="23" rx="4.5"/></g><g class="c" transform="translate(109 750)"><circle class="e" cx="10" cy="10" r="10"/><circle class="f" cx="10" cy="10" r="9.5"/></g><line class="c" y2="24" transform="translate(118.999 748)"/><line class="c" y2="24" transform="translate(118.999 748)"/><line class="c" y2="24" transform="translate(113.999 748)"/><line class="c" y2="24" transform="translate(123.999 748)"/><line class="c" y2="24" transform="translate(130.999 760) rotate(90)"/><line class="c" x1="19" y2="19" transform="translate(109.5 750.5)"/><line class="c" x1="19" y2="19" transform="translate(128.5 750.5) rotate(90)"/><g class="c" transform="translate(112 753)"><circle class="e" cx="7" cy="7" r="7"/><circle class="f" cx="7" cy="7" r="6.5"/></g><g class="c" transform="translate(114 755)"><circle class="e" cx="5" cy="5" r="5"/><circle class="f" cx="5" cy="5" r="4.5"/></g></g></g><path class="d" d="M10.967,19.966H4.394a2,2,0,0,1-2-2v-7.6A1.984,1.984,0,0,1,.985,8.838,1.958,1.958,0,0,1,1.7,6.881L9.716.456a2,2,0,0,1,2.5,0l8.021,6.425a1.958,1.958,0,0,1,.711,1.956,1.984,1.984,0,0,1-1.41,1.532v7.6a2,2,0,0,1-2,2H15.254V15.372a1,1,0,0,0-1-1H11.967a1,1,0,0,0-1,1v4.593Z" transform="translate(1.058 1.982)"/></svg>