<svg xmlns="http://www.w3.org/2000/svg" xmlns:xlink="http://www.w3.org/1999/xlink" width="43.997" height="44" viewBox="0 0 43.997 44"><defs><style>.a{opacity:0;}.b{fill:#c9c9c9;opacity:0.882;}.c{fill:url(#a);}.d,.f{mix-blend-mode:multiply;isolation:isolate;}.e{fill:url(#b);}.f{opacity:0.901;fill:url(#e);}</style><linearGradient id="a" x1="0.5" x2="0.5" y2="1" gradientUnits="objectBoundingBox"><stop offset="0" stop-color="#fecb20"/><stop offset="1" stop-color="#ff7400"/></linearGradient><linearGradient id="b" y1="1.255" x2="-0.334" y2="-0.716" gradientUnits="objectBoundingBox"><stop offset="0" stop-color="#c7ecff"/><stop offset="1" stop-color="#2073fd"/></linearGradient><linearGradient id="e" x1="0.5" y1="0" x2="0.5" y2="1" xlink:href="#b"/></defs><g class="a"><path class="b" d="M9.623,44a9.591,9.591,0,0,1-6.735-2.751H2.75v-.138A9.594,9.594,0,0,1,0,34.375V9.627A9.594,9.594,0,0,1,2.75,2.891V2.752h.139A9.591,9.591,0,0,1,9.623,0h3.439V0h1.375V0h6.875V0h1.375V0H29.56V0h1.376V0h3.435a9.592,9.592,0,0,1,6.736,2.749h.139v.139A9.593,9.593,0,0,1,44,9.627V21.312h0v1.375h0V34.375a9.593,9.593,0,0,1-2.75,6.735v.139h-.139A9.593,9.593,0,0,1,34.371,44Zm24.748-1.376a8.2,8.2,0,0,0,4.556-1.375H30.936v1.375Zm-4.811,0V41.249H22.686v1.375Zm-8.249,0V41.249H14.437v1.375Zm-11.688,0h3.439V41.249H5.068A8.2,8.2,0,0,0,9.623,42.624Zm21.313-3.571v.822H38.9l-3.785-3.785A19.32,19.32,0,0,1,30.936,39.053Zm-1.783.822h.407v-.168C29.425,39.764,29.29,39.82,29.153,39.874Zm-14.716,0h.406c-.136-.054-.271-.11-.406-.168Zm-9.341,0h7.966v-.822a19.224,19.224,0,0,1-4.18-2.965Zm17.591-5.519v5.505a17.767,17.767,0,0,0,6.874-1.656V31.8A12.316,12.316,0,0,1,22.686,34.356Zm-8.25,3.851a17.781,17.781,0,0,0,6.875,1.654V34.356A12.316,12.316,0,0,1,14.437,31.8ZM1.375,34.375A8.2,8.2,0,0,0,2.75,38.931V22.687H1.375ZM41.246,38.93a8.2,8.2,0,0,0,1.375-4.555V22.687H41.246Zm-5.16-3.815L39.871,38.9V29.157A19.24,19.24,0,0,1,36.086,35.115ZM4.124,38.9l3.784-3.784A19.26,19.26,0,0,1,4.124,29.16Zm5.73-3.784a17.87,17.87,0,0,0,3.207,2.373V31.908Zm21.082,2.372a18,18,0,0,0,3.2-2.372l-3.2-3.206Zm.285-7.238,3.893,3.893a17.727,17.727,0,0,0,4.744-11.456H34.353A12.314,12.314,0,0,1,31.221,30.25ZM8.882,34.143l3.893-3.893a12.318,12.318,0,0,1-3.132-7.563H4.137A17.729,17.729,0,0,0,8.882,34.143Zm13.8-3.921v2.757a10.952,10.952,0,0,0,6.584-2.733L27.325,28.3A8.21,8.21,0,0,1,22.686,30.221Zm-7.961.024a10.957,10.957,0,0,0,6.587,2.733V30.221A8.218,8.218,0,0,1,16.67,28.3Zm7.961-1.4a6.85,6.85,0,0,0,3.66-1.52l-3.66-3.661Zm-5.037-1.52a6.845,6.845,0,0,0,3.663,1.52V23.658Zm10.649.006,1.262,1.261V25.3A8.3,8.3,0,0,1,28.3,27.327ZM14.437,28.588,15.7,27.327A8.262,8.262,0,0,1,14.437,25.3Zm-1.375-.182V22.687H11.02A10.921,10.921,0,0,0,13.062,28.406Zm17.874,0a10.943,10.943,0,0,0,2.039-5.718H30.936Zm-3.618-2.057a6.845,6.845,0,0,0,1.52-3.661H23.659Zm-10.642,0,3.662-3.661H15.157A6.841,6.841,0,0,0,16.676,26.348Zm24.57-5.036h1.375V9.627a8.2,8.2,0,0,0-1.375-4.555ZM31.219,13.75a12.315,12.315,0,0,1,3.133,7.562h5.505A17.735,17.735,0,0,0,35.114,9.856Zm-.283,7.562h2.039A10.935,10.935,0,0,0,30.936,15.6Zm-7.278,0h5.18a6.841,6.841,0,0,0-1.52-3.66Zm-8.5,0h5.182l-3.661-3.66A6.833,6.833,0,0,0,15.157,21.312Zm-4.137,0h2.042V15.594A10.925,10.925,0,0,0,11.02,21.312Zm-6.884,0H9.643a12.316,12.316,0,0,1,3.133-7.562L8.882,9.857A17.731,17.731,0,0,0,4.137,21.312Zm-1.387,0V5.071A8.2,8.2,0,0,0,1.375,9.627V21.312Zm14.9-4.633,3.661,3.66V15.161A6.83,6.83,0,0,0,17.65,16.679Zm5.036,3.659,3.659-3.659a6.836,6.836,0,0,0-3.659-1.518Zm5.61-3.665A8.256,8.256,0,0,1,29.56,18.7V15.41ZM14.437,18.7A8.217,8.217,0,0,1,15.7,16.673L14.437,15.41Zm8.25-4.919A8.215,8.215,0,0,1,27.324,15.7l1.945-1.945a10.948,10.948,0,0,0-6.583-2.732Zm-7.96-.023L16.671,15.7a8.219,8.219,0,0,1,4.64-1.922V11.023A10.945,10.945,0,0,0,14.726,13.755Zm21.359-4.87a19.245,19.245,0,0,1,3.787,5.961V5.1ZM4.124,14.843A19.266,19.266,0,0,1,7.909,8.885L4.124,5.1Zm18.562-5.2A12.315,12.315,0,0,1,29.56,12.2V5.795a17.767,17.767,0,0,0-6.874-1.656Zm-8.25-3.851V12.2a12.315,12.315,0,0,1,6.875-2.559V4.139A17.762,17.762,0,0,0,14.437,5.795ZM9.855,8.885l3.207,3.2V6.513A17.923,17.923,0,0,0,9.855,8.885Zm21.082,3.2,3.2-3.2a17.924,17.924,0,0,0-3.2-2.37ZM8.882,7.913a19.273,19.273,0,0,1,4.18-2.966v-.82H5.1ZM30.936,4.948a19.306,19.306,0,0,1,4.176,2.962L38.9,4.127h-7.96ZM29.56,4.294V4.127h-.4C29.292,4.181,29.426,4.237,29.56,4.294Zm-15.123,0c.134-.057.269-.113.4-.167h-.4Zm16.5-1.542h7.99a8.2,8.2,0,0,0-4.555-1.375H30.936Zm-8.25,0H29.56V1.377H22.686Zm-8.25,0h6.875V1.377H14.437Zm-1.375,0V1.377H9.623A8.2,8.2,0,0,0,5.068,2.752Z"/></g><g transform="translate(-34 -297)"><circle class="c" cx="5.676" cy="5.676" r="5.676" transform="translate(61.734 302.974)"/><g class="d" transform="translate(43 326.878)"><path class="e" d="M2.25,0A2.25,2.25,0,0,1,4.5,2.25c0,1.243-2.25,4.815-2.25,4.815S0,3.492,0,2.25A2.25,2.25,0,0,1,2.25,0Z" transform="translate(15.749 10.244) rotate(180)"/><path class="e" d="M2.25,0A2.25,2.25,0,0,1,4.5,2.25c0,1.243-2.25,4.815-2.25,4.815S0,3.492,0,2.25A2.25,2.25,0,0,1,2.25,0Z" transform="translate(4.5 7.065) rotate(180)"/><path class="e" d="M2.25,0A2.25,2.25,0,0,1,4.5,2.25c0,1.243-2.25,4.815-2.25,4.815S0,3.492,0,2.25A2.25,2.25,0,0,1,2.25,0Z" transform="translate(26.998 7.065) rotate(180)"/></g><path class="f" d="M7.484,27.35A7.485,7.485,0,0,1,4.163,13.157a9.985,9.985,0,0,1,19.806-.775h4.112a7.484,7.484,0,0,1,0,14.968Z" transform="translate(38.218 298.65)"/></g></svg>