<svg xmlns="http://www.w3.org/2000/svg" xmlns:xlink="http://www.w3.org/1999/xlink" width="53" height="38" viewBox="0 0 53 38"><defs><style>.a{fill:#fff;stroke:#5792f6;stroke-width:2px;}.b{fill:#5792f6;}.c{stroke:none;}.d{fill:none;}.e{filter:url(#a);}</style><filter id="a" x="0" y="0" width="53" height="38" filterUnits="userSpaceOnUse"><feOffset dy="3" input="SourceAlpha"/><feGaussianBlur stdDeviation="3" result="b"/><feFlood flood-color="#5792f6" flood-opacity="0.502"/><feComposite operator="in" in2="b"/><feComposite in="SourceGraphic"/></filter></defs><g transform="translate(9 6)"><g class="e" transform="matrix(1, 0, 0, 1, -9, -6)"><g class="a" transform="translate(9 6)"><rect class="c" width="35" height="20" rx="10"/><rect class="d" x="1" y="1" width="33" height="18" rx="9"/></g></g><path class="b" d="M5.484-1.068,5.5-6.108a.215.215,0,0,1,.24-.24H7.6a.328.328,0,0,0,.36-.36V-7.14A.328.328,0,0,0,7.6-7.5H1a.328.328,0,0,0-.36.36v.432a.328.328,0,0,0,.36.36H2.952a.215.215,0,0,1,.24.24L3.18-1.068a.328.328,0,0,0,.36.36H5.124A.323.323,0,0,0,5.484-1.068Zm4-5.652v5.2a.77.77,0,0,0,.816.8h5.6a.715.715,0,0,0,.792-.792v-5.2a.8.8,0,0,0-.78-.8h-5.64A.715.715,0,0,0,9.48-6.72Zm4.956.6v4.008a.215.215,0,0,1-.24.24H11.964a.215.215,0,0,1-.24-.24V-6.12a.215.215,0,0,1,.24-.24H14.2A.215.215,0,0,1,14.436-6.12ZM24.888-7.512H18.672c-.288,0-.4.192-.24.432l.1.156a.531.531,0,0,1,.084.288V-1.08a.328.328,0,0,0,.36.36h1.56a.328.328,0,0,0,.36-.36v-1.7a.215.215,0,0,1,.24-.24H24.9a.86.86,0,0,0,.78-.8V-6.72A.71.71,0,0,0,24.888-7.512ZM23.376-6.12v1.7a.215.215,0,0,1-.24.24h-2a.215.215,0,0,1-.24-.24v-1.7a.215.215,0,0,1,.24-.24h2A.215.215,0,0,1,23.376-6.12Z" transform="translate(4 14)"/></g></svg>