<svg xmlns="http://www.w3.org/2000/svg" width="24.001" height="24" viewBox="0 0 24.001 24"><defs><style>.a{opacity:0;}.b{opacity:0.498;}.c,.d,.e,.h{fill:none;}.c{stroke:#707070;}.d,.e{stroke:#666;stroke-width:1.5px;}.e{stroke-linecap:round;stroke-linejoin:round;}.f{fill:#666;}.g{stroke:none;}</style></defs><g class="a"><g class="b" transform="translate(-106.999 -748)"><g class="c" transform="translate(109 750)"><rect class="g" width="20" height="20"/><rect class="h" x="0.5" y="0.5" width="19" height="19"/></g><g class="c" transform="translate(107 748)"><rect class="g" width="24" height="24" rx="3"/><rect class="h" x="0.5" y="0.5" width="23" height="23" rx="2.5"/></g><g class="c" transform="translate(109 750)"><circle class="g" cx="10" cy="10" r="10"/><circle class="h" cx="10" cy="10" r="9.5"/></g><line class="c" y2="24" transform="translate(118.999 748)"/><line class="c" y2="24" transform="translate(118.999 748)"/><line class="c" y2="24" transform="translate(113.999 748)"/><line class="c" y2="24" transform="translate(123.999 748)"/><line class="c" y2="24" transform="translate(130.999 760) rotate(90)"/><line class="c" x1="19" y2="19" transform="translate(109.5 750.5)"/><line class="c" x1="19" y2="19" transform="translate(128.5 750.5) rotate(90)"/><g class="c" transform="translate(112 753)"><circle class="g" cx="7" cy="7" r="7"/><circle class="h" cx="7" cy="7" r="6.5"/></g><g class="c" transform="translate(114 755)"><circle class="g" cx="5" cy="5" r="5"/><circle class="h" cx="5" cy="5" r="4.5"/></g></g></g><path class="d" d="M-2581.5-2968.829h0l-6.5-2.927V-2977a4,4,0,0,1,4-4h5a4,4,0,0,1,4,4v5.243l-6.5,2.928Z" transform="translate(2593.5 2984.6)"/><path class="e" d="M18.5,11.005H7.5a3,3,0,0,1-3-3V1.942L13,5.771l8.5-3.829V8.006A3,3,0,0,1,18.5,11.005Z" transform="translate(-1 10.058)"/><rect class="f" width="6" height="1.5" rx="0.75" transform="translate(9 7)"/><rect class="f" width="6" height="1.5" rx="0.75" transform="translate(9 10)"/></svg>