<svg xmlns="http://www.w3.org/2000/svg" width="24.001" height="24" viewBox="0 0 24.001 24"><defs><style>.a{opacity:0;}.b,.e{fill:none;}.b{stroke:#707070;}.c{fill:#666;}.d{stroke:none;}</style></defs><g class="a" transform="translate(-106.999 -748)"><g class="b" transform="translate(109 750)"><rect class="d" width="20" height="20"/><rect class="e" x="0.5" y="0.5" width="19" height="19"/></g><g class="b" transform="translate(107 748)"><rect class="d" width="24" height="24" rx="5"/><rect class="e" x="0.5" y="0.5" width="23" height="23" rx="4.5"/></g><g class="b" transform="translate(109 750)"><circle class="d" cx="10" cy="10" r="10"/><circle class="e" cx="10" cy="10" r="9.5"/></g><line class="b" y2="24" transform="translate(118.999 748)"/><line class="b" y2="24" transform="translate(118.999 748)"/><line class="b" y2="24" transform="translate(113.999 748)"/><line class="b" y2="24" transform="translate(123.999 748)"/><line class="b" y2="24" transform="translate(130.999 760) rotate(90)"/><line class="b" x1="19" y2="19" transform="translate(109.5 750.5)"/><line class="b" x1="19" y2="19" transform="translate(128.5 750.5) rotate(90)"/><g class="b" transform="translate(112 753)"><circle class="d" cx="7" cy="7" r="7"/><circle class="e" cx="7" cy="7" r="6.5"/></g><g class="b" transform="translate(114 755)"><circle class="d" cx="5" cy="5" r="5"/><circle class="e" cx="5" cy="5" r="4.5"/></g></g><g transform="translate(-226 -159)"><path class="c" d="M-352.345-15012.438a23.117,23.117,0,0,1-6.075-4.687,11.289,11.289,0,0,1-2.569-7.293v-.057c0-.083,0-.162,0-.241s-.008-.155-.008-.23c0-.158,0-.321.011-.476v-3.045a.75.75,0,0,1,.751-.747,8.8,8.8,0,0,0,7.629-4.407.764.764,0,0,1,.653-.381.728.728,0,0,1,.649.385,8.818,8.818,0,0,0,7.64,4.4.75.75,0,0,1,.751.747v4.045a.539.539,0,0,1-.011.136c-.226,6.309-3.724,8.893-8.636,11.858l-.008,0a.828.828,0,0,1-.385.1A.7.7,0,0,1-352.345-15012.438Zm-2.9-16.583a10.452,10.452,0,0,1-4.241,1.264v2.358c0,.083,0,.162-.008.238s0,.146,0,.215c0,.147,0,.29.011.441v.061a9.861,9.861,0,0,0,2.226,6.368,20.824,20.824,0,0,0,5.312,4.132,20.227,20.227,0,0,0,5.377-4.2,9.913,9.913,0,0,0,2.166-6.32.334.334,0,0,1,.011-.1v-3.2a10.468,10.468,0,0,1-4.248-1.264,10.4,10.4,0,0,1-3.294-2.879A10.539,10.539,0,0,1-355.247-15029.021Zm3.26,10.961a.692.692,0,0,1-.389-.875l1.256-3.245h-2.237a.684.684,0,0,1-.558-.291.677.677,0,0,1-.079-.626l1.4-3.939a.68.68,0,0,1,.638-.456.686.686,0,0,1,.23.038.673.673,0,0,1,.415.867l-1.087,3.053h2.275a.672.672,0,0,1,.558.3.683.683,0,0,1,.068.622l-1.619,4.17a.654.654,0,0,1-.626.43A.578.578,0,0,1-351.987-15018.061Z" transform="translate(589.95 15193.821)"/></g></svg>