<svg xmlns="http://www.w3.org/2000/svg" width="24.001" height="24" viewBox="0 0 24.001 24"><defs><style>.a{opacity:0;}.b{opacity:0.498;}.c,.f{fill:none;}.c{stroke:#707070;}.d{fill:#666;}.e{stroke:none;}</style></defs><g class="a"><g class="b" transform="translate(-106.999 -748)"><g class="c" transform="translate(109 750)"><rect class="e" width="20" height="20"/><rect class="f" x="0.5" y="0.5" width="19" height="19"/></g><g class="c" transform="translate(107 748)"><rect class="e" width="24" height="24" rx="5"/><rect class="f" x="0.5" y="0.5" width="23" height="23" rx="4.5"/></g><g class="c" transform="translate(109 750)"><circle class="e" cx="10" cy="10" r="10"/><circle class="f" cx="10" cy="10" r="9.5"/></g><line class="c" y2="24" transform="translate(118.999 748)"/><line class="c" y2="24" transform="translate(118.999 748)"/><line class="c" y2="24" transform="translate(113.999 748)"/><line class="c" y2="24" transform="translate(123.999 748)"/><line class="c" y2="24" transform="translate(130.999 760) rotate(90)"/><line class="c" x1="19" y2="19" transform="translate(109.5 750.5)"/><line class="c" x1="19" y2="19" transform="translate(128.5 750.5) rotate(90)"/><g class="c" transform="translate(112 753)"><circle class="e" cx="7" cy="7" r="7"/><circle class="f" cx="7" cy="7" r="6.5"/></g><g class="c" transform="translate(114 755)"><circle class="e" cx="5" cy="5" r="5"/><circle class="f" cx="5" cy="5" r="4.5"/></g></g></g><rect class="d" width="9" height="1.5" rx="0.75" transform="translate(8 8)"/><rect class="d" width="6" height="1.5" rx="0.75" transform="translate(8 13)"/><path class="d" d="M-1003.806-14822.943h-10.647a2.55,2.55,0,0,1-2.545-2.548v-12.965a2.548,2.548,0,0,1,2.545-2.545h12.964a2.548,2.548,0,0,1,2.545,2.545v5.6h-1.39v-5.6a1.156,1.156,0,0,0-1.155-1.155h-12.964a1.159,1.159,0,0,0-1.159,1.155v12.965a1.162,1.162,0,0,0,1.159,1.158h10.65v1.39Zm.841-2.576,3.718-6.438c.114-.2.531-.172.928.059s.631.575.517.776l-3.718,6.436a11.382,11.382,0,0,1-1.562,1.041A11.539,11.539,0,0,1-1002.965-14825.52Z" transform="translate(1019.963 14844.023)"/></svg>