<svg xmlns="http://www.w3.org/2000/svg" width="24.001" height="24" viewBox="0 0 24.001 24"><defs><style>.a{opacity:0;}.b{opacity:0.498;}.c,.d,.g{fill:none;}.c{stroke:#707070;}.e{fill:#666;}.f,.h{stroke:none;}.h{fill:#666;}</style></defs><g class="a"><g class="b"><g class="c" transform="translate(2 2)"><rect class="f" width="20" height="20"/><rect class="g" x="0.5" y="0.5" width="19" height="19"/></g><g class="c"><rect class="f" width="24" height="24" rx="5"/><rect class="g" x="0.5" y="0.5" width="23" height="23" rx="4.5"/></g><g class="c" transform="translate(2 2)"><circle class="f" cx="10" cy="10" r="10"/><circle class="g" cx="10" cy="10" r="9.5"/></g><line class="c" y2="24" transform="translate(12)"/><line class="c" y2="24" transform="translate(12)"/><line class="c" y2="24" transform="translate(7)"/><line class="c" y2="24" transform="translate(17)"/><line class="c" y2="24" transform="translate(24 12) rotate(90)"/><line class="c" x1="19" y2="19" transform="translate(2.501 2.5)"/><line class="c" x1="19" y2="19" transform="translate(21.501 2.5) rotate(90)"/><g class="c" transform="translate(5 5)"><circle class="f" cx="7" cy="7" r="7"/><circle class="g" cx="7" cy="7" r="6.5"/></g><g class="c" transform="translate(7 7)"><circle class="f" cx="5" cy="5" r="5"/><circle class="g" cx="5" cy="5" r="4.5"/></g></g></g><g class="d" transform="translate(2.314 2.314)"><path class="f" d="M9.686,0A9.686,9.686,0,1,1,0,9.686,9.686,9.686,0,0,1,9.686,0Z"/><path class="h" d="M 9.685791015625 1.500001907348633 C 5.172130584716797 1.500001907348633 1.500001907348633 5.172130584716797 1.500001907348633 9.685791015625 C 1.500001907348633 14.1994514465332 5.172130584716797 17.87158012390137 9.685791015625 17.87158012390137 C 14.1994514465332 17.87158012390137 17.87158012390137 14.1994514465332 17.87158012390137 9.685791015625 C 17.87158012390137 5.172130584716797 14.1994514465332 1.500001907348633 9.685791015625 1.500001907348633 M 9.685791015625 1.9073486328125e-06 C 15.03510093688965 1.9073486328125e-06 19.37158012390137 4.336481094360352 19.37158012390137 9.685791015625 C 19.37158012390137 15.03510093688965 15.03510093688965 19.37158012390137 9.685791015625 19.37158012390137 C 4.336481094360352 19.37158012390137 1.9073486328125e-06 15.03510093688965 1.9073486328125e-06 9.685791015625 C 1.9073486328125e-06 4.336481094360352 4.336481094360352 1.9073486328125e-06 9.685791015625 1.9073486328125e-06 Z"/></g><circle class="e" cx="1.3" cy="1.3" r="1.3" transform="translate(10.7 6)"/><rect class="e" width="2" height="8" rx="1" transform="translate(10.9 10)"/></svg>