<svg xmlns="http://www.w3.org/2000/svg" width="14" height="14" viewBox="0 0 14 14"><defs><style>.a{opacity:0;}.b{fill:#eaeaea;opacity:0.224;}.c,.d{fill:#999;}.c{opacity:0.882;}</style></defs><g class="a"><rect class="b" width="14" height="14" rx="7"/><path class="c" d="M3.062,14a3.052,3.052,0,0,1-2.143-.875H.875v-.044A3.053,3.053,0,0,1,0,10.938V3.063A3.053,3.053,0,0,1,.875.92V.876H.919A3.052,3.052,0,0,1,3.062,0h7.875A3.052,3.052,0,0,1,13.08.876h.044V.92A3.052,3.052,0,0,1,14,3.063V6.781h0v.437h0v3.719a3.052,3.052,0,0,1-.875,2.143v.044h-.044A3.053,3.053,0,0,1,10.937,14Zm7.875-.438a2.611,2.611,0,0,0,1.45-.437H9.844v.437Zm-1.531,0v-.437H7.219v.437Zm-2.625,0v-.437H4.594v.437Zm-3.719,0H4.156v-.437H1.613A2.61,2.61,0,0,0,3.062,13.562Zm6.782-1.136v.261h2.534l-1.2-1.2A6.148,6.148,0,0,1,9.844,12.426Zm-.567.261h.13v-.054Zm-4.683,0h.129l-.129-.054Zm-2.972,0H4.156v-.261a6.117,6.117,0,0,1-1.33-.943Zm5.6-1.756v1.752a5.654,5.654,0,0,0,2.187-.527V10.117A3.919,3.919,0,0,1,7.219,10.931ZM4.594,12.157a5.658,5.658,0,0,0,2.188.526V10.931a3.919,3.919,0,0,1-2.188-.814ZM.437,10.938a2.61,2.61,0,0,0,.437,1.449V7.219H.437Zm12.687,1.449a2.609,2.609,0,0,0,.437-1.449V7.219h-.437Zm-1.642-1.214,1.2,1.2v-3.1A6.122,6.122,0,0,1,11.483,11.173Zm-10.17,1.2,1.2-1.2a6.128,6.128,0,0,1-1.2-1.9Zm1.823-1.2a5.686,5.686,0,0,0,1.021.755V10.153Zm6.708.755a5.727,5.727,0,0,0,1.02-.755l-1.02-1.02Zm.091-2.3,1.239,1.239a5.64,5.64,0,0,0,1.51-3.645H10.931A3.918,3.918,0,0,1,9.935,9.625ZM2.826,10.864,4.065,9.625a3.919,3.919,0,0,1-1-2.406H1.316A5.641,5.641,0,0,0,2.826,10.864ZM7.219,9.616v.877a3.485,3.485,0,0,0,2.1-.87L8.7,9A2.613,2.613,0,0,1,7.219,9.616Zm-2.533.007a3.487,3.487,0,0,0,2.1.87V9.616A2.615,2.615,0,0,1,5.3,9Zm2.533-.447a2.18,2.18,0,0,0,1.165-.484L7.219,7.528Zm-1.6-.484a2.178,2.178,0,0,0,1.165.484V7.528ZM9,8.695l.4.4V8.051A2.642,2.642,0,0,1,9,8.695Zm-4.411.4.4-.4a2.629,2.629,0,0,1-.4-.644Zm-.437-.058V7.219h-.65A3.475,3.475,0,0,0,4.156,9.038Zm5.688,0a3.482,3.482,0,0,0,.649-1.819H9.844ZM8.693,8.384a2.178,2.178,0,0,0,.484-1.165H7.528Zm-3.386,0L6.472,7.219H4.823A2.177,2.177,0,0,0,5.306,8.384Zm7.818-1.6h.437V3.063a2.61,2.61,0,0,0-.437-1.449ZM9.934,4.375a3.918,3.918,0,0,1,1,2.406h1.752a5.643,5.643,0,0,0-1.51-3.645Zm-.09,2.406h.649a3.479,3.479,0,0,0-.649-1.819Zm-2.316,0H9.176a2.177,2.177,0,0,0-.484-1.165Zm-2.705,0H6.472L5.307,5.616A2.174,2.174,0,0,0,4.823,6.781Zm-1.316,0h.65V4.962A3.476,3.476,0,0,0,3.507,6.781Zm-2.19,0H3.068a3.919,3.919,0,0,1,1-2.406L2.826,3.136A5.641,5.641,0,0,0,1.316,6.781Zm-.441,0V1.614a2.61,2.61,0,0,0-.437,1.45V6.781ZM5.616,5.307,6.781,6.472V4.824A2.174,2.174,0,0,0,5.616,5.307Zm1.6,1.164L8.383,5.307a2.175,2.175,0,0,0-1.164-.483ZM9,5.305a2.627,2.627,0,0,1,.4.644V4.9Zm-4.41.644A2.614,2.614,0,0,1,5,5.305l-.4-.4ZM7.219,4.384A2.614,2.614,0,0,1,8.695,5l.619-.619a3.484,3.484,0,0,0-2.095-.869ZM4.686,4.377,5.3,5a2.616,2.616,0,0,1,1.477-.611V3.507A3.483,3.483,0,0,0,4.686,4.377Zm6.8-1.55a6.123,6.123,0,0,1,1.2,1.9v-3.1Zm-10.17,1.9a6.13,6.13,0,0,1,1.2-1.9l-1.2-1.2ZM7.219,3.069a3.919,3.919,0,0,1,2.187.814V1.844a5.654,5.654,0,0,0-2.187-.527ZM4.594,1.844V3.883a3.919,3.919,0,0,1,2.188-.814V1.317A5.652,5.652,0,0,0,4.594,1.844Zm-1.458.983,1.021,1.02V2.072A5.7,5.7,0,0,0,3.136,2.827ZM9.844,3.846l1.019-1.02a5.7,5.7,0,0,0-1.019-.754ZM2.826,2.518a6.133,6.133,0,0,1,1.33-.944V1.313H1.622Zm7.018-.943a6.143,6.143,0,0,1,1.329.943l1.2-1.2H9.844Zm-.438-.208V1.313H9.278Zm-4.812,0,.128-.053H4.594ZM9.844.876h2.543A2.611,2.611,0,0,0,10.937.438H9.844Zm-2.625,0H9.406V.438H7.219Zm-2.625,0H6.781V.438H4.594Zm-.437,0V.438H3.062A2.61,2.61,0,0,0,1.613.876Z"/></g><path class="d" d="M3.908,10.539A4.165,4.165,0,0,1,0,6.166C0,4.919,1.063,3.309,1.954,2.177A23.974,23.974,0,0,1,3.908,0l.008.007a24.356,24.356,0,0,1,1.946,2.17c.891,1.131,1.954,2.741,1.954,3.989A4.165,4.165,0,0,1,3.908,10.539ZM5.677,7.1a1.01,1.01,0,0,0-.644.3,1.111,1.111,0,0,0-.371.69.408.408,0,0,0,.077.287.356.356,0,0,0,.29.125,1.014,1.014,0,0,0,.645-.3,1.11,1.11,0,0,0,.371-.69.408.408,0,0,0-.078-.287A.357.357,0,0,0,5.677,7.1ZM8.42,4.119A1.65,1.65,0,0,1,6.839,2.411C6.839,1.477,8.4.015,8.42,0l0,0C8.585.156,10,1.523,10,2.411A1.65,1.65,0,0,1,8.42,4.119Z" transform="translate(2 2)"/></svg>