<svg xmlns="http://www.w3.org/2000/svg" xmlns:xlink="http://www.w3.org/1999/xlink" width="24.001" height="24.001" viewBox="0 0 24.001 24.001"><defs><style>.a{opacity:0;}.b{opacity:0.498;}.c,.h{fill:none;}.c{stroke:#707070;}.d{fill:#eaeaea;opacity:0.224;}.e{fill:#c9c9c9;opacity:0.882;}.f{fill:url(#a);}.g{stroke:none;}</style><linearGradient id="a" x1="0.5" x2="0.5" y2="1" gradientUnits="objectBoundingBox"><stop offset="0" stop-color="#90d9ff"/><stop offset="1" stop-color="#0060ff"/></linearGradient></defs><g class="a"><g class="b" transform="translate(-106.999 -748)"><g class="c" transform="translate(109 750)"><rect class="g" width="20" height="20"/><rect class="h" x="0.5" y="0.5" width="19" height="19"/></g><g class="c" transform="translate(107 748)"><rect class="g" width="24" height="24" rx="5"/><rect class="h" x="0.5" y="0.5" width="23" height="23" rx="4.5"/></g><g class="c" transform="translate(109 750)"><circle class="g" cx="10" cy="10" r="10"/><circle class="h" cx="10" cy="10" r="9.5"/></g><line class="c" y2="24" transform="translate(118.999 748)"/><line class="c" y2="24" transform="translate(118.999 748)"/><line class="c" y2="24" transform="translate(113.999 748)"/><line class="c" y2="24" transform="translate(123.999 748)"/><line class="c" y2="24" transform="translate(130.999 760) rotate(90)"/><line class="c" x1="19" y2="19" transform="translate(109.5 750.5)"/><line class="c" x1="19" y2="19" transform="translate(128.5 750.5) rotate(90)"/><g class="c" transform="translate(112 753)"><circle class="g" cx="7" cy="7" r="7"/><circle class="h" cx="7" cy="7" r="6.5"/></g><g class="c" transform="translate(114 755)"><circle class="g" cx="5" cy="5" r="5"/><circle class="h" cx="5" cy="5" r="4.5"/></g></g></g><g class="a"><rect class="d" width="23.999" height="23.999" rx="7"/><path class="e" d="M5.249,24a5.232,5.232,0,0,1-3.674-1.5H1.5v-.076A5.233,5.233,0,0,1,0,18.751V5.251A5.233,5.233,0,0,1,1.5,1.577V1.5h.076A5.232,5.232,0,0,1,5.249,0h13.5a5.233,5.233,0,0,1,3.674,1.5H22.5v.076A5.233,5.233,0,0,1,24,5.251v6.374h0v.75h0v6.376a5.233,5.233,0,0,1-1.5,3.674V22.5h-.076A5.233,5.233,0,0,1,18.749,24Zm13.5-.751a4.475,4.475,0,0,0,2.485-.75H16.876v.75Zm-2.624,0V22.5h-3.75v.75Zm-4.5,0V22.5H7.875v.75Zm-6.376,0H7.125V22.5H2.764A4.474,4.474,0,0,0,5.249,23.251ZM16.876,21.3v.448h4.344l-2.065-2.065A10.539,10.539,0,0,1,16.876,21.3Zm-.973.448h.222v-.092C16.051,21.691,15.978,21.721,15.9,21.751Zm-8.028,0H8.1c-.074-.03-.148-.06-.221-.092Zm-5.1,0H7.125V21.3a10.486,10.486,0,0,1-2.28-1.617Zm9.6-3.01v3a9.692,9.692,0,0,0,3.75-.9v-3.5A6.718,6.718,0,0,1,12.375,18.741Zm-4.5,2.1a9.7,9.7,0,0,0,3.75.9v-3a6.718,6.718,0,0,1-3.75-1.4ZM.75,18.751a4.474,4.474,0,0,0,.75,2.485V12.375H.75ZM22.5,21.236a4.474,4.474,0,0,0,.75-2.485V12.375H22.5Zm-2.815-2.081L21.75,21.22V15.9A10.5,10.5,0,0,1,19.685,19.155ZM2.25,21.219l2.064-2.064A10.506,10.506,0,0,1,2.25,15.906Zm3.126-2.064a9.748,9.748,0,0,0,1.75,1.295V17.405Zm11.5,1.294a9.817,9.817,0,0,0,1.748-1.294l-1.748-1.749Zm.155-3.948,2.124,2.124a9.67,9.67,0,0,0,2.588-6.249h-3A6.717,6.717,0,0,1,17.031,16.5ZM4.845,18.624,6.969,16.5A6.719,6.719,0,0,1,5.26,12.375h-3A9.671,9.671,0,0,0,4.845,18.624Zm7.53-2.139v1.5A5.975,5.975,0,0,0,15.967,16.5l-1.061-1.061A4.479,4.479,0,0,1,12.375,16.485ZM8.032,16.5a5.977,5.977,0,0,0,3.593,1.491v-1.5a4.483,4.483,0,0,1-2.532-1.048Zm4.343-.766a3.737,3.737,0,0,0,2-.829l-2-2ZM9.627,14.9a3.734,3.734,0,0,0,2,.829V12.905Zm5.809,0,.688.688V13.8A4.53,4.53,0,0,1,15.436,14.907Zm-7.561.688.688-.688a4.507,4.507,0,0,1-.688-1.1Zm-.75-.1v-3.12H6.011A5.957,5.957,0,0,0,7.125,15.5Zm9.75,0a5.969,5.969,0,0,0,1.112-3.119H16.876ZM14.9,14.373a3.734,3.734,0,0,0,.829-2H12.906Zm-5.8,0,2-2H8.268A3.732,3.732,0,0,0,9.1,14.373Zm13.4-2.747h.75V5.251a4.475,4.475,0,0,0-.75-2.485ZM17.03,7.5a6.718,6.718,0,0,1,1.709,4.125h3a9.674,9.674,0,0,0-2.588-6.249Zm-.155,4.125h1.112a5.965,5.965,0,0,0-1.112-3.118Zm-3.97,0h2.826a3.732,3.732,0,0,0-.829-2Zm-4.637,0h2.827l-2-2A3.727,3.727,0,0,0,8.268,11.625Zm-2.257,0H7.125V8.506A5.959,5.959,0,0,0,6.011,11.625Zm-3.755,0h3A6.718,6.718,0,0,1,6.969,7.5L4.845,5.377A9.672,9.672,0,0,0,2.256,11.625Zm-.757,0V2.766A4.475,4.475,0,0,0,.75,5.251v6.374ZM9.628,9.1l2,2V8.27A3.726,3.726,0,0,0,9.628,9.1Zm2.747,2,2-2a3.729,3.729,0,0,0-2-.828Zm3.06-2a4.5,4.5,0,0,1,.689,1.1V8.406ZM7.875,10.2a4.482,4.482,0,0,1,.688-1.1l-.688-.689Zm4.5-2.683a4.481,4.481,0,0,1,2.53,1.048L15.966,7.5a5.972,5.972,0,0,0-3.591-1.49ZM8.033,7.5,9.094,8.564a4.484,4.484,0,0,1,2.531-1.048v-1.5A5.97,5.97,0,0,0,8.033,7.5ZM19.684,4.846A10.5,10.5,0,0,1,21.75,8.1V2.781ZM2.25,8.1a10.509,10.509,0,0,1,2.065-3.25L2.25,2.782ZM12.375,5.262a6.718,6.718,0,0,1,3.75,1.4v-3.5a9.692,9.692,0,0,0-3.75-.9Zm-4.5-2.1v3.5a6.718,6.718,0,0,1,3.75-1.4v-3A9.689,9.689,0,0,0,7.875,3.161Zm-2.5,1.685,1.75,1.748V3.552A9.777,9.777,0,0,0,5.376,4.846Zm11.5,1.748,1.748-1.748a9.778,9.778,0,0,0-1.748-1.293ZM4.845,4.317A10.513,10.513,0,0,1,7.125,2.7V2.251H2.781ZM16.876,2.7a10.531,10.531,0,0,1,2.278,1.616l2.064-2.064H16.876Zm-.751-.357V2.251H15.9Zm-8.25,0,.22-.091h-.22Zm9-.841h4.359a4.475,4.475,0,0,0-2.485-.75H16.876Zm-4.5,0h3.75V.751h-3.75Zm-4.5,0h3.75V.751H7.875Zm-.75,0V.751H5.249a4.474,4.474,0,0,0-2.485.75Z"/></g><path class="f" d="M9,18A9,9,0,1,1,9,0c.3,0,.6.015.894.044A7.925,7.925,0,0,0,9.111,3.5a8.009,8.009,0,0,0,8,8c.18,0,.363-.006.543-.018a9.064,9.064,0,0,1-3.19,4.67A8.917,8.917,0,0,1,9,18Z" transform="translate(3 3)"/></svg>