<svg xmlns="http://www.w3.org/2000/svg" xmlns:xlink="http://www.w3.org/1999/xlink" width="24.001" height="24" viewBox="0 0 24.001 24"><defs><style>.a{opacity:0;}.b{opacity:0.498;}.c,.h{fill:none;}.c{stroke:#707070;}.d{fill:url(#a);}.e{fill:url(#b);}.f{fill:url(#c);}.g{stroke:none;}</style><linearGradient id="a" x1="1.723" y1="-3.457" x2="0.5" y2="1" gradientUnits="objectBoundingBox"><stop offset="0" stop-color="#fff"/><stop offset="1" stop-color="#8eb6ff"/></linearGradient><linearGradient id="b" x1="1.679" y1="-2.28" x2="0.5" y2="1" gradientUnits="objectBoundingBox"><stop offset="0" stop-color="#fff"/><stop offset="1" stop-color="#4084ff"/></linearGradient><linearGradient id="c" x1="0.5" x2="0.5" y2="1" gradientUnits="objectBoundingBox"><stop offset="0" stop-color="#d8edff"/><stop offset="1" stop-color="#96bfff"/></linearGradient></defs><g class="a"><g class="b" transform="translate(-106.999 -748)"><g class="c" transform="translate(109 750)"><rect class="g" width="20" height="20"/><rect class="h" x="0.5" y="0.5" width="19" height="19"/></g><g class="c" transform="translate(107 748)"><rect class="g" width="24" height="24" rx="5"/><rect class="h" x="0.5" y="0.5" width="23" height="23" rx="4.5"/></g><g class="c" transform="translate(109 750)"><circle class="g" cx="10" cy="10" r="10"/><circle class="h" cx="10" cy="10" r="9.5"/></g><line class="c" y2="24" transform="translate(118.999 748)"/><line class="c" y2="24" transform="translate(118.999 748)"/><line class="c" y2="24" transform="translate(113.999 748)"/><line class="c" y2="24" transform="translate(123.999 748)"/><line class="c" y2="24" transform="translate(130.999 760) rotate(90)"/><line class="c" x1="19" y2="19" transform="translate(109.5 750.5)"/><line class="c" x1="19" y2="19" transform="translate(128.5 750.5) rotate(90)"/><g class="c" transform="translate(112 753)"><circle class="g" cx="7" cy="7" r="7"/><circle class="h" cx="7" cy="7" r="6.5"/></g><g class="c" transform="translate(114 755)"><circle class="g" cx="5" cy="5" r="5"/><circle class="h" cx="5" cy="5" r="4.5"/></g></g></g><circle class="d" cx="3.5" cy="3.5" r="3.5" transform="translate(12.001 5)"/><circle class="e" cx="4" cy="4" r="4" transform="translate(14.001 8)"/><path class="f" d="M6,15.528a5,5,0,0,1-1.736-9.69,5.848,5.848,0,0,1,11.687-.31H16a5,5,0,0,1,0,10Z" transform="translate(1.001 6)"/></svg>